G04 #@! TF.GenerationSoftware,KiCad,Pcbnew,(6.0.9)*
G04 #@! TF.CreationDate,2023-01-29T21:25:14-08:00*
G04 #@! TF.ProjectId,RadarPanelController,52616461-7250-4616-9e65-6c436f6e7472,REV1*
G04 #@! TF.SameCoordinates,Original*
G04 #@! TF.FileFunction,Soldermask,Top*
G04 #@! TF.FilePolarity,Negative*
%FSLAX46Y46*%
G04 Gerber Fmt 4.6, Leading zero omitted, Abs format (unit mm)*
G04 Created by KiCad (PCBNEW (6.0.9)) date 2023-01-29 21:25:14*
%MOMM*%
%LPD*%
G01*
G04 APERTURE LIST*
G04 Aperture macros list*
%AMRoundRect*
0 Rectangle with rounded corners*
0 $1 Rounding radius*
0 $2 $3 $4 $5 $6 $7 $8 $9 X,Y pos of 4 corners*
0 Add a 4 corners polygon primitive as box body*
4,1,4,$2,$3,$4,$5,$6,$7,$8,$9,$2,$3,0*
0 Add four circle primitives for the rounded corners*
1,1,$1+$1,$2,$3*
1,1,$1+$1,$4,$5*
1,1,$1+$1,$6,$7*
1,1,$1+$1,$8,$9*
0 Add four rect primitives between the rounded corners*
20,1,$1+$1,$2,$3,$4,$5,0*
20,1,$1+$1,$4,$5,$6,$7,0*
20,1,$1+$1,$6,$7,$8,$9,0*
20,1,$1+$1,$8,$9,$2,$3,0*%
%AMFreePoly0*
4,1,21,2.125000,-3.300000,1.400000,-3.300000,1.400000,-2.775000,0.000000,-2.775000,0.000000,-2.225000,0.520000,-2.225000,0.520000,-1.525000,0.000000,-1.525000,0.000000,-0.975000,0.520000,-0.975000,0.520000,-0.275000,0.000000,-0.275000,0.000000,-0.000500,-0.000500,-0.000500,-0.000500,0.000500,0.000000,0.000500,0.000000,0.275000,1.725000,0.275000,1.725000,1.235000,2.125000,1.235000,
2.125000,-3.300000,2.125000,-3.300000,$1*%
%AMFreePoly1*
4,1,9,3.862500,-0.866500,0.737500,-0.866500,0.737500,-0.450000,-0.737500,-0.450000,-0.737500,0.450000,0.737500,0.450000,0.737500,0.866500,3.862500,0.866500,3.862500,-0.866500,3.862500,-0.866500,$1*%
G04 Aperture macros list end*
%ADD10C,0.100000*%
%ADD11RoundRect,0.200000X-0.275000X0.200000X-0.275000X-0.200000X0.275000X-0.200000X0.275000X0.200000X0*%
%ADD12RoundRect,0.250000X1.100000X-0.325000X1.100000X0.325000X-1.100000X0.325000X-1.100000X-0.325000X0*%
%ADD13RoundRect,0.200000X0.275000X-0.200000X0.275000X0.200000X-0.275000X0.200000X-0.275000X-0.200000X0*%
%ADD14RoundRect,0.225000X-0.225000X-0.250000X0.225000X-0.250000X0.225000X0.250000X-0.225000X0.250000X0*%
%ADD15RoundRect,0.225000X0.225000X0.250000X-0.225000X0.250000X-0.225000X-0.250000X0.225000X-0.250000X0*%
%ADD16RoundRect,0.150000X0.150000X-0.587500X0.150000X0.587500X-0.150000X0.587500X-0.150000X-0.587500X0*%
%ADD17RoundRect,0.250000X-0.325000X-1.100000X0.325000X-1.100000X0.325000X1.100000X-0.325000X1.100000X0*%
%ADD18RoundRect,0.250000X1.000000X-1.950000X1.000000X1.950000X-1.000000X1.950000X-1.000000X-1.950000X0*%
%ADD19RoundRect,0.250000X-0.325000X-0.650000X0.325000X-0.650000X0.325000X0.650000X-0.325000X0.650000X0*%
%ADD20RoundRect,0.250000X0.450000X-0.262500X0.450000X0.262500X-0.450000X0.262500X-0.450000X-0.262500X0*%
%ADD21RoundRect,0.250000X0.250000X0.475000X-0.250000X0.475000X-0.250000X-0.475000X0.250000X-0.475000X0*%
%ADD22RoundRect,0.243750X0.456250X-0.243750X0.456250X0.243750X-0.456250X0.243750X-0.456250X-0.243750X0*%
%ADD23RoundRect,0.140000X0.140000X0.170000X-0.140000X0.170000X-0.140000X-0.170000X0.140000X-0.170000X0*%
%ADD24RoundRect,0.250000X-0.600000X-0.725000X0.600000X-0.725000X0.600000X0.725000X-0.600000X0.725000X0*%
%ADD25O,1.700000X1.950000*%
%ADD26RoundRect,0.225000X0.250000X-0.225000X0.250000X0.225000X-0.250000X0.225000X-0.250000X-0.225000X0*%
%ADD27RoundRect,0.250000X0.475000X-0.250000X0.475000X0.250000X-0.475000X0.250000X-0.475000X-0.250000X0*%
%ADD28RoundRect,0.250000X0.325000X1.100000X-0.325000X1.100000X-0.325000X-1.100000X0.325000X-1.100000X0*%
%ADD29R,1.700000X1.700000*%
%ADD30O,1.700000X1.700000*%
%ADD31C,0.800000*%
%ADD32C,6.400000*%
%ADD33FreePoly0,0.000000*%
%ADD34R,0.920000X0.300000*%
%ADD35R,0.300000X0.920000*%
%ADD36R,0.920000X0.350000*%
%ADD37RoundRect,0.035000X-0.465000X-0.140000X0.465000X-0.140000X0.465000X0.140000X-0.465000X0.140000X0*%
%ADD38RoundRect,0.060000X0.140000X-0.490000X0.140000X0.490000X-0.140000X0.490000X-0.140000X-0.490000X0*%
%ADD39RoundRect,0.060000X0.240000X-0.490000X0.240000X0.490000X-0.240000X0.490000X-0.240000X-0.490000X0*%
%ADD40RoundRect,0.250000X-0.250000X-0.475000X0.250000X-0.475000X0.250000X0.475000X-0.250000X0.475000X0*%
%ADD41RoundRect,0.250000X1.500000X0.550000X-1.500000X0.550000X-1.500000X-0.550000X1.500000X-0.550000X0*%
%ADD42RoundRect,0.250000X-0.450000X0.262500X-0.450000X-0.262500X0.450000X-0.262500X0.450000X0.262500X0*%
%ADD43RoundRect,0.200000X0.200000X0.275000X-0.200000X0.275000X-0.200000X-0.275000X0.200000X-0.275000X0*%
%ADD44R,1.750000X1.750000*%
%ADD45C,1.750000*%
%ADD46C,2.700000*%
%ADD47RoundRect,0.250000X-1.100000X0.325000X-1.100000X-0.325000X1.100000X-0.325000X1.100000X0.325000X0*%
%ADD48RoundRect,0.250000X0.650000X-0.325000X0.650000X0.325000X-0.650000X0.325000X-0.650000X-0.325000X0*%
%ADD49RoundRect,0.200000X-0.200000X-0.275000X0.200000X-0.275000X0.200000X0.275000X-0.200000X0.275000X0*%
%ADD50RoundRect,0.800000X1.700000X-1.200000X1.700000X1.200000X-1.700000X1.200000X-1.700000X-1.200000X0*%
%ADD51C,1.850000*%
%ADD52RoundRect,0.243750X0.243750X0.456250X-0.243750X0.456250X-0.243750X-0.456250X0.243750X-0.456250X0*%
%ADD53RoundRect,0.250000X0.262500X0.450000X-0.262500X0.450000X-0.262500X-0.450000X0.262500X-0.450000X0*%
%ADD54R,1.300000X0.900000*%
%ADD55FreePoly1,0.000000*%
%ADD56RoundRect,0.165000X0.385000X-0.710000X0.385000X0.710000X-0.385000X0.710000X-0.385000X-0.710000X0*%
%ADD57R,2.540000X2.540000*%
%ADD58C,2.540000*%
%ADD59RoundRect,0.243750X-0.456250X0.243750X-0.456250X-0.243750X0.456250X-0.243750X0.456250X0.243750X0*%
%ADD60RoundRect,0.135000X-0.135000X-0.185000X0.135000X-0.185000X0.135000X0.185000X-0.135000X0.185000X0*%
%ADD61RoundRect,0.062500X-0.062500X0.475000X-0.062500X-0.475000X0.062500X-0.475000X0.062500X0.475000X0*%
%ADD62RoundRect,0.062500X-0.475000X0.062500X-0.475000X-0.062500X0.475000X-0.062500X0.475000X0.062500X0*%
%ADD63R,5.200000X5.200000*%
%ADD64R,0.400000X1.650000*%
%ADD65R,2.000000X1.500000*%
%ADD66R,1.350000X2.000000*%
%ADD67R,1.825000X0.700000*%
%ADD68R,1.430000X2.500000*%
%ADD69O,1.350000X1.700000*%
%ADD70O,1.100000X1.500000*%
%ADD71R,1.900000X0.400000*%
G04 APERTURE END LIST*
G36*
X57408300Y-87847600D02*
G01*
X55615060Y-87847600D01*
X55615060Y-88660400D01*
X55005460Y-88660400D01*
X55005460Y-87593600D01*
X57408300Y-87593600D01*
X57408300Y-87847600D01*
G37*
D10*
X57408300Y-87847600D02*
X55615060Y-87847600D01*
X55615060Y-88660400D01*
X55005460Y-88660400D01*
X55005460Y-87593600D01*
X57408300Y-87593600D01*
X57408300Y-87847600D01*
G36*
X53423040Y-88370840D02*
G01*
X52749940Y-88370840D01*
X52749940Y-87855220D01*
X51591700Y-87855220D01*
X51591700Y-87347220D01*
X52313060Y-87347220D01*
X52313060Y-86603000D01*
X51591700Y-86603000D01*
X51591700Y-86095000D01*
X52313060Y-86095000D01*
X52313060Y-85353320D01*
X51591700Y-85353320D01*
X51591700Y-84845320D01*
X53118240Y-84845320D01*
X53118240Y-84088400D01*
X53423040Y-84088400D01*
X53423040Y-88370840D01*
G37*
X53423040Y-88370840D02*
X52749940Y-88370840D01*
X52749940Y-87855220D01*
X51591700Y-87855220D01*
X51591700Y-87347220D01*
X52313060Y-87347220D01*
X52313060Y-86603000D01*
X51591700Y-86603000D01*
X51591700Y-86095000D01*
X52313060Y-86095000D01*
X52313060Y-85353320D01*
X51591700Y-85353320D01*
X51591700Y-84845320D01*
X53118240Y-84845320D01*
X53118240Y-84088400D01*
X53423040Y-84088400D01*
X53423040Y-88370840D01*
G36*
X56453260Y-84847860D02*
G01*
X57408300Y-84847860D01*
X57408300Y-85101860D01*
X56702180Y-85101860D01*
X56702180Y-85348240D01*
X57408300Y-85348240D01*
X57408300Y-85602240D01*
X56702180Y-85602240D01*
X56702180Y-85848620D01*
X57408300Y-85848620D01*
X57408300Y-86102620D01*
X56702180Y-86102620D01*
X56702180Y-86349000D01*
X57408300Y-86349000D01*
X57408300Y-86603000D01*
X56702180Y-86603000D01*
X56702180Y-86846840D01*
X57408300Y-86846840D01*
X57408300Y-87100840D01*
X56148460Y-87100840D01*
X56148460Y-84088400D01*
X56453260Y-84088400D01*
X56453260Y-84847860D01*
G37*
X56453260Y-84847860D02*
X57408300Y-84847860D01*
X57408300Y-85101860D01*
X56702180Y-85101860D01*
X56702180Y-85348240D01*
X57408300Y-85348240D01*
X57408300Y-85602240D01*
X56702180Y-85602240D01*
X56702180Y-85848620D01*
X57408300Y-85848620D01*
X57408300Y-86102620D01*
X56702180Y-86102620D01*
X56702180Y-86349000D01*
X57408300Y-86349000D01*
X57408300Y-86603000D01*
X56702180Y-86603000D01*
X56702180Y-86846840D01*
X57408300Y-86846840D01*
X57408300Y-87100840D01*
X56148460Y-87100840D01*
X56148460Y-84088400D01*
X56453260Y-84088400D01*
X56453260Y-84847860D01*
G36*
X54284100Y-84845320D02*
G01*
X55246760Y-84845320D01*
X55246760Y-84088400D01*
X55754760Y-84088400D01*
X55754760Y-86890020D01*
X54606680Y-86890020D01*
X54606680Y-88970280D01*
X56252600Y-88970280D01*
X56252600Y-90748280D01*
X52747400Y-90748280D01*
X52747400Y-88970280D01*
X53776100Y-88970280D01*
X53776100Y-84088400D01*
X54284100Y-84088400D01*
X54284100Y-84845320D01*
G37*
X54284100Y-84845320D02*
X55246760Y-84845320D01*
X55246760Y-84088400D01*
X55754760Y-84088400D01*
X55754760Y-86890020D01*
X54606680Y-86890020D01*
X54606680Y-88970280D01*
X56252600Y-88970280D01*
X56252600Y-90748280D01*
X52747400Y-90748280D01*
X52747400Y-88970280D01*
X53776100Y-88970280D01*
X53776100Y-84088400D01*
X54284100Y-84088400D01*
X54284100Y-84845320D01*
D11*
X85900000Y-90075000D03*
X85900000Y-91725000D03*
D12*
X59000000Y-53975000D03*
X59000000Y-51025000D03*
D13*
X57000000Y-98825000D03*
X57000000Y-97175000D03*
D14*
X102325000Y-56800000D03*
X103875000Y-56800000D03*
D15*
X90675000Y-55300000D03*
X89125000Y-55300000D03*
D13*
X50000000Y-94625000D03*
X50000000Y-92975000D03*
D16*
X63950000Y-41437500D03*
X65850000Y-41437500D03*
X64900000Y-39562500D03*
D17*
X66525000Y-55300000D03*
X69475000Y-55300000D03*
D12*
X55500000Y-53975000D03*
X55500000Y-51025000D03*
D18*
X45500000Y-83200000D03*
X45500000Y-75800000D03*
D19*
X35125000Y-72900000D03*
X38075000Y-72900000D03*
D20*
X106100000Y-76912500D03*
X106100000Y-75087500D03*
D21*
X78050000Y-59100000D03*
X76150000Y-59100000D03*
D22*
X104000000Y-76937500D03*
X104000000Y-75062500D03*
D23*
X49980000Y-89500000D03*
X49020000Y-89500000D03*
D13*
X100500000Y-38725000D03*
X100500000Y-37075000D03*
D15*
X94875000Y-66100000D03*
X93325000Y-66100000D03*
D17*
X66525000Y-58800000D03*
X69475000Y-58800000D03*
D13*
X68900000Y-89625000D03*
X68900000Y-87975000D03*
D24*
X33850000Y-33875000D03*
D25*
X36350000Y-33875000D03*
X38850000Y-33875000D03*
X41350000Y-33875000D03*
D17*
X66525000Y-65800000D03*
X69475000Y-65800000D03*
X66525000Y-62300000D03*
X69475000Y-62300000D03*
D26*
X103800000Y-59875000D03*
X103800000Y-58325000D03*
D27*
X40600000Y-69250000D03*
X40600000Y-67350000D03*
D11*
X60600000Y-92275000D03*
X60600000Y-93925000D03*
D28*
X58475000Y-61000000D03*
X55525000Y-61000000D03*
D29*
X63650000Y-34775000D03*
D30*
X63650000Y-32235000D03*
X66190000Y-34775000D03*
X66190000Y-32235000D03*
X68730000Y-34775000D03*
X68730000Y-32235000D03*
X71270000Y-34775000D03*
X71270000Y-32235000D03*
X73810000Y-34775000D03*
X73810000Y-32235000D03*
X76350000Y-34775000D03*
X76350000Y-32235000D03*
D26*
X104400000Y-63675000D03*
X104400000Y-62125000D03*
D28*
X58475000Y-64500000D03*
X55525000Y-64500000D03*
D13*
X55000000Y-98825000D03*
X55000000Y-97175000D03*
D16*
X74150000Y-41437500D03*
X76050000Y-41437500D03*
X75100000Y-39562500D03*
D31*
X54000000Y-44900000D03*
X52302944Y-44197056D03*
X54000000Y-40100000D03*
X55697056Y-40802944D03*
X51600000Y-42500000D03*
X55697056Y-44197056D03*
X52302944Y-40802944D03*
D32*
X54000000Y-42500000D03*
D31*
X56400000Y-42500000D03*
D33*
X51340000Y-85080000D03*
D34*
X51998100Y-88220980D03*
X51998100Y-88718820D03*
X51998100Y-89219200D03*
X51998100Y-89719580D03*
X51998100Y-90219960D03*
X51998100Y-90720340D03*
D35*
X52501020Y-91505200D03*
X52998860Y-91505200D03*
X53499240Y-91505200D03*
X53999620Y-91505200D03*
X54500000Y-91505200D03*
X55000380Y-91505200D03*
X55500760Y-91505200D03*
X56001140Y-91505200D03*
X56498980Y-91505200D03*
D34*
X57001900Y-90720340D03*
X57001900Y-90219960D03*
X57001900Y-89719580D03*
X57001900Y-89219200D03*
X57001900Y-88718820D03*
X57001900Y-88220980D03*
D36*
X57001900Y-87720600D03*
D37*
X57160000Y-86973840D03*
X57160000Y-86476000D03*
X57160000Y-85975620D03*
X57160000Y-85475240D03*
X57160000Y-84974860D03*
D38*
X56300860Y-84395800D03*
D39*
X55500760Y-84395800D03*
X54030100Y-84395800D03*
D14*
X52725000Y-82500000D03*
X54275000Y-82500000D03*
D26*
X99900000Y-55175000D03*
X99900000Y-53625000D03*
D40*
X91950000Y-83300000D03*
X93850000Y-83300000D03*
D20*
X33300000Y-76912500D03*
X33300000Y-75087500D03*
D26*
X102800000Y-63675000D03*
X102800000Y-62125000D03*
D41*
X38400000Y-54500000D03*
X33000000Y-54500000D03*
D42*
X32900000Y-67187500D03*
X32900000Y-69012500D03*
D11*
X63900000Y-43675000D03*
X63900000Y-45325000D03*
D43*
X91225000Y-35100000D03*
X89575000Y-35100000D03*
D28*
X58475000Y-68000000D03*
X55525000Y-68000000D03*
D44*
X79750000Y-63605000D03*
D45*
X76250000Y-63605000D03*
X79750000Y-96605000D03*
D46*
X82200000Y-91505000D03*
X73800000Y-92705000D03*
X73800000Y-67505000D03*
X82200000Y-68705000D03*
D47*
X42400000Y-87025000D03*
X42400000Y-89975000D03*
D28*
X58475000Y-71500000D03*
X55525000Y-71500000D03*
D47*
X46000000Y-87025000D03*
X46000000Y-89975000D03*
D48*
X43000000Y-69175000D03*
X43000000Y-66225000D03*
D11*
X69000000Y-43675000D03*
X69000000Y-45325000D03*
D49*
X84875000Y-57800000D03*
X86525000Y-57800000D03*
D12*
X62500000Y-53975000D03*
X62500000Y-51025000D03*
D11*
X99000000Y-37075000D03*
X99000000Y-38725000D03*
D43*
X93525000Y-85200000D03*
X91875000Y-85200000D03*
D20*
X97900000Y-76912500D03*
X97900000Y-75087500D03*
D13*
X71800000Y-89625000D03*
X71800000Y-87975000D03*
D50*
X64700000Y-84900000D03*
X64700000Y-74100000D03*
D51*
X93500000Y-92500000D03*
X88500000Y-92500000D03*
X93500000Y-87500000D03*
X88500000Y-87500000D03*
X93900000Y-90000000D03*
X88100000Y-90000000D03*
D52*
X33337500Y-79000000D03*
X31462500Y-79000000D03*
D40*
X62550000Y-88500000D03*
X64450000Y-88500000D03*
D15*
X90675000Y-56900000D03*
X89125000Y-56900000D03*
D22*
X100000000Y-76937500D03*
X100000000Y-75062500D03*
D43*
X91225000Y-37100000D03*
X89575000Y-37100000D03*
D16*
X69050000Y-41437500D03*
X70950000Y-41437500D03*
X70000000Y-39562500D03*
D12*
X52000000Y-80475000D03*
X52000000Y-77525000D03*
D49*
X76275000Y-61100000D03*
X77925000Y-61100000D03*
D53*
X34712500Y-65300000D03*
X32887500Y-65300000D03*
D54*
X35150000Y-67500000D03*
D55*
X35237500Y-69000000D03*
D54*
X35150000Y-70500000D03*
D56*
X84425000Y-51150000D03*
X84425000Y-55650000D03*
X86575000Y-51150000D03*
X86575000Y-55650000D03*
D57*
X35050000Y-84690000D03*
D58*
X35050000Y-92310000D03*
D14*
X62725000Y-91900000D03*
X64275000Y-91900000D03*
D13*
X53000000Y-98825000D03*
X53000000Y-97175000D03*
D42*
X46400000Y-35387500D03*
X46400000Y-37212500D03*
D59*
X47800000Y-67375000D03*
X47800000Y-69250000D03*
D22*
X46400000Y-33237500D03*
X46400000Y-31362500D03*
D13*
X74100000Y-45325000D03*
X74100000Y-43675000D03*
D60*
X48990000Y-88500000D03*
X50010000Y-88500000D03*
D20*
X47800000Y-65612500D03*
X47800000Y-63787500D03*
D13*
X65900000Y-45325000D03*
X65900000Y-43675000D03*
X76100000Y-45325000D03*
X76100000Y-43675000D03*
D31*
X84302944Y-40802944D03*
X84302944Y-44197056D03*
X86000000Y-40100000D03*
X88400000Y-42500000D03*
X87697056Y-44197056D03*
X83600000Y-42500000D03*
D32*
X86000000Y-42500000D03*
D31*
X87697056Y-40802944D03*
X86000000Y-44900000D03*
D14*
X62725000Y-90400000D03*
X64275000Y-90400000D03*
D49*
X101475000Y-54900000D03*
X103125000Y-54900000D03*
D57*
X35090000Y-44150000D03*
D58*
X42710000Y-44150000D03*
D15*
X94875000Y-67700000D03*
X93325000Y-67700000D03*
D13*
X71000000Y-45325000D03*
X71000000Y-43675000D03*
D21*
X96450000Y-53600000D03*
X94550000Y-53600000D03*
D61*
X99800000Y-57162500D03*
X99300000Y-57162500D03*
X98800000Y-57162500D03*
X98300000Y-57162500D03*
X97800000Y-57162500D03*
X97300000Y-57162500D03*
X96800000Y-57162500D03*
X96300000Y-57162500D03*
X95800000Y-57162500D03*
X95300000Y-57162500D03*
X94800000Y-57162500D03*
D62*
X93962500Y-58000000D03*
X93962500Y-58500000D03*
X93962500Y-59000000D03*
X93962500Y-59500000D03*
X93962500Y-60000000D03*
X93962500Y-60500000D03*
X93962500Y-61000000D03*
X93962500Y-61500000D03*
X93962500Y-62000000D03*
X93962500Y-62500000D03*
X93962500Y-63000000D03*
D61*
X94800000Y-63837500D03*
X95300000Y-63837500D03*
X95800000Y-63837500D03*
X96300000Y-63837500D03*
X96800000Y-63837500D03*
X97300000Y-63837500D03*
X97800000Y-63837500D03*
X98300000Y-63837500D03*
X98800000Y-63837500D03*
X99300000Y-63837500D03*
X99800000Y-63837500D03*
D62*
X100637500Y-63000000D03*
X100637500Y-62500000D03*
X100637500Y-62000000D03*
X100637500Y-61500000D03*
X100637500Y-61000000D03*
X100637500Y-60500000D03*
X100637500Y-60000000D03*
X100637500Y-59500000D03*
X100637500Y-59000000D03*
X100637500Y-58500000D03*
X100637500Y-58000000D03*
D63*
X97300000Y-60500000D03*
D64*
X100725000Y-34665000D03*
X100075000Y-34665000D03*
X99425000Y-34665000D03*
X98775000Y-34665000D03*
X98125000Y-34665000D03*
D65*
X102275000Y-34765000D03*
X96525000Y-34785000D03*
D66*
X102155000Y-32715000D03*
D67*
X96425000Y-33465000D03*
D68*
X98465000Y-31515000D03*
D66*
X96675000Y-32715000D03*
D68*
X100385000Y-31515000D03*
D69*
X102155000Y-31785000D03*
X96695000Y-31785000D03*
D70*
X97005000Y-34785000D03*
D67*
X102375000Y-33465000D03*
D70*
X101845000Y-34785000D03*
D40*
X62550000Y-94100000D03*
X64450000Y-94100000D03*
D17*
X66525000Y-69300000D03*
X69475000Y-69300000D03*
D71*
X86800000Y-59600000D03*
X86800000Y-60800000D03*
X86800000Y-62000000D03*
M02*
