%TF.GenerationSoftware,KiCad,Pcbnew,(6.0.9)*%
%TF.CreationDate,2023-01-29T21:25:21-08:00*%
%TF.ProjectId,RadarPanelController,52616461-7250-4616-9e65-6c436f6e7472,REV1*%
%TF.SameCoordinates,Original*%
%TF.FileFunction,Drillmap*%
%TF.FilePolarity,Positive*%
%FSLAX45Y45*%
G04 Gerber Fmt 4.5, Leading zero omitted, Abs format (unit mm)*
G04 Created by KiCad (PCBNEW (6.0.9)) date 2023-01-29 21:25:21*
%MOMM*%
%LPD*%
G01*
G04 APERTURE LIST*
%ADD10C,0.100000*%
%ADD11C,0.200000*%
%ADD12C,0.025000*%
%ADD13C,0.040000*%
%ADD14C,0.050000*%
%ADD15C,0.065000*%
%ADD16C,0.070000*%
%ADD17C,0.095000*%
%ADD18C,0.110000*%
%ADD19C,0.120000*%
%ADD20C,0.160000*%
%ADD21C,0.170000*%
%ADD22C,0.320000*%
G04 APERTURE END LIST*
D10*
X11000000Y-5270000D02*
X11000000Y-10300000D01*
X11000000Y-10300000D02*
X3000000Y-10300000D01*
X3000000Y-3000000D02*
X10500000Y-3000000D01*
X10500000Y-3000000D02*
X10500000Y-5270000D01*
X10500000Y-5270000D02*
X11000000Y-5270000D01*
X3000000Y-10300000D02*
X3000000Y-3000000D01*
D11*
D12*
X3107500Y-7747500D02*
X3132500Y-7772500D01*
X3132500Y-7747500D02*
X3107500Y-7772500D01*
X3227500Y-3327500D02*
X3252500Y-3352500D01*
X3252500Y-3327500D02*
X3227500Y-3352500D01*
X3227500Y-3447500D02*
X3252500Y-3472500D01*
X3252500Y-3447500D02*
X3227500Y-3472500D01*
X3277500Y-6247500D02*
X3302500Y-6272500D01*
X3302500Y-6247500D02*
X3277500Y-6272500D01*
X3277500Y-7047500D02*
X3302500Y-7072500D01*
X3302500Y-7047500D02*
X3277500Y-7072500D01*
X3287500Y-5297500D02*
X3312500Y-5322500D01*
X3312500Y-5297500D02*
X3287500Y-5322500D01*
X3287500Y-5577500D02*
X3312500Y-5602500D01*
X3312500Y-5577500D02*
X3287500Y-5602500D01*
X3317500Y-4397500D02*
X3342500Y-4422500D01*
X3342500Y-4397500D02*
X3317500Y-4422500D01*
X3317500Y-7377500D02*
X3342500Y-7402500D01*
X3342500Y-7377500D02*
X3317500Y-7402500D01*
X3377500Y-3227500D02*
X3402500Y-3252500D01*
X3402500Y-3227500D02*
X3377500Y-3252500D01*
X3377500Y-3537500D02*
X3402500Y-3562500D01*
X3402500Y-3537500D02*
X3377500Y-3562500D01*
X3497500Y-4217500D02*
X3522500Y-4242500D01*
X3522500Y-4217500D02*
X3497500Y-4242500D01*
X3497500Y-4587500D02*
X3522500Y-4612500D01*
X3522500Y-4587500D02*
X3497500Y-4612500D01*
X3567500Y-6517500D02*
X3592500Y-6542500D01*
X3592500Y-6517500D02*
X3567500Y-6542500D01*
X3677500Y-4397500D02*
X3702500Y-4422500D01*
X3702500Y-4397500D02*
X3677500Y-4422500D01*
X3797500Y-7427500D02*
X3822500Y-7452500D01*
X3822500Y-7427500D02*
X3797500Y-7452500D01*
X3827500Y-5297500D02*
X3852500Y-5322500D01*
X3852500Y-5297500D02*
X3827500Y-5322500D01*
X3827500Y-5577500D02*
X3852500Y-5602500D01*
X3852500Y-5577500D02*
X3827500Y-5602500D01*
X4047500Y-6597500D02*
X4072500Y-6622500D01*
X4072500Y-6597500D02*
X4047500Y-6622500D01*
X4067500Y-5437500D02*
X4092500Y-5462500D01*
X4092500Y-5437500D02*
X4067500Y-5462500D01*
X4077500Y-4397500D02*
X4102500Y-4422500D01*
X4102500Y-4397500D02*
X4077500Y-4422500D01*
X4227500Y-9097500D02*
X4252500Y-9122500D01*
X4252500Y-9097500D02*
X4227500Y-9122500D01*
X4257500Y-4217500D02*
X4282500Y-4242500D01*
X4282500Y-4217500D02*
X4257500Y-4242500D01*
X4257500Y-4587500D02*
X4282500Y-4612500D01*
X4282500Y-4587500D02*
X4257500Y-4612500D01*
X4287500Y-6477500D02*
X4312500Y-6502500D01*
X4312500Y-6477500D02*
X4287500Y-6502500D01*
X4407500Y-9097500D02*
X4432500Y-9122500D01*
X4432500Y-9097500D02*
X4407500Y-9122500D01*
X4437500Y-4397500D02*
X4462500Y-4422500D01*
X4462500Y-4397500D02*
X4437500Y-4422500D01*
X4457500Y-7287500D02*
X4482500Y-7312500D01*
X4482500Y-7287500D02*
X4457500Y-7312500D01*
X4537500Y-7287500D02*
X4562500Y-7312500D01*
X4562500Y-7287500D02*
X4537500Y-7312500D01*
X4587500Y-9097500D02*
X4612500Y-9122500D01*
X4612500Y-9097500D02*
X4587500Y-9122500D01*
X4617500Y-7287500D02*
X4642500Y-7312500D01*
X4642500Y-7287500D02*
X4617500Y-7312500D01*
X4627500Y-3817500D02*
X4652500Y-3842500D01*
X4652500Y-3817500D02*
X4627500Y-3842500D01*
X4767500Y-6247500D02*
X4792500Y-6272500D01*
X4792500Y-6247500D02*
X4767500Y-6272500D01*
X4807500Y-8667500D02*
X4832500Y-8692500D01*
X4832500Y-8667500D02*
X4807500Y-8692500D01*
X4837500Y-4957500D02*
X4862500Y-4982500D01*
X4862500Y-4957500D02*
X4837500Y-4982500D01*
X4837500Y-5507500D02*
X4862500Y-5532500D01*
X4862500Y-5507500D02*
X4837500Y-5532500D01*
X4887500Y-9587500D02*
X4912500Y-9612500D01*
X4912500Y-9587500D02*
X4887500Y-9612500D01*
X4887500Y-9787500D02*
X4912500Y-9812500D01*
X4912500Y-9787500D02*
X4887500Y-9812500D01*
X4987500Y-9147500D02*
X5012500Y-9172500D01*
X5012500Y-9147500D02*
X4987500Y-9172500D01*
X5087500Y-6907500D02*
X5112500Y-6932500D01*
X5112500Y-6907500D02*
X5087500Y-6932500D01*
X5087500Y-9007500D02*
X5112500Y-9032500D01*
X5112500Y-9007500D02*
X5087500Y-9032500D01*
X5087500Y-9587500D02*
X5112500Y-9612500D01*
X5112500Y-9587500D02*
X5087500Y-9612500D01*
X5087500Y-9787500D02*
X5112500Y-9812500D01*
X5112500Y-9787500D02*
X5087500Y-9812500D01*
X5107500Y-9287500D02*
X5132500Y-9312500D01*
X5132500Y-9287500D02*
X5107500Y-9312500D01*
X5127500Y-9147500D02*
X5152500Y-9172500D01*
X5152500Y-9147500D02*
X5127500Y-9172500D01*
X5187500Y-4957500D02*
X5212500Y-4982500D01*
X5212500Y-4957500D02*
X5187500Y-4982500D01*
X5187500Y-5507500D02*
X5212500Y-5532500D01*
X5212500Y-5507500D02*
X5187500Y-5532500D01*
X5187500Y-7607500D02*
X5212500Y-7632500D01*
X5212500Y-7607500D02*
X5187500Y-7632500D01*
X5219216Y-9319216D02*
X5244216Y-9344216D01*
X5244216Y-9319216D02*
X5219216Y-9344216D01*
X5275784Y-9375784D02*
X5300784Y-9400784D01*
X5300784Y-9375784D02*
X5275784Y-9400784D01*
X5287500Y-9967500D02*
X5312500Y-9992500D01*
X5312500Y-9967500D02*
X5287500Y-9992500D01*
X5437500Y-6087500D02*
X5462500Y-6112500D01*
X5462500Y-6087500D02*
X5437500Y-6112500D01*
X5437500Y-6437500D02*
X5462500Y-6462500D01*
X5462500Y-6437500D02*
X5437500Y-6462500D01*
X5437500Y-6787500D02*
X5462500Y-6812500D01*
X5462500Y-6787500D02*
X5437500Y-6812500D01*
X5437500Y-7137500D02*
X5462500Y-7162500D01*
X5462500Y-7137500D02*
X5437500Y-7162500D01*
X5487500Y-9967500D02*
X5512500Y-9992500D01*
X5512500Y-9967500D02*
X5487500Y-9992500D01*
X5537500Y-4957500D02*
X5562500Y-4982500D01*
X5562500Y-4957500D02*
X5537500Y-4982500D01*
X5537500Y-5507500D02*
X5562500Y-5532500D01*
X5562500Y-5507500D02*
X5537500Y-5532500D01*
X5537500Y-8237500D02*
X5562500Y-8262500D01*
X5562500Y-8237500D02*
X5537500Y-8262500D01*
X5567500Y-9347500D02*
X5592500Y-9372500D01*
X5592500Y-9347500D02*
X5567500Y-9372500D01*
X5687500Y-9967500D02*
X5712500Y-9992500D01*
X5712500Y-9967500D02*
X5687500Y-9992500D01*
X5767500Y-9187500D02*
X5792500Y-9212500D01*
X5792500Y-9187500D02*
X5767500Y-9212500D01*
X5887500Y-4957500D02*
X5912500Y-4982500D01*
X5912500Y-4957500D02*
X5887500Y-4982500D01*
X5887500Y-5507500D02*
X5912500Y-5532500D01*
X5912500Y-5507500D02*
X5887500Y-5532500D01*
X5957500Y-5737500D02*
X5982500Y-5762500D01*
X5982500Y-5737500D02*
X5957500Y-5762500D01*
X5957500Y-6087500D02*
X5982500Y-6112500D01*
X5982500Y-6087500D02*
X5957500Y-6112500D01*
X5957500Y-6437500D02*
X5982500Y-6462500D01*
X5982500Y-6437500D02*
X5957500Y-6462500D01*
X5957500Y-6787500D02*
X5982500Y-6812500D01*
X5982500Y-6787500D02*
X5957500Y-6812500D01*
X5957500Y-7137500D02*
X5982500Y-7162500D01*
X5982500Y-7137500D02*
X5957500Y-7162500D01*
X5980000Y-8975000D02*
X6005000Y-9000000D01*
X6005000Y-8975000D02*
X5980000Y-9000000D01*
X6107500Y-8957500D02*
X6132500Y-8982500D01*
X6132500Y-8957500D02*
X6107500Y-8982500D01*
X6237500Y-4957500D02*
X6262500Y-4982500D01*
X6262500Y-4957500D02*
X6237500Y-4982500D01*
X6237500Y-5507500D02*
X6262500Y-5532500D01*
X6262500Y-5507500D02*
X6237500Y-5532500D01*
X6260000Y-9275000D02*
X6285000Y-9300000D01*
X6285000Y-9275000D02*
X6260000Y-9300000D01*
X6267500Y-5737500D02*
X6292500Y-5762500D01*
X6292500Y-5737500D02*
X6267500Y-5762500D01*
X6267500Y-6087500D02*
X6292500Y-6112500D01*
X6292500Y-6087500D02*
X6267500Y-6112500D01*
X6267500Y-6437500D02*
X6292500Y-6462500D01*
X6292500Y-6437500D02*
X6267500Y-6462500D01*
X6267500Y-6787500D02*
X6292500Y-6812500D01*
X6292500Y-6787500D02*
X6267500Y-6812500D01*
X6277500Y-7137500D02*
X6302500Y-7162500D01*
X6302500Y-7137500D02*
X6277500Y-7162500D01*
X6337500Y-7137500D02*
X6362500Y-7162500D01*
X6362500Y-7137500D02*
X6337500Y-7162500D01*
X6387500Y-4257500D02*
X6412500Y-4282500D01*
X6412500Y-4257500D02*
X6387500Y-4282500D01*
X6397500Y-7137500D02*
X6422500Y-7162500D01*
X6422500Y-7137500D02*
X6397500Y-7162500D01*
X6457500Y-7137500D02*
X6482500Y-7162500D01*
X6482500Y-7137500D02*
X6457500Y-7162500D01*
X6517500Y-7137500D02*
X6542500Y-7162500D01*
X6542500Y-7137500D02*
X6517500Y-7162500D01*
X6547500Y-8837500D02*
X6572500Y-8862500D01*
X6572500Y-8837500D02*
X6547500Y-8862500D01*
X6547500Y-9027500D02*
X6572500Y-9052500D01*
X6572500Y-9027500D02*
X6547500Y-9052500D01*
X6547500Y-9397500D02*
X6572500Y-9422500D01*
X6572500Y-9397500D02*
X6547500Y-9422500D01*
X6577500Y-7137500D02*
X6602500Y-7162500D01*
X6602500Y-7137500D02*
X6577500Y-7162500D01*
X6587500Y-4627500D02*
X6612500Y-4652500D01*
X6612500Y-4627500D02*
X6587500Y-4652500D01*
X6587500Y-4957500D02*
X6612500Y-4982500D01*
X6612500Y-4957500D02*
X6587500Y-4982500D01*
X6637500Y-7137500D02*
X6662500Y-7162500D01*
X6662500Y-7137500D02*
X6637500Y-7162500D01*
X6637500Y-8987500D02*
X6662500Y-9012500D01*
X6662500Y-8987500D02*
X6637500Y-9012500D01*
X6877500Y-9057500D02*
X6902500Y-9082500D01*
X6902500Y-9057500D02*
X6877500Y-9082500D01*
X6887500Y-4257500D02*
X6912500Y-4282500D01*
X6912500Y-4257500D02*
X6887500Y-4282500D01*
X6897500Y-3787500D02*
X6922500Y-3812500D01*
X6922500Y-3787500D02*
X6897500Y-3812500D01*
X6937500Y-4957500D02*
X6962500Y-4982500D01*
X6962500Y-4957500D02*
X6937500Y-4982500D01*
X7037500Y-5517500D02*
X7062500Y-5542500D01*
X7062500Y-5517500D02*
X7037500Y-5542500D01*
X7037500Y-5867500D02*
X7062500Y-5892500D01*
X7062500Y-5867500D02*
X7037500Y-5892500D01*
X7037500Y-6217500D02*
X7062500Y-6242500D01*
X7062500Y-6217500D02*
X7037500Y-6242500D01*
X7037500Y-6567500D02*
X7062500Y-6592500D01*
X7062500Y-6567500D02*
X7037500Y-6592500D01*
X7037500Y-6917500D02*
X7062500Y-6942500D01*
X7062500Y-6917500D02*
X7037500Y-6942500D01*
X7087500Y-4627500D02*
X7112500Y-4652500D01*
X7112500Y-4627500D02*
X7087500Y-4652500D01*
X7167500Y-9057500D02*
X7192500Y-9082500D01*
X7192500Y-9057500D02*
X7167500Y-9082500D01*
X7187500Y-9587500D02*
X7212500Y-9612500D01*
X7212500Y-9587500D02*
X7187500Y-9612500D01*
X7407500Y-3787500D02*
X7432500Y-3812500D01*
X7432500Y-3787500D02*
X7407500Y-3812500D01*
X7487500Y-5897500D02*
X7512500Y-5922500D01*
X7512500Y-5897500D02*
X7487500Y-5922500D01*
X7487500Y-8287500D02*
X7512500Y-8312500D01*
X7512500Y-8287500D02*
X7487500Y-8312500D01*
X7587500Y-4257500D02*
X7612500Y-4282500D01*
X7612500Y-4257500D02*
X7587500Y-4282500D01*
X7725000Y-4520000D02*
X7750000Y-4545000D01*
X7750000Y-4520000D02*
X7725000Y-4545000D01*
X7987500Y-3787500D02*
X8012500Y-3812500D01*
X8012500Y-3787500D02*
X7987500Y-3812500D01*
X8037500Y-5767500D02*
X8062500Y-5792500D01*
X8062500Y-5767500D02*
X8037500Y-5792500D01*
X8047500Y-5967500D02*
X8072500Y-5992500D01*
X8072500Y-5967500D02*
X8047500Y-5992500D01*
X8087500Y-7687500D02*
X8112500Y-7712500D01*
X8112500Y-7687500D02*
X8087500Y-7712500D01*
X8087500Y-8687500D02*
X8112500Y-8712500D01*
X8112500Y-8687500D02*
X8087500Y-8712500D01*
X8337500Y-5767500D02*
X8362500Y-5792500D01*
X8362500Y-5767500D02*
X8337500Y-5792500D01*
X8387500Y-8287500D02*
X8412500Y-8312500D01*
X8412500Y-8287500D02*
X8387500Y-8312500D01*
X8387500Y-9687500D02*
X8412500Y-9712500D01*
X8412500Y-9687500D02*
X8387500Y-9712500D01*
X8507500Y-6067500D02*
X8532500Y-6092500D01*
X8532500Y-6067500D02*
X8507500Y-6092500D01*
X8577500Y-9257500D02*
X8602500Y-9282500D01*
X8602500Y-9257500D02*
X8577500Y-9282500D01*
X8657500Y-6457500D02*
X8682500Y-6482500D01*
X8682500Y-6457500D02*
X8657500Y-6482500D01*
X8767500Y-5767500D02*
X8792500Y-5792500D01*
X8792500Y-5767500D02*
X8767500Y-5792500D01*
X8787500Y-7887500D02*
X8812500Y-7912500D01*
X8812500Y-7887500D02*
X8787500Y-7912500D01*
X8797500Y-5517500D02*
X8822500Y-5542500D01*
X8822500Y-5517500D02*
X8797500Y-5542500D01*
X8797500Y-5677500D02*
X8822500Y-5702500D01*
X8822500Y-5677500D02*
X8797500Y-5702500D01*
X8807500Y-3497500D02*
X8832500Y-3522500D01*
X8832500Y-3497500D02*
X8807500Y-3522500D01*
X8807500Y-3697500D02*
X8832500Y-3722500D01*
X8832500Y-3697500D02*
X8807500Y-3722500D01*
X8827500Y-6067500D02*
X8852500Y-6092500D01*
X8852500Y-6067500D02*
X8827500Y-6092500D01*
X8867500Y-6277500D02*
X8892500Y-6302500D01*
X8892500Y-6277500D02*
X8867500Y-6302500D01*
X8987500Y-7687500D02*
X9012500Y-7712500D01*
X9012500Y-7687500D02*
X8987500Y-7712500D01*
X9057500Y-5857500D02*
X9082500Y-5882500D01*
X9082500Y-5857500D02*
X9057500Y-5882500D01*
X9107500Y-5917500D02*
X9132500Y-5942500D01*
X9132500Y-5917500D02*
X9107500Y-5942500D01*
X9127500Y-6307500D02*
X9152500Y-6332500D01*
X9152500Y-6307500D02*
X9127500Y-6332500D01*
X9127500Y-6467500D02*
X9152500Y-6492500D01*
X9152500Y-6467500D02*
X9127500Y-6492500D01*
X9157500Y-5787500D02*
X9182500Y-5812500D01*
X9182500Y-5787500D02*
X9157500Y-5812500D01*
X9237500Y-6207500D02*
X9262500Y-6232500D01*
X9262500Y-6207500D02*
X9237500Y-6232500D01*
X9237500Y-6297500D02*
X9262500Y-6322500D01*
X9262500Y-6297500D02*
X9237500Y-6322500D01*
X9327500Y-6987500D02*
X9352500Y-7012500D01*
X9352500Y-6987500D02*
X9327500Y-7012500D01*
X9327500Y-7087500D02*
X9352500Y-7112500D01*
X9352500Y-7087500D02*
X9327500Y-7112500D01*
X9367500Y-6487500D02*
X9392500Y-6512500D01*
X9392500Y-6487500D02*
X9367500Y-6512500D01*
X9367500Y-7327500D02*
X9392500Y-7352500D01*
X9392500Y-7327500D02*
X9367500Y-7352500D01*
X9377500Y-5697500D02*
X9402500Y-5722500D01*
X9402500Y-5697500D02*
X9377500Y-5722500D01*
X9387500Y-7187500D02*
X9412500Y-7212500D01*
X9412500Y-7187500D02*
X9387500Y-7212500D01*
X9447500Y-5467500D02*
X9472500Y-5492500D01*
X9472500Y-5467500D02*
X9447500Y-5492500D01*
X9457500Y-7267500D02*
X9482500Y-7292500D01*
X9482500Y-7267500D02*
X9457500Y-7292500D01*
X9487500Y-7987500D02*
X9512500Y-8012500D01*
X9512500Y-7987500D02*
X9487500Y-8012500D01*
X9487500Y-8317500D02*
X9512500Y-8342500D01*
X9512500Y-8317500D02*
X9487500Y-8342500D01*
X9507500Y-6497500D02*
X9532500Y-6522500D01*
X9532500Y-6497500D02*
X9507500Y-6522500D01*
X9607500Y-5567500D02*
X9632500Y-5592500D01*
X9632500Y-5567500D02*
X9607500Y-5592500D01*
X9607500Y-7037500D02*
X9632500Y-7062500D01*
X9632500Y-7037500D02*
X9607500Y-7062500D01*
X9612500Y-5492500D02*
X9637500Y-5517500D01*
X9637500Y-5492500D02*
X9612500Y-5517500D01*
X9707500Y-6667500D02*
X9732500Y-6692500D01*
X9732500Y-6667500D02*
X9707500Y-6692500D01*
X9736725Y-6538275D02*
X9761725Y-6563275D01*
X9761725Y-6538275D02*
X9736725Y-6563275D01*
X9767500Y-3607500D02*
X9792500Y-3632500D01*
X9792500Y-3607500D02*
X9767500Y-3632500D01*
X9767500Y-7037500D02*
X9792500Y-7062500D01*
X9792500Y-7037500D02*
X9767500Y-7062500D01*
X9777500Y-7387500D02*
X9802500Y-7412500D01*
X9802500Y-7387500D02*
X9777500Y-7412500D01*
X9782500Y-6702500D02*
X9807500Y-6727500D01*
X9807500Y-6702500D02*
X9782500Y-6727500D01*
X9787500Y-6817500D02*
X9812500Y-6842500D01*
X9812500Y-6817500D02*
X9787500Y-6842500D01*
X9907500Y-7267500D02*
X9932500Y-7292500D01*
X9932500Y-7267500D02*
X9907500Y-7292500D01*
X9952500Y-5602500D02*
X9977500Y-5627500D01*
X9977500Y-5602500D02*
X9952500Y-5627500D01*
X9957500Y-7037500D02*
X9982500Y-7062500D01*
X9982500Y-7037500D02*
X9957500Y-7062500D01*
X10016170Y-6516170D02*
X10041170Y-6541170D01*
X10041170Y-6516170D02*
X10016170Y-6541170D01*
X10067500Y-6747500D02*
X10092500Y-6772500D01*
X10092500Y-6747500D02*
X10067500Y-6772500D01*
X10077500Y-5357500D02*
X10102500Y-5382500D01*
X10102500Y-5357500D02*
X10077500Y-5382500D01*
X10092500Y-5702500D02*
X10117500Y-5727500D01*
X10117500Y-5702500D02*
X10092500Y-5727500D01*
X10157500Y-6317500D02*
X10182500Y-6342500D01*
X10182500Y-6317500D02*
X10157500Y-6342500D01*
X10207500Y-6077500D02*
X10232500Y-6102500D01*
X10232500Y-6077500D02*
X10207500Y-6102500D01*
X10217500Y-5827500D02*
X10242500Y-5852500D01*
X10242500Y-5827500D02*
X10217500Y-5852500D01*
X10237500Y-3687500D02*
X10262500Y-3712500D01*
X10262500Y-3687500D02*
X10237500Y-3712500D01*
X10267500Y-5777500D02*
X10292500Y-5802500D01*
X10292500Y-5777500D02*
X10267500Y-5802500D01*
X10347500Y-6087500D02*
X10372500Y-6112500D01*
X10372500Y-6087500D02*
X10347500Y-6112500D01*
X10417500Y-6087500D02*
X10442500Y-6112500D01*
X10442500Y-6087500D02*
X10417500Y-6112500D01*
X10437500Y-5527500D02*
X10462500Y-5552500D01*
X10462500Y-5527500D02*
X10437500Y-5552500D01*
X10597500Y-7387500D02*
X10622500Y-7412500D01*
X10622500Y-7387500D02*
X10597500Y-7412500D01*
D13*
X5532877Y-7962877D02*
G75*
G03*
X5532877Y-7962877I-20000J0D01*
G01*
X5607123Y-8037123D02*
G75*
G03*
X5607123Y-8037123I-20000J0D01*
G01*
D14*
X5160000Y-4225000D02*
X5160000Y-4275000D01*
X5135000Y-4250000D02*
X5185000Y-4250000D01*
X5230294Y-4055294D02*
X5230294Y-4105294D01*
X5205294Y-4080294D02*
X5255294Y-4080294D01*
X5230294Y-4394706D02*
X5230294Y-4444706D01*
X5205294Y-4419706D02*
X5255294Y-4419706D01*
X5400000Y-3985000D02*
X5400000Y-4035000D01*
X5375000Y-4010000D02*
X5425000Y-4010000D01*
X5400000Y-4465000D02*
X5400000Y-4515000D01*
X5375000Y-4490000D02*
X5425000Y-4490000D01*
X5569706Y-4055294D02*
X5569706Y-4105294D01*
X5544706Y-4080294D02*
X5594706Y-4080294D01*
X5569706Y-4394706D02*
X5569706Y-4444706D01*
X5544706Y-4419706D02*
X5594706Y-4419706D01*
X5640000Y-4225000D02*
X5640000Y-4275000D01*
X5615000Y-4250000D02*
X5665000Y-4250000D01*
X8360000Y-4225000D02*
X8360000Y-4275000D01*
X8335000Y-4250000D02*
X8385000Y-4250000D01*
X8430294Y-4055294D02*
X8430294Y-4105294D01*
X8405294Y-4080294D02*
X8455294Y-4080294D01*
X8430294Y-4394706D02*
X8430294Y-4444706D01*
X8405294Y-4419706D02*
X8455294Y-4419706D01*
X8600000Y-3985000D02*
X8600000Y-4035000D01*
X8575000Y-4010000D02*
X8625000Y-4010000D01*
X8600000Y-4465000D02*
X8600000Y-4515000D01*
X8575000Y-4490000D02*
X8625000Y-4490000D01*
X8769706Y-4055294D02*
X8769706Y-4105294D01*
X8744706Y-4080294D02*
X8794706Y-4080294D01*
X8769706Y-4394706D02*
X8769706Y-4444706D01*
X8744706Y-4419706D02*
X8794706Y-4419706D01*
X8840000Y-4225000D02*
X8840000Y-4275000D01*
X8815000Y-4250000D02*
X8865000Y-4250000D01*
D15*
X9723481Y-3501481D02*
X9723481Y-3455519D01*
X9677519Y-3455519D01*
X9677519Y-3501481D01*
X9723481Y-3501481D01*
D11*
X9668000Y-3458500D02*
X9668000Y-3498500D01*
X9733000Y-3458500D02*
X9733000Y-3498500D01*
X9668000Y-3498500D02*
G75*
G03*
X9733000Y-3498500I32500J0D01*
G01*
X9733000Y-3458500D02*
G75*
G03*
X9668000Y-3458500I-32500J0D01*
G01*
D15*
X10207481Y-3501481D02*
X10207481Y-3455519D01*
X10161519Y-3455519D01*
X10161519Y-3501481D01*
X10207481Y-3501481D01*
D11*
X10152000Y-3458500D02*
X10152000Y-3498500D01*
X10217000Y-3458500D02*
X10217000Y-3498500D01*
X10152000Y-3498500D02*
G75*
G03*
X10217000Y-3498500I32500J0D01*
G01*
X10217000Y-3458500D02*
G75*
G03*
X10152000Y-3458500I-32500J0D01*
G01*
D16*
X9669500Y-3213500D02*
X9704500Y-3178500D01*
X9669500Y-3143500D01*
X9634500Y-3178500D01*
X9669500Y-3213500D01*
D11*
X9634500Y-3153500D02*
X9634500Y-3203500D01*
X9704500Y-3153500D02*
X9704500Y-3203500D01*
X9634500Y-3203500D02*
G75*
G03*
X9704500Y-3203500I35000J0D01*
G01*
X9704500Y-3153500D02*
G75*
G03*
X9634500Y-3153500I-35000J0D01*
G01*
D16*
X10215500Y-3213500D02*
X10250500Y-3178500D01*
X10215500Y-3143500D01*
X10180500Y-3178500D01*
X10215500Y-3213500D01*
D11*
X10180500Y-3153500D02*
X10180500Y-3203500D01*
X10250500Y-3153500D02*
X10250500Y-3203500D01*
X10180500Y-3203500D02*
G75*
G03*
X10250500Y-3203500I35000J0D01*
G01*
X10250500Y-3153500D02*
G75*
G03*
X10180500Y-3153500I-35000J0D01*
G01*
D17*
X3337500Y-3340000D02*
X3432500Y-3435000D01*
X3432500Y-3340000D02*
X3337500Y-3435000D01*
X3432500Y-3387500D02*
G75*
G03*
X3432500Y-3387500I-47500J0D01*
G01*
X3587500Y-3340000D02*
X3682500Y-3435000D01*
X3682500Y-3340000D02*
X3587500Y-3435000D01*
X3682500Y-3387500D02*
G75*
G03*
X3682500Y-3387500I-47500J0D01*
G01*
X3837500Y-3340000D02*
X3932500Y-3435000D01*
X3932500Y-3340000D02*
X3837500Y-3435000D01*
X3932500Y-3387500D02*
G75*
G03*
X3932500Y-3387500I-47500J0D01*
G01*
X4087500Y-3340000D02*
X4182500Y-3435000D01*
X4182500Y-3340000D02*
X4087500Y-3435000D01*
X4182500Y-3387500D02*
G75*
G03*
X4182500Y-3387500I-47500J0D01*
G01*
D10*
X6315000Y-3173500D02*
X6415000Y-3273500D01*
X6415000Y-3173500D02*
X6315000Y-3273500D01*
X6365000Y-3173500D02*
X6365000Y-3273500D01*
X6315000Y-3223500D02*
X6415000Y-3223500D01*
X6315000Y-3427500D02*
X6415000Y-3527500D01*
X6415000Y-3427500D02*
X6315000Y-3527500D01*
X6365000Y-3427500D02*
X6365000Y-3527500D01*
X6315000Y-3477500D02*
X6415000Y-3477500D01*
X6569000Y-3173500D02*
X6669000Y-3273500D01*
X6669000Y-3173500D02*
X6569000Y-3273500D01*
X6619000Y-3173500D02*
X6619000Y-3273500D01*
X6569000Y-3223500D02*
X6669000Y-3223500D01*
X6569000Y-3427500D02*
X6669000Y-3527500D01*
X6669000Y-3427500D02*
X6569000Y-3527500D01*
X6619000Y-3427500D02*
X6619000Y-3527500D01*
X6569000Y-3477500D02*
X6669000Y-3477500D01*
X6823000Y-3173500D02*
X6923000Y-3273500D01*
X6923000Y-3173500D02*
X6823000Y-3273500D01*
X6873000Y-3173500D02*
X6873000Y-3273500D01*
X6823000Y-3223500D02*
X6923000Y-3223500D01*
X6823000Y-3427500D02*
X6923000Y-3527500D01*
X6923000Y-3427500D02*
X6823000Y-3527500D01*
X6873000Y-3427500D02*
X6873000Y-3527500D01*
X6823000Y-3477500D02*
X6923000Y-3477500D01*
X7077000Y-3173500D02*
X7177000Y-3273500D01*
X7177000Y-3173500D02*
X7077000Y-3273500D01*
X7127000Y-3173500D02*
X7127000Y-3273500D01*
X7077000Y-3223500D02*
X7177000Y-3223500D01*
X7077000Y-3427500D02*
X7177000Y-3527500D01*
X7177000Y-3427500D02*
X7077000Y-3527500D01*
X7127000Y-3427500D02*
X7127000Y-3527500D01*
X7077000Y-3477500D02*
X7177000Y-3477500D01*
X7331000Y-3173500D02*
X7431000Y-3273500D01*
X7431000Y-3173500D02*
X7331000Y-3273500D01*
X7381000Y-3173500D02*
X7381000Y-3273500D01*
X7331000Y-3223500D02*
X7431000Y-3223500D01*
X7331000Y-3427500D02*
X7431000Y-3527500D01*
X7431000Y-3427500D02*
X7331000Y-3527500D01*
X7381000Y-3427500D02*
X7381000Y-3527500D01*
X7331000Y-3477500D02*
X7431000Y-3477500D01*
X7585000Y-3173500D02*
X7685000Y-3273500D01*
X7685000Y-3173500D02*
X7585000Y-3273500D01*
X7635000Y-3173500D02*
X7635000Y-3273500D01*
X7585000Y-3223500D02*
X7685000Y-3223500D01*
X7585000Y-3427500D02*
X7685000Y-3527500D01*
X7685000Y-3427500D02*
X7585000Y-3527500D01*
X7635000Y-3427500D02*
X7635000Y-3527500D01*
X7585000Y-3477500D02*
X7685000Y-3477500D01*
D18*
X8755000Y-8945000D02*
X8865000Y-9055000D01*
X8865000Y-8945000D02*
X8755000Y-9055000D01*
X8848891Y-9038891D02*
X8848891Y-8961109D01*
X8771109Y-8961109D01*
X8771109Y-9038891D01*
X8848891Y-9038891D01*
X8795000Y-8695000D02*
X8905000Y-8805000D01*
X8905000Y-8695000D02*
X8795000Y-8805000D01*
X8888891Y-8788891D02*
X8888891Y-8711109D01*
X8811109Y-8711109D01*
X8811109Y-8788891D01*
X8888891Y-8788891D01*
X8795000Y-9195000D02*
X8905000Y-9305000D01*
X8905000Y-9195000D02*
X8795000Y-9305000D01*
X8888891Y-9288891D02*
X8888891Y-9211109D01*
X8811109Y-9211109D01*
X8811109Y-9288891D01*
X8888891Y-9288891D01*
X9295000Y-8695000D02*
X9405000Y-8805000D01*
X9405000Y-8695000D02*
X9295000Y-8805000D01*
X9388891Y-8788891D02*
X9388891Y-8711109D01*
X9311109Y-8711109D01*
X9311109Y-8788891D01*
X9388891Y-8788891D01*
X9295000Y-9195000D02*
X9405000Y-9305000D01*
X9405000Y-9195000D02*
X9295000Y-9305000D01*
X9388891Y-9288891D02*
X9388891Y-9211109D01*
X9311109Y-9211109D01*
X9311109Y-9288891D01*
X9388891Y-9288891D01*
X9335000Y-8945000D02*
X9445000Y-9055000D01*
X9445000Y-8945000D02*
X9335000Y-9055000D01*
X9428891Y-9038891D02*
X9428891Y-8961109D01*
X9351109Y-8961109D01*
X9351109Y-9038891D01*
X9428891Y-9038891D01*
D19*
X7565000Y-6300500D02*
X7685000Y-6420500D01*
X7685000Y-6300500D02*
X7565000Y-6420500D01*
X7625000Y-6420500D02*
X7685000Y-6360500D01*
X7625000Y-6300500D01*
X7565000Y-6360500D01*
X7625000Y-6420500D01*
X7915000Y-6300500D02*
X8035000Y-6420500D01*
X8035000Y-6300500D02*
X7915000Y-6420500D01*
X7975000Y-6420500D02*
X8035000Y-6360500D01*
X7975000Y-6300500D01*
X7915000Y-6360500D01*
X7975000Y-6420500D01*
X7915000Y-9600500D02*
X8035000Y-9720500D01*
X8035000Y-9600500D02*
X7915000Y-9720500D01*
X7975000Y-9720500D02*
X8035000Y-9660500D01*
X7975000Y-9600500D01*
X7915000Y-9660500D01*
X7975000Y-9720500D01*
D20*
X3505000Y-8389000D02*
X3505000Y-8549000D01*
X3425000Y-8469000D02*
X3585000Y-8469000D01*
X3585000Y-8469000D02*
G75*
G03*
X3585000Y-8469000I-80000J0D01*
G01*
X3505000Y-9151000D02*
X3505000Y-9311000D01*
X3425000Y-9231000D02*
X3585000Y-9231000D01*
X3585000Y-9231000D02*
G75*
G03*
X3585000Y-9231000I-80000J0D01*
G01*
X3509000Y-4335000D02*
X3509000Y-4495000D01*
X3429000Y-4415000D02*
X3589000Y-4415000D01*
X3589000Y-4415000D02*
G75*
G03*
X3589000Y-4415000I-80000J0D01*
G01*
X4271000Y-4335000D02*
X4271000Y-4495000D01*
X4191000Y-4415000D02*
X4351000Y-4415000D01*
X4351000Y-4415000D02*
G75*
G03*
X4351000Y-4415000I-80000J0D01*
G01*
D21*
X7440105Y-6810605D02*
X7440105Y-6690395D01*
X7319895Y-6690395D01*
X7319895Y-6810605D01*
X7440105Y-6810605D01*
X7465000Y-6750500D02*
G75*
G03*
X7465000Y-6750500I-85000J0D01*
G01*
X7440105Y-9330605D02*
X7440105Y-9210395D01*
X7319895Y-9210395D01*
X7319895Y-9330605D01*
X7440105Y-9330605D01*
X7465000Y-9270500D02*
G75*
G03*
X7465000Y-9270500I-85000J0D01*
G01*
X8280105Y-6930605D02*
X8280105Y-6810395D01*
X8159895Y-6810395D01*
X8159895Y-6930605D01*
X8280105Y-6930605D01*
X8305000Y-6870500D02*
G75*
G03*
X8305000Y-6870500I-85000J0D01*
G01*
X8280105Y-9210605D02*
X8280105Y-9090395D01*
X8159895Y-9090395D01*
X8159895Y-9210605D01*
X8280105Y-9210605D01*
X8305000Y-9150500D02*
G75*
G03*
X8305000Y-9150500I-85000J0D01*
G01*
D22*
X5400000Y-4410000D02*
X5560000Y-4250000D01*
X5400000Y-4090000D01*
X5240000Y-4250000D01*
X5400000Y-4410000D01*
X5560000Y-4250000D02*
G75*
G03*
X5560000Y-4250000I-160000J0D01*
G01*
X8600000Y-4410000D02*
X8760000Y-4250000D01*
X8600000Y-4090000D01*
X8440000Y-4250000D01*
X8600000Y-4410000D01*
X8760000Y-4250000D02*
G75*
G03*
X8760000Y-4250000I-160000J0D01*
G01*
D11*
X3252619Y-10615476D02*
X3252619Y-10415476D01*
X3300238Y-10415476D01*
X3328809Y-10425000D01*
X3347857Y-10444048D01*
X3357381Y-10463095D01*
X3366905Y-10501190D01*
X3366905Y-10529762D01*
X3357381Y-10567857D01*
X3347857Y-10586905D01*
X3328809Y-10605952D01*
X3300238Y-10615476D01*
X3252619Y-10615476D01*
X3452619Y-10615476D02*
X3452619Y-10482143D01*
X3452619Y-10520238D02*
X3462143Y-10501190D01*
X3471667Y-10491667D01*
X3490714Y-10482143D01*
X3509762Y-10482143D01*
X3576428Y-10615476D02*
X3576428Y-10482143D01*
X3576428Y-10415476D02*
X3566905Y-10425000D01*
X3576428Y-10434524D01*
X3585952Y-10425000D01*
X3576428Y-10415476D01*
X3576428Y-10434524D01*
X3700238Y-10615476D02*
X3681190Y-10605952D01*
X3671667Y-10586905D01*
X3671667Y-10415476D01*
X3805000Y-10615476D02*
X3785952Y-10605952D01*
X3776428Y-10586905D01*
X3776428Y-10415476D01*
X4033571Y-10615476D02*
X4033571Y-10415476D01*
X4100238Y-10558333D01*
X4166905Y-10415476D01*
X4166905Y-10615476D01*
X4347857Y-10615476D02*
X4347857Y-10510714D01*
X4338333Y-10491667D01*
X4319286Y-10482143D01*
X4281190Y-10482143D01*
X4262143Y-10491667D01*
X4347857Y-10605952D02*
X4328810Y-10615476D01*
X4281190Y-10615476D01*
X4262143Y-10605952D01*
X4252619Y-10586905D01*
X4252619Y-10567857D01*
X4262143Y-10548810D01*
X4281190Y-10539286D01*
X4328810Y-10539286D01*
X4347857Y-10529762D01*
X4443095Y-10482143D02*
X4443095Y-10682143D01*
X4443095Y-10491667D02*
X4462143Y-10482143D01*
X4500238Y-10482143D01*
X4519286Y-10491667D01*
X4528810Y-10501190D01*
X4538333Y-10520238D01*
X4538333Y-10577381D01*
X4528810Y-10596429D01*
X4519286Y-10605952D01*
X4500238Y-10615476D01*
X4462143Y-10615476D01*
X4443095Y-10605952D01*
X4624048Y-10596429D02*
X4633571Y-10605952D01*
X4624048Y-10615476D01*
X4614524Y-10605952D01*
X4624048Y-10596429D01*
X4624048Y-10615476D01*
X4624048Y-10491667D02*
X4633571Y-10501190D01*
X4624048Y-10510714D01*
X4614524Y-10501190D01*
X4624048Y-10491667D01*
X4624048Y-10510714D01*
D12*
X2970000Y-10932500D02*
X2995000Y-10957500D01*
X2995000Y-10932500D02*
X2970000Y-10957500D01*
D11*
X3290714Y-10835476D02*
X3309762Y-10835476D01*
X3328809Y-10845000D01*
X3338333Y-10854524D01*
X3347857Y-10873571D01*
X3357381Y-10911667D01*
X3357381Y-10959286D01*
X3347857Y-10997381D01*
X3338333Y-11016429D01*
X3328809Y-11025952D01*
X3309762Y-11035476D01*
X3290714Y-11035476D01*
X3271667Y-11025952D01*
X3262143Y-11016429D01*
X3252619Y-10997381D01*
X3243095Y-10959286D01*
X3243095Y-10911667D01*
X3252619Y-10873571D01*
X3262143Y-10854524D01*
X3271667Y-10845000D01*
X3290714Y-10835476D01*
X3443095Y-11016429D02*
X3452619Y-11025952D01*
X3443095Y-11035476D01*
X3433571Y-11025952D01*
X3443095Y-11016429D01*
X3443095Y-11035476D01*
X3528809Y-10854524D02*
X3538333Y-10845000D01*
X3557381Y-10835476D01*
X3605000Y-10835476D01*
X3624048Y-10845000D01*
X3633571Y-10854524D01*
X3643095Y-10873571D01*
X3643095Y-10892619D01*
X3633571Y-10921190D01*
X3519286Y-11035476D01*
X3643095Y-11035476D01*
X3824048Y-10835476D02*
X3728809Y-10835476D01*
X3719286Y-10930714D01*
X3728809Y-10921190D01*
X3747857Y-10911667D01*
X3795476Y-10911667D01*
X3814524Y-10921190D01*
X3824048Y-10930714D01*
X3833571Y-10949762D01*
X3833571Y-10997381D01*
X3824048Y-11016429D01*
X3814524Y-11025952D01*
X3795476Y-11035476D01*
X3747857Y-11035476D01*
X3728809Y-11025952D01*
X3719286Y-11016429D01*
X3957381Y-10835476D02*
X3976428Y-10835476D01*
X3995476Y-10845000D01*
X4005000Y-10854524D01*
X4014524Y-10873571D01*
X4024048Y-10911667D01*
X4024048Y-10959286D01*
X4014524Y-10997381D01*
X4005000Y-11016429D01*
X3995476Y-11025952D01*
X3976428Y-11035476D01*
X3957381Y-11035476D01*
X3938333Y-11025952D01*
X3928809Y-11016429D01*
X3919286Y-10997381D01*
X3909762Y-10959286D01*
X3909762Y-10911667D01*
X3919286Y-10873571D01*
X3928809Y-10854524D01*
X3938333Y-10845000D01*
X3957381Y-10835476D01*
X4109762Y-11035476D02*
X4109762Y-10902143D01*
X4109762Y-10921190D02*
X4119286Y-10911667D01*
X4138333Y-10902143D01*
X4166905Y-10902143D01*
X4185952Y-10911667D01*
X4195476Y-10930714D01*
X4195476Y-11035476D01*
X4195476Y-10930714D02*
X4205000Y-10911667D01*
X4224048Y-10902143D01*
X4252619Y-10902143D01*
X4271667Y-10911667D01*
X4281190Y-10930714D01*
X4281190Y-11035476D01*
X4376429Y-11035476D02*
X4376429Y-10902143D01*
X4376429Y-10921190D02*
X4385952Y-10911667D01*
X4405000Y-10902143D01*
X4433571Y-10902143D01*
X4452619Y-10911667D01*
X4462143Y-10930714D01*
X4462143Y-11035476D01*
X4462143Y-10930714D02*
X4471667Y-10911667D01*
X4490714Y-10902143D01*
X4519286Y-10902143D01*
X4538333Y-10911667D01*
X4547857Y-10930714D01*
X4547857Y-11035476D01*
X4938333Y-10825952D02*
X4766905Y-11083095D01*
X5195476Y-10835476D02*
X5214524Y-10835476D01*
X5233571Y-10845000D01*
X5243095Y-10854524D01*
X5252619Y-10873571D01*
X5262143Y-10911667D01*
X5262143Y-10959286D01*
X5252619Y-10997381D01*
X5243095Y-11016429D01*
X5233571Y-11025952D01*
X5214524Y-11035476D01*
X5195476Y-11035476D01*
X5176429Y-11025952D01*
X5166905Y-11016429D01*
X5157381Y-10997381D01*
X5147857Y-10959286D01*
X5147857Y-10911667D01*
X5157381Y-10873571D01*
X5166905Y-10854524D01*
X5176429Y-10845000D01*
X5195476Y-10835476D01*
X5347857Y-11016429D02*
X5357381Y-11025952D01*
X5347857Y-11035476D01*
X5338333Y-11025952D01*
X5347857Y-11016429D01*
X5347857Y-11035476D01*
X5481190Y-10835476D02*
X5500238Y-10835476D01*
X5519286Y-10845000D01*
X5528810Y-10854524D01*
X5538333Y-10873571D01*
X5547857Y-10911667D01*
X5547857Y-10959286D01*
X5538333Y-10997381D01*
X5528810Y-11016429D01*
X5519286Y-11025952D01*
X5500238Y-11035476D01*
X5481190Y-11035476D01*
X5462143Y-11025952D01*
X5452619Y-11016429D01*
X5443095Y-10997381D01*
X5433571Y-10959286D01*
X5433571Y-10911667D01*
X5443095Y-10873571D01*
X5452619Y-10854524D01*
X5462143Y-10845000D01*
X5481190Y-10835476D01*
X5671667Y-10835476D02*
X5690714Y-10835476D01*
X5709762Y-10845000D01*
X5719286Y-10854524D01*
X5728809Y-10873571D01*
X5738333Y-10911667D01*
X5738333Y-10959286D01*
X5728809Y-10997381D01*
X5719286Y-11016429D01*
X5709762Y-11025952D01*
X5690714Y-11035476D01*
X5671667Y-11035476D01*
X5652619Y-11025952D01*
X5643095Y-11016429D01*
X5633571Y-10997381D01*
X5624048Y-10959286D01*
X5624048Y-10911667D01*
X5633571Y-10873571D01*
X5643095Y-10854524D01*
X5652619Y-10845000D01*
X5671667Y-10835476D01*
X5833571Y-11035476D02*
X5871667Y-11035476D01*
X5890714Y-11025952D01*
X5900238Y-11016429D01*
X5919286Y-10987857D01*
X5928809Y-10949762D01*
X5928809Y-10873571D01*
X5919286Y-10854524D01*
X5909762Y-10845000D01*
X5890714Y-10835476D01*
X5852619Y-10835476D01*
X5833571Y-10845000D01*
X5824048Y-10854524D01*
X5814524Y-10873571D01*
X5814524Y-10921190D01*
X5824048Y-10940238D01*
X5833571Y-10949762D01*
X5852619Y-10959286D01*
X5890714Y-10959286D01*
X5909762Y-10949762D01*
X5919286Y-10940238D01*
X5928809Y-10921190D01*
X6043095Y-10921190D02*
X6024048Y-10911667D01*
X6014524Y-10902143D01*
X6005000Y-10883095D01*
X6005000Y-10873571D01*
X6014524Y-10854524D01*
X6024048Y-10845000D01*
X6043095Y-10835476D01*
X6081190Y-10835476D01*
X6100238Y-10845000D01*
X6109762Y-10854524D01*
X6119286Y-10873571D01*
X6119286Y-10883095D01*
X6109762Y-10902143D01*
X6100238Y-10911667D01*
X6081190Y-10921190D01*
X6043095Y-10921190D01*
X6024048Y-10930714D01*
X6014524Y-10940238D01*
X6005000Y-10959286D01*
X6005000Y-10997381D01*
X6014524Y-11016429D01*
X6024048Y-11025952D01*
X6043095Y-11035476D01*
X6081190Y-11035476D01*
X6100238Y-11025952D01*
X6109762Y-11016429D01*
X6119286Y-10997381D01*
X6119286Y-10959286D01*
X6109762Y-10940238D01*
X6100238Y-10930714D01*
X6081190Y-10921190D01*
X6195476Y-10835476D02*
X6195476Y-10873571D01*
X6271667Y-10835476D02*
X6271667Y-10873571D01*
X6566905Y-11111667D02*
X6557381Y-11102143D01*
X6538333Y-11073571D01*
X6528809Y-11054524D01*
X6519286Y-11025952D01*
X6509762Y-10978333D01*
X6509762Y-10940238D01*
X6519286Y-10892619D01*
X6528809Y-10864048D01*
X6538333Y-10845000D01*
X6557381Y-10816429D01*
X6566905Y-10806905D01*
X6747857Y-11035476D02*
X6633571Y-11035476D01*
X6690714Y-11035476D02*
X6690714Y-10835476D01*
X6671667Y-10864048D01*
X6652619Y-10883095D01*
X6633571Y-10892619D01*
X6814524Y-10835476D02*
X6947857Y-10835476D01*
X6862143Y-11035476D01*
X7005000Y-10835476D02*
X7128809Y-10835476D01*
X7062143Y-10911667D01*
X7090714Y-10911667D01*
X7109762Y-10921190D01*
X7119286Y-10930714D01*
X7128809Y-10949762D01*
X7128809Y-10997381D01*
X7119286Y-11016429D01*
X7109762Y-11025952D01*
X7090714Y-11035476D01*
X7033571Y-11035476D01*
X7014524Y-11025952D01*
X7005000Y-11016429D01*
X7366905Y-11035476D02*
X7366905Y-10835476D01*
X7452619Y-11035476D02*
X7452619Y-10930714D01*
X7443095Y-10911667D01*
X7424048Y-10902143D01*
X7395476Y-10902143D01*
X7376428Y-10911667D01*
X7366905Y-10921190D01*
X7576428Y-11035476D02*
X7557381Y-11025952D01*
X7547857Y-11016429D01*
X7538333Y-10997381D01*
X7538333Y-10940238D01*
X7547857Y-10921190D01*
X7557381Y-10911667D01*
X7576428Y-10902143D01*
X7605000Y-10902143D01*
X7624048Y-10911667D01*
X7633571Y-10921190D01*
X7643095Y-10940238D01*
X7643095Y-10997381D01*
X7633571Y-11016429D01*
X7624048Y-11025952D01*
X7605000Y-11035476D01*
X7576428Y-11035476D01*
X7757381Y-11035476D02*
X7738333Y-11025952D01*
X7728809Y-11006905D01*
X7728809Y-10835476D01*
X7909762Y-11025952D02*
X7890714Y-11035476D01*
X7852619Y-11035476D01*
X7833571Y-11025952D01*
X7824048Y-11006905D01*
X7824048Y-10930714D01*
X7833571Y-10911667D01*
X7852619Y-10902143D01*
X7890714Y-10902143D01*
X7909762Y-10911667D01*
X7919286Y-10930714D01*
X7919286Y-10949762D01*
X7824048Y-10968810D01*
X7995476Y-11025952D02*
X8014524Y-11035476D01*
X8052619Y-11035476D01*
X8071667Y-11025952D01*
X8081190Y-11006905D01*
X8081190Y-10997381D01*
X8071667Y-10978333D01*
X8052619Y-10968810D01*
X8024048Y-10968810D01*
X8005000Y-10959286D01*
X7995476Y-10940238D01*
X7995476Y-10930714D01*
X8005000Y-10911667D01*
X8024048Y-10902143D01*
X8052619Y-10902143D01*
X8071667Y-10911667D01*
X8147857Y-11111667D02*
X8157381Y-11102143D01*
X8176428Y-11073571D01*
X8185952Y-11054524D01*
X8195476Y-11025952D01*
X8205000Y-10978333D01*
X8205000Y-10940238D01*
X8195476Y-10892619D01*
X8185952Y-10864048D01*
X8176428Y-10845000D01*
X8157381Y-10816429D01*
X8147857Y-10806905D01*
D13*
X2995000Y-11209000D02*
G75*
G03*
X2995000Y-11209000I-20000J0D01*
G01*
D11*
X3290714Y-11099476D02*
X3309762Y-11099476D01*
X3328809Y-11109000D01*
X3338333Y-11118524D01*
X3347857Y-11137571D01*
X3357381Y-11175667D01*
X3357381Y-11223286D01*
X3347857Y-11261381D01*
X3338333Y-11280428D01*
X3328809Y-11289952D01*
X3309762Y-11299476D01*
X3290714Y-11299476D01*
X3271667Y-11289952D01*
X3262143Y-11280428D01*
X3252619Y-11261381D01*
X3243095Y-11223286D01*
X3243095Y-11175667D01*
X3252619Y-11137571D01*
X3262143Y-11118524D01*
X3271667Y-11109000D01*
X3290714Y-11099476D01*
X3443095Y-11280428D02*
X3452619Y-11289952D01*
X3443095Y-11299476D01*
X3433571Y-11289952D01*
X3443095Y-11280428D01*
X3443095Y-11299476D01*
X3624048Y-11166143D02*
X3624048Y-11299476D01*
X3576428Y-11089952D02*
X3528809Y-11232809D01*
X3652619Y-11232809D01*
X3766905Y-11099476D02*
X3785952Y-11099476D01*
X3805000Y-11109000D01*
X3814524Y-11118524D01*
X3824048Y-11137571D01*
X3833571Y-11175667D01*
X3833571Y-11223286D01*
X3824048Y-11261381D01*
X3814524Y-11280428D01*
X3805000Y-11289952D01*
X3785952Y-11299476D01*
X3766905Y-11299476D01*
X3747857Y-11289952D01*
X3738333Y-11280428D01*
X3728809Y-11261381D01*
X3719286Y-11223286D01*
X3719286Y-11175667D01*
X3728809Y-11137571D01*
X3738333Y-11118524D01*
X3747857Y-11109000D01*
X3766905Y-11099476D01*
X3957381Y-11099476D02*
X3976428Y-11099476D01*
X3995476Y-11109000D01*
X4005000Y-11118524D01*
X4014524Y-11137571D01*
X4024048Y-11175667D01*
X4024048Y-11223286D01*
X4014524Y-11261381D01*
X4005000Y-11280428D01*
X3995476Y-11289952D01*
X3976428Y-11299476D01*
X3957381Y-11299476D01*
X3938333Y-11289952D01*
X3928809Y-11280428D01*
X3919286Y-11261381D01*
X3909762Y-11223286D01*
X3909762Y-11175667D01*
X3919286Y-11137571D01*
X3928809Y-11118524D01*
X3938333Y-11109000D01*
X3957381Y-11099476D01*
X4109762Y-11299476D02*
X4109762Y-11166143D01*
X4109762Y-11185190D02*
X4119286Y-11175667D01*
X4138333Y-11166143D01*
X4166905Y-11166143D01*
X4185952Y-11175667D01*
X4195476Y-11194714D01*
X4195476Y-11299476D01*
X4195476Y-11194714D02*
X4205000Y-11175667D01*
X4224048Y-11166143D01*
X4252619Y-11166143D01*
X4271667Y-11175667D01*
X4281190Y-11194714D01*
X4281190Y-11299476D01*
X4376429Y-11299476D02*
X4376429Y-11166143D01*
X4376429Y-11185190D02*
X4385952Y-11175667D01*
X4405000Y-11166143D01*
X4433571Y-11166143D01*
X4452619Y-11175667D01*
X4462143Y-11194714D01*
X4462143Y-11299476D01*
X4462143Y-11194714D02*
X4471667Y-11175667D01*
X4490714Y-11166143D01*
X4519286Y-11166143D01*
X4538333Y-11175667D01*
X4547857Y-11194714D01*
X4547857Y-11299476D01*
X4938333Y-11089952D02*
X4766905Y-11347095D01*
X5195476Y-11099476D02*
X5214524Y-11099476D01*
X5233571Y-11109000D01*
X5243095Y-11118524D01*
X5252619Y-11137571D01*
X5262143Y-11175667D01*
X5262143Y-11223286D01*
X5252619Y-11261381D01*
X5243095Y-11280428D01*
X5233571Y-11289952D01*
X5214524Y-11299476D01*
X5195476Y-11299476D01*
X5176429Y-11289952D01*
X5166905Y-11280428D01*
X5157381Y-11261381D01*
X5147857Y-11223286D01*
X5147857Y-11175667D01*
X5157381Y-11137571D01*
X5166905Y-11118524D01*
X5176429Y-11109000D01*
X5195476Y-11099476D01*
X5347857Y-11280428D02*
X5357381Y-11289952D01*
X5347857Y-11299476D01*
X5338333Y-11289952D01*
X5347857Y-11280428D01*
X5347857Y-11299476D01*
X5481190Y-11099476D02*
X5500238Y-11099476D01*
X5519286Y-11109000D01*
X5528810Y-11118524D01*
X5538333Y-11137571D01*
X5547857Y-11175667D01*
X5547857Y-11223286D01*
X5538333Y-11261381D01*
X5528810Y-11280428D01*
X5519286Y-11289952D01*
X5500238Y-11299476D01*
X5481190Y-11299476D01*
X5462143Y-11289952D01*
X5452619Y-11280428D01*
X5443095Y-11261381D01*
X5433571Y-11223286D01*
X5433571Y-11175667D01*
X5443095Y-11137571D01*
X5452619Y-11118524D01*
X5462143Y-11109000D01*
X5481190Y-11099476D01*
X5738333Y-11299476D02*
X5624048Y-11299476D01*
X5681190Y-11299476D02*
X5681190Y-11099476D01*
X5662143Y-11128048D01*
X5643095Y-11147095D01*
X5624048Y-11156619D01*
X5919286Y-11099476D02*
X5824048Y-11099476D01*
X5814524Y-11194714D01*
X5824048Y-11185190D01*
X5843095Y-11175667D01*
X5890714Y-11175667D01*
X5909762Y-11185190D01*
X5919286Y-11194714D01*
X5928809Y-11213762D01*
X5928809Y-11261381D01*
X5919286Y-11280428D01*
X5909762Y-11289952D01*
X5890714Y-11299476D01*
X5843095Y-11299476D01*
X5824048Y-11289952D01*
X5814524Y-11280428D01*
X5995476Y-11099476D02*
X6128809Y-11099476D01*
X6043095Y-11299476D01*
X6195476Y-11099476D02*
X6195476Y-11137571D01*
X6271667Y-11099476D02*
X6271667Y-11137571D01*
X6566905Y-11375667D02*
X6557381Y-11366143D01*
X6538333Y-11337571D01*
X6528809Y-11318524D01*
X6519286Y-11289952D01*
X6509762Y-11242333D01*
X6509762Y-11204238D01*
X6519286Y-11156619D01*
X6528809Y-11128048D01*
X6538333Y-11109000D01*
X6557381Y-11080429D01*
X6566905Y-11070905D01*
X6633571Y-11118524D02*
X6643095Y-11109000D01*
X6662143Y-11099476D01*
X6709762Y-11099476D01*
X6728809Y-11109000D01*
X6738333Y-11118524D01*
X6747857Y-11137571D01*
X6747857Y-11156619D01*
X6738333Y-11185190D01*
X6624048Y-11299476D01*
X6747857Y-11299476D01*
X6985952Y-11299476D02*
X6985952Y-11099476D01*
X7071667Y-11299476D02*
X7071667Y-11194714D01*
X7062143Y-11175667D01*
X7043095Y-11166143D01*
X7014524Y-11166143D01*
X6995476Y-11175667D01*
X6985952Y-11185190D01*
X7195476Y-11299476D02*
X7176428Y-11289952D01*
X7166905Y-11280428D01*
X7157381Y-11261381D01*
X7157381Y-11204238D01*
X7166905Y-11185190D01*
X7176428Y-11175667D01*
X7195476Y-11166143D01*
X7224048Y-11166143D01*
X7243095Y-11175667D01*
X7252619Y-11185190D01*
X7262143Y-11204238D01*
X7262143Y-11261381D01*
X7252619Y-11280428D01*
X7243095Y-11289952D01*
X7224048Y-11299476D01*
X7195476Y-11299476D01*
X7376428Y-11299476D02*
X7357381Y-11289952D01*
X7347857Y-11270905D01*
X7347857Y-11099476D01*
X7528809Y-11289952D02*
X7509762Y-11299476D01*
X7471667Y-11299476D01*
X7452619Y-11289952D01*
X7443095Y-11270905D01*
X7443095Y-11194714D01*
X7452619Y-11175667D01*
X7471667Y-11166143D01*
X7509762Y-11166143D01*
X7528809Y-11175667D01*
X7538333Y-11194714D01*
X7538333Y-11213762D01*
X7443095Y-11232809D01*
X7614524Y-11289952D02*
X7633571Y-11299476D01*
X7671667Y-11299476D01*
X7690714Y-11289952D01*
X7700238Y-11270905D01*
X7700238Y-11261381D01*
X7690714Y-11242333D01*
X7671667Y-11232809D01*
X7643095Y-11232809D01*
X7624048Y-11223286D01*
X7614524Y-11204238D01*
X7614524Y-11194714D01*
X7624048Y-11175667D01*
X7643095Y-11166143D01*
X7671667Y-11166143D01*
X7690714Y-11175667D01*
X7766905Y-11375667D02*
X7776428Y-11366143D01*
X7795476Y-11337571D01*
X7805000Y-11318524D01*
X7814524Y-11289952D01*
X7824048Y-11242333D01*
X7824048Y-11204238D01*
X7814524Y-11156619D01*
X7805000Y-11128048D01*
X7795476Y-11109000D01*
X7776428Y-11080429D01*
X7766905Y-11070905D01*
D14*
X2970000Y-11448000D02*
X2970000Y-11498000D01*
X2945000Y-11473000D02*
X2995000Y-11473000D01*
D11*
X3290714Y-11363476D02*
X3309762Y-11363476D01*
X3328809Y-11373000D01*
X3338333Y-11382524D01*
X3347857Y-11401571D01*
X3357381Y-11439667D01*
X3357381Y-11487286D01*
X3347857Y-11525381D01*
X3338333Y-11544428D01*
X3328809Y-11553952D01*
X3309762Y-11563476D01*
X3290714Y-11563476D01*
X3271667Y-11553952D01*
X3262143Y-11544428D01*
X3252619Y-11525381D01*
X3243095Y-11487286D01*
X3243095Y-11439667D01*
X3252619Y-11401571D01*
X3262143Y-11382524D01*
X3271667Y-11373000D01*
X3290714Y-11363476D01*
X3443095Y-11544428D02*
X3452619Y-11553952D01*
X3443095Y-11563476D01*
X3433571Y-11553952D01*
X3443095Y-11544428D01*
X3443095Y-11563476D01*
X3633571Y-11363476D02*
X3538333Y-11363476D01*
X3528809Y-11458714D01*
X3538333Y-11449190D01*
X3557381Y-11439667D01*
X3605000Y-11439667D01*
X3624048Y-11449190D01*
X3633571Y-11458714D01*
X3643095Y-11477762D01*
X3643095Y-11525381D01*
X3633571Y-11544428D01*
X3624048Y-11553952D01*
X3605000Y-11563476D01*
X3557381Y-11563476D01*
X3538333Y-11553952D01*
X3528809Y-11544428D01*
X3766905Y-11363476D02*
X3785952Y-11363476D01*
X3805000Y-11373000D01*
X3814524Y-11382524D01*
X3824048Y-11401571D01*
X3833571Y-11439667D01*
X3833571Y-11487286D01*
X3824048Y-11525381D01*
X3814524Y-11544428D01*
X3805000Y-11553952D01*
X3785952Y-11563476D01*
X3766905Y-11563476D01*
X3747857Y-11553952D01*
X3738333Y-11544428D01*
X3728809Y-11525381D01*
X3719286Y-11487286D01*
X3719286Y-11439667D01*
X3728809Y-11401571D01*
X3738333Y-11382524D01*
X3747857Y-11373000D01*
X3766905Y-11363476D01*
X3957381Y-11363476D02*
X3976428Y-11363476D01*
X3995476Y-11373000D01*
X4005000Y-11382524D01*
X4014524Y-11401571D01*
X4024048Y-11439667D01*
X4024048Y-11487286D01*
X4014524Y-11525381D01*
X4005000Y-11544428D01*
X3995476Y-11553952D01*
X3976428Y-11563476D01*
X3957381Y-11563476D01*
X3938333Y-11553952D01*
X3928809Y-11544428D01*
X3919286Y-11525381D01*
X3909762Y-11487286D01*
X3909762Y-11439667D01*
X3919286Y-11401571D01*
X3928809Y-11382524D01*
X3938333Y-11373000D01*
X3957381Y-11363476D01*
X4109762Y-11563476D02*
X4109762Y-11430143D01*
X4109762Y-11449190D02*
X4119286Y-11439667D01*
X4138333Y-11430143D01*
X4166905Y-11430143D01*
X4185952Y-11439667D01*
X4195476Y-11458714D01*
X4195476Y-11563476D01*
X4195476Y-11458714D02*
X4205000Y-11439667D01*
X4224048Y-11430143D01*
X4252619Y-11430143D01*
X4271667Y-11439667D01*
X4281190Y-11458714D01*
X4281190Y-11563476D01*
X4376429Y-11563476D02*
X4376429Y-11430143D01*
X4376429Y-11449190D02*
X4385952Y-11439667D01*
X4405000Y-11430143D01*
X4433571Y-11430143D01*
X4452619Y-11439667D01*
X4462143Y-11458714D01*
X4462143Y-11563476D01*
X4462143Y-11458714D02*
X4471667Y-11439667D01*
X4490714Y-11430143D01*
X4519286Y-11430143D01*
X4538333Y-11439667D01*
X4547857Y-11458714D01*
X4547857Y-11563476D01*
X4938333Y-11353952D02*
X4766905Y-11611095D01*
X5195476Y-11363476D02*
X5214524Y-11363476D01*
X5233571Y-11373000D01*
X5243095Y-11382524D01*
X5252619Y-11401571D01*
X5262143Y-11439667D01*
X5262143Y-11487286D01*
X5252619Y-11525381D01*
X5243095Y-11544428D01*
X5233571Y-11553952D01*
X5214524Y-11563476D01*
X5195476Y-11563476D01*
X5176429Y-11553952D01*
X5166905Y-11544428D01*
X5157381Y-11525381D01*
X5147857Y-11487286D01*
X5147857Y-11439667D01*
X5157381Y-11401571D01*
X5166905Y-11382524D01*
X5176429Y-11373000D01*
X5195476Y-11363476D01*
X5347857Y-11544428D02*
X5357381Y-11553952D01*
X5347857Y-11563476D01*
X5338333Y-11553952D01*
X5347857Y-11544428D01*
X5347857Y-11563476D01*
X5481190Y-11363476D02*
X5500238Y-11363476D01*
X5519286Y-11373000D01*
X5528810Y-11382524D01*
X5538333Y-11401571D01*
X5547857Y-11439667D01*
X5547857Y-11487286D01*
X5538333Y-11525381D01*
X5528810Y-11544428D01*
X5519286Y-11553952D01*
X5500238Y-11563476D01*
X5481190Y-11563476D01*
X5462143Y-11553952D01*
X5452619Y-11544428D01*
X5443095Y-11525381D01*
X5433571Y-11487286D01*
X5433571Y-11439667D01*
X5443095Y-11401571D01*
X5452619Y-11382524D01*
X5462143Y-11373000D01*
X5481190Y-11363476D01*
X5738333Y-11563476D02*
X5624048Y-11563476D01*
X5681190Y-11563476D02*
X5681190Y-11363476D01*
X5662143Y-11392048D01*
X5643095Y-11411095D01*
X5624048Y-11420619D01*
X5833571Y-11563476D02*
X5871667Y-11563476D01*
X5890714Y-11553952D01*
X5900238Y-11544428D01*
X5919286Y-11515857D01*
X5928809Y-11477762D01*
X5928809Y-11401571D01*
X5919286Y-11382524D01*
X5909762Y-11373000D01*
X5890714Y-11363476D01*
X5852619Y-11363476D01*
X5833571Y-11373000D01*
X5824048Y-11382524D01*
X5814524Y-11401571D01*
X5814524Y-11449190D01*
X5824048Y-11468238D01*
X5833571Y-11477762D01*
X5852619Y-11487286D01*
X5890714Y-11487286D01*
X5909762Y-11477762D01*
X5919286Y-11468238D01*
X5928809Y-11449190D01*
X5995476Y-11363476D02*
X6128809Y-11363476D01*
X6043095Y-11563476D01*
X6195476Y-11363476D02*
X6195476Y-11401571D01*
X6271667Y-11363476D02*
X6271667Y-11401571D01*
X6566905Y-11639667D02*
X6557381Y-11630143D01*
X6538333Y-11601571D01*
X6528809Y-11582524D01*
X6519286Y-11553952D01*
X6509762Y-11506333D01*
X6509762Y-11468238D01*
X6519286Y-11420619D01*
X6528809Y-11392048D01*
X6538333Y-11373000D01*
X6557381Y-11344428D01*
X6566905Y-11334905D01*
X6747857Y-11563476D02*
X6633571Y-11563476D01*
X6690714Y-11563476D02*
X6690714Y-11363476D01*
X6671667Y-11392048D01*
X6652619Y-11411095D01*
X6633571Y-11420619D01*
X6919286Y-11363476D02*
X6881190Y-11363476D01*
X6862143Y-11373000D01*
X6852619Y-11382524D01*
X6833571Y-11411095D01*
X6824048Y-11449190D01*
X6824048Y-11525381D01*
X6833571Y-11544428D01*
X6843095Y-11553952D01*
X6862143Y-11563476D01*
X6900238Y-11563476D01*
X6919286Y-11553952D01*
X6928809Y-11544428D01*
X6938333Y-11525381D01*
X6938333Y-11477762D01*
X6928809Y-11458714D01*
X6919286Y-11449190D01*
X6900238Y-11439667D01*
X6862143Y-11439667D01*
X6843095Y-11449190D01*
X6833571Y-11458714D01*
X6824048Y-11477762D01*
X7176428Y-11563476D02*
X7176428Y-11363476D01*
X7262143Y-11563476D02*
X7262143Y-11458714D01*
X7252619Y-11439667D01*
X7233571Y-11430143D01*
X7205000Y-11430143D01*
X7185952Y-11439667D01*
X7176428Y-11449190D01*
X7385952Y-11563476D02*
X7366905Y-11553952D01*
X7357381Y-11544428D01*
X7347857Y-11525381D01*
X7347857Y-11468238D01*
X7357381Y-11449190D01*
X7366905Y-11439667D01*
X7385952Y-11430143D01*
X7414524Y-11430143D01*
X7433571Y-11439667D01*
X7443095Y-11449190D01*
X7452619Y-11468238D01*
X7452619Y-11525381D01*
X7443095Y-11544428D01*
X7433571Y-11553952D01*
X7414524Y-11563476D01*
X7385952Y-11563476D01*
X7566905Y-11563476D02*
X7547857Y-11553952D01*
X7538333Y-11534905D01*
X7538333Y-11363476D01*
X7719286Y-11553952D02*
X7700238Y-11563476D01*
X7662143Y-11563476D01*
X7643095Y-11553952D01*
X7633571Y-11534905D01*
X7633571Y-11458714D01*
X7643095Y-11439667D01*
X7662143Y-11430143D01*
X7700238Y-11430143D01*
X7719286Y-11439667D01*
X7728809Y-11458714D01*
X7728809Y-11477762D01*
X7633571Y-11496809D01*
X7805000Y-11553952D02*
X7824048Y-11563476D01*
X7862143Y-11563476D01*
X7881190Y-11553952D01*
X7890714Y-11534905D01*
X7890714Y-11525381D01*
X7881190Y-11506333D01*
X7862143Y-11496809D01*
X7833571Y-11496809D01*
X7814524Y-11487286D01*
X7805000Y-11468238D01*
X7805000Y-11458714D01*
X7814524Y-11439667D01*
X7833571Y-11430143D01*
X7862143Y-11430143D01*
X7881190Y-11439667D01*
X7957381Y-11639667D02*
X7966905Y-11630143D01*
X7985952Y-11601571D01*
X7995476Y-11582524D01*
X8005000Y-11553952D01*
X8014524Y-11506333D01*
X8014524Y-11468238D01*
X8005000Y-11420619D01*
X7995476Y-11392048D01*
X7985952Y-11373000D01*
X7966905Y-11344428D01*
X7957381Y-11334905D01*
D15*
X2985481Y-11759981D02*
X2985481Y-11714019D01*
X2939519Y-11714019D01*
X2939519Y-11759981D01*
X2985481Y-11759981D01*
D11*
X3290714Y-11627476D02*
X3309762Y-11627476D01*
X3328809Y-11637000D01*
X3338333Y-11646524D01*
X3347857Y-11665571D01*
X3357381Y-11703667D01*
X3357381Y-11751286D01*
X3347857Y-11789381D01*
X3338333Y-11808428D01*
X3328809Y-11817952D01*
X3309762Y-11827476D01*
X3290714Y-11827476D01*
X3271667Y-11817952D01*
X3262143Y-11808428D01*
X3252619Y-11789381D01*
X3243095Y-11751286D01*
X3243095Y-11703667D01*
X3252619Y-11665571D01*
X3262143Y-11646524D01*
X3271667Y-11637000D01*
X3290714Y-11627476D01*
X3443095Y-11808428D02*
X3452619Y-11817952D01*
X3443095Y-11827476D01*
X3433571Y-11817952D01*
X3443095Y-11808428D01*
X3443095Y-11827476D01*
X3624048Y-11627476D02*
X3585952Y-11627476D01*
X3566905Y-11637000D01*
X3557381Y-11646524D01*
X3538333Y-11675095D01*
X3528809Y-11713190D01*
X3528809Y-11789381D01*
X3538333Y-11808428D01*
X3547857Y-11817952D01*
X3566905Y-11827476D01*
X3605000Y-11827476D01*
X3624048Y-11817952D01*
X3633571Y-11808428D01*
X3643095Y-11789381D01*
X3643095Y-11741762D01*
X3633571Y-11722714D01*
X3624048Y-11713190D01*
X3605000Y-11703667D01*
X3566905Y-11703667D01*
X3547857Y-11713190D01*
X3538333Y-11722714D01*
X3528809Y-11741762D01*
X3824048Y-11627476D02*
X3728809Y-11627476D01*
X3719286Y-11722714D01*
X3728809Y-11713190D01*
X3747857Y-11703667D01*
X3795476Y-11703667D01*
X3814524Y-11713190D01*
X3824048Y-11722714D01*
X3833571Y-11741762D01*
X3833571Y-11789381D01*
X3824048Y-11808428D01*
X3814524Y-11817952D01*
X3795476Y-11827476D01*
X3747857Y-11827476D01*
X3728809Y-11817952D01*
X3719286Y-11808428D01*
X3957381Y-11627476D02*
X3976428Y-11627476D01*
X3995476Y-11637000D01*
X4005000Y-11646524D01*
X4014524Y-11665571D01*
X4024048Y-11703667D01*
X4024048Y-11751286D01*
X4014524Y-11789381D01*
X4005000Y-11808428D01*
X3995476Y-11817952D01*
X3976428Y-11827476D01*
X3957381Y-11827476D01*
X3938333Y-11817952D01*
X3928809Y-11808428D01*
X3919286Y-11789381D01*
X3909762Y-11751286D01*
X3909762Y-11703667D01*
X3919286Y-11665571D01*
X3928809Y-11646524D01*
X3938333Y-11637000D01*
X3957381Y-11627476D01*
X4109762Y-11827476D02*
X4109762Y-11694143D01*
X4109762Y-11713190D02*
X4119286Y-11703667D01*
X4138333Y-11694143D01*
X4166905Y-11694143D01*
X4185952Y-11703667D01*
X4195476Y-11722714D01*
X4195476Y-11827476D01*
X4195476Y-11722714D02*
X4205000Y-11703667D01*
X4224048Y-11694143D01*
X4252619Y-11694143D01*
X4271667Y-11703667D01*
X4281190Y-11722714D01*
X4281190Y-11827476D01*
X4376429Y-11827476D02*
X4376429Y-11694143D01*
X4376429Y-11713190D02*
X4385952Y-11703667D01*
X4405000Y-11694143D01*
X4433571Y-11694143D01*
X4452619Y-11703667D01*
X4462143Y-11722714D01*
X4462143Y-11827476D01*
X4462143Y-11722714D02*
X4471667Y-11703667D01*
X4490714Y-11694143D01*
X4519286Y-11694143D01*
X4538333Y-11703667D01*
X4547857Y-11722714D01*
X4547857Y-11827476D01*
X4938333Y-11617952D02*
X4766905Y-11875095D01*
X5195476Y-11627476D02*
X5214524Y-11627476D01*
X5233571Y-11637000D01*
X5243095Y-11646524D01*
X5252619Y-11665571D01*
X5262143Y-11703667D01*
X5262143Y-11751286D01*
X5252619Y-11789381D01*
X5243095Y-11808428D01*
X5233571Y-11817952D01*
X5214524Y-11827476D01*
X5195476Y-11827476D01*
X5176429Y-11817952D01*
X5166905Y-11808428D01*
X5157381Y-11789381D01*
X5147857Y-11751286D01*
X5147857Y-11703667D01*
X5157381Y-11665571D01*
X5166905Y-11646524D01*
X5176429Y-11637000D01*
X5195476Y-11627476D01*
X5347857Y-11808428D02*
X5357381Y-11817952D01*
X5347857Y-11827476D01*
X5338333Y-11817952D01*
X5347857Y-11808428D01*
X5347857Y-11827476D01*
X5481190Y-11627476D02*
X5500238Y-11627476D01*
X5519286Y-11637000D01*
X5528810Y-11646524D01*
X5538333Y-11665571D01*
X5547857Y-11703667D01*
X5547857Y-11751286D01*
X5538333Y-11789381D01*
X5528810Y-11808428D01*
X5519286Y-11817952D01*
X5500238Y-11827476D01*
X5481190Y-11827476D01*
X5462143Y-11817952D01*
X5452619Y-11808428D01*
X5443095Y-11789381D01*
X5433571Y-11751286D01*
X5433571Y-11703667D01*
X5443095Y-11665571D01*
X5452619Y-11646524D01*
X5462143Y-11637000D01*
X5481190Y-11627476D01*
X5624048Y-11646524D02*
X5633571Y-11637000D01*
X5652619Y-11627476D01*
X5700238Y-11627476D01*
X5719286Y-11637000D01*
X5728809Y-11646524D01*
X5738333Y-11665571D01*
X5738333Y-11684619D01*
X5728809Y-11713190D01*
X5614524Y-11827476D01*
X5738333Y-11827476D01*
X5919286Y-11627476D02*
X5824048Y-11627476D01*
X5814524Y-11722714D01*
X5824048Y-11713190D01*
X5843095Y-11703667D01*
X5890714Y-11703667D01*
X5909762Y-11713190D01*
X5919286Y-11722714D01*
X5928809Y-11741762D01*
X5928809Y-11789381D01*
X5919286Y-11808428D01*
X5909762Y-11817952D01*
X5890714Y-11827476D01*
X5843095Y-11827476D01*
X5824048Y-11817952D01*
X5814524Y-11808428D01*
X6100238Y-11627476D02*
X6062143Y-11627476D01*
X6043095Y-11637000D01*
X6033571Y-11646524D01*
X6014524Y-11675095D01*
X6005000Y-11713190D01*
X6005000Y-11789381D01*
X6014524Y-11808428D01*
X6024048Y-11817952D01*
X6043095Y-11827476D01*
X6081190Y-11827476D01*
X6100238Y-11817952D01*
X6109762Y-11808428D01*
X6119286Y-11789381D01*
X6119286Y-11741762D01*
X6109762Y-11722714D01*
X6100238Y-11713190D01*
X6081190Y-11703667D01*
X6043095Y-11703667D01*
X6024048Y-11713190D01*
X6014524Y-11722714D01*
X6005000Y-11741762D01*
X6195476Y-11627476D02*
X6195476Y-11665571D01*
X6271667Y-11627476D02*
X6271667Y-11665571D01*
X6566905Y-11903667D02*
X6557381Y-11894143D01*
X6538333Y-11865571D01*
X6528809Y-11846524D01*
X6519286Y-11817952D01*
X6509762Y-11770333D01*
X6509762Y-11732238D01*
X6519286Y-11684619D01*
X6528809Y-11656048D01*
X6538333Y-11637000D01*
X6557381Y-11608428D01*
X6566905Y-11598905D01*
X6681190Y-11627476D02*
X6700238Y-11627476D01*
X6719286Y-11637000D01*
X6728809Y-11646524D01*
X6738333Y-11665571D01*
X6747857Y-11703667D01*
X6747857Y-11751286D01*
X6738333Y-11789381D01*
X6728809Y-11808428D01*
X6719286Y-11817952D01*
X6700238Y-11827476D01*
X6681190Y-11827476D01*
X6662143Y-11817952D01*
X6652619Y-11808428D01*
X6643095Y-11789381D01*
X6633571Y-11751286D01*
X6633571Y-11703667D01*
X6643095Y-11665571D01*
X6652619Y-11646524D01*
X6662143Y-11637000D01*
X6681190Y-11627476D01*
X6985952Y-11827476D02*
X6985952Y-11627476D01*
X7071667Y-11827476D02*
X7071667Y-11722714D01*
X7062143Y-11703667D01*
X7043095Y-11694143D01*
X7014524Y-11694143D01*
X6995476Y-11703667D01*
X6985952Y-11713190D01*
X7195476Y-11827476D02*
X7176428Y-11817952D01*
X7166905Y-11808428D01*
X7157381Y-11789381D01*
X7157381Y-11732238D01*
X7166905Y-11713190D01*
X7176428Y-11703667D01*
X7195476Y-11694143D01*
X7224048Y-11694143D01*
X7243095Y-11703667D01*
X7252619Y-11713190D01*
X7262143Y-11732238D01*
X7262143Y-11789381D01*
X7252619Y-11808428D01*
X7243095Y-11817952D01*
X7224048Y-11827476D01*
X7195476Y-11827476D01*
X7376428Y-11827476D02*
X7357381Y-11817952D01*
X7347857Y-11798905D01*
X7347857Y-11627476D01*
X7528809Y-11817952D02*
X7509762Y-11827476D01*
X7471667Y-11827476D01*
X7452619Y-11817952D01*
X7443095Y-11798905D01*
X7443095Y-11722714D01*
X7452619Y-11703667D01*
X7471667Y-11694143D01*
X7509762Y-11694143D01*
X7528809Y-11703667D01*
X7538333Y-11722714D01*
X7538333Y-11741762D01*
X7443095Y-11760809D01*
X7614524Y-11817952D02*
X7633571Y-11827476D01*
X7671667Y-11827476D01*
X7690714Y-11817952D01*
X7700238Y-11798905D01*
X7700238Y-11789381D01*
X7690714Y-11770333D01*
X7671667Y-11760809D01*
X7643095Y-11760809D01*
X7624048Y-11751286D01*
X7614524Y-11732238D01*
X7614524Y-11722714D01*
X7624048Y-11703667D01*
X7643095Y-11694143D01*
X7671667Y-11694143D01*
X7690714Y-11703667D01*
X7938333Y-11751286D02*
X8090714Y-11751286D01*
X8014524Y-11827476D02*
X8014524Y-11675095D01*
X8328809Y-11646524D02*
X8338333Y-11637000D01*
X8357381Y-11627476D01*
X8405000Y-11627476D01*
X8424048Y-11637000D01*
X8433571Y-11646524D01*
X8443095Y-11665571D01*
X8443095Y-11684619D01*
X8433571Y-11713190D01*
X8319286Y-11827476D01*
X8443095Y-11827476D01*
X8671667Y-11817952D02*
X8690714Y-11827476D01*
X8728810Y-11827476D01*
X8747857Y-11817952D01*
X8757381Y-11798905D01*
X8757381Y-11789381D01*
X8747857Y-11770333D01*
X8728810Y-11760809D01*
X8700238Y-11760809D01*
X8681190Y-11751286D01*
X8671667Y-11732238D01*
X8671667Y-11722714D01*
X8681190Y-11703667D01*
X8700238Y-11694143D01*
X8728810Y-11694143D01*
X8747857Y-11703667D01*
X8871667Y-11827476D02*
X8852619Y-11817952D01*
X8843095Y-11798905D01*
X8843095Y-11627476D01*
X8976429Y-11827476D02*
X8957381Y-11817952D01*
X8947857Y-11808428D01*
X8938333Y-11789381D01*
X8938333Y-11732238D01*
X8947857Y-11713190D01*
X8957381Y-11703667D01*
X8976429Y-11694143D01*
X9005000Y-11694143D01*
X9024048Y-11703667D01*
X9033571Y-11713190D01*
X9043095Y-11732238D01*
X9043095Y-11789381D01*
X9033571Y-11808428D01*
X9024048Y-11817952D01*
X9005000Y-11827476D01*
X8976429Y-11827476D01*
X9100238Y-11694143D02*
X9176429Y-11694143D01*
X9128810Y-11627476D02*
X9128810Y-11798905D01*
X9138333Y-11817952D01*
X9157381Y-11827476D01*
X9176429Y-11827476D01*
X9233571Y-11817952D02*
X9252619Y-11827476D01*
X9290714Y-11827476D01*
X9309762Y-11817952D01*
X9319286Y-11798905D01*
X9319286Y-11789381D01*
X9309762Y-11770333D01*
X9290714Y-11760809D01*
X9262143Y-11760809D01*
X9243095Y-11751286D01*
X9233571Y-11732238D01*
X9233571Y-11722714D01*
X9243095Y-11703667D01*
X9262143Y-11694143D01*
X9290714Y-11694143D01*
X9309762Y-11703667D01*
X9385952Y-11903667D02*
X9395476Y-11894143D01*
X9414524Y-11865571D01*
X9424048Y-11846524D01*
X9433571Y-11817952D01*
X9443095Y-11770333D01*
X9443095Y-11732238D01*
X9433571Y-11684619D01*
X9424048Y-11656048D01*
X9414524Y-11637000D01*
X9395476Y-11608428D01*
X9385952Y-11598905D01*
D16*
X2960000Y-12036000D02*
X2995000Y-12001000D01*
X2960000Y-11966000D01*
X2925000Y-12001000D01*
X2960000Y-12036000D01*
D11*
X3290714Y-11891476D02*
X3309762Y-11891476D01*
X3328809Y-11901000D01*
X3338333Y-11910524D01*
X3347857Y-11929571D01*
X3357381Y-11967667D01*
X3357381Y-12015286D01*
X3347857Y-12053381D01*
X3338333Y-12072428D01*
X3328809Y-12081952D01*
X3309762Y-12091476D01*
X3290714Y-12091476D01*
X3271667Y-12081952D01*
X3262143Y-12072428D01*
X3252619Y-12053381D01*
X3243095Y-12015286D01*
X3243095Y-11967667D01*
X3252619Y-11929571D01*
X3262143Y-11910524D01*
X3271667Y-11901000D01*
X3290714Y-11891476D01*
X3443095Y-12072428D02*
X3452619Y-12081952D01*
X3443095Y-12091476D01*
X3433571Y-12081952D01*
X3443095Y-12072428D01*
X3443095Y-12091476D01*
X3519286Y-11891476D02*
X3652619Y-11891476D01*
X3566905Y-12091476D01*
X3766905Y-11891476D02*
X3785952Y-11891476D01*
X3805000Y-11901000D01*
X3814524Y-11910524D01*
X3824048Y-11929571D01*
X3833571Y-11967667D01*
X3833571Y-12015286D01*
X3824048Y-12053381D01*
X3814524Y-12072428D01*
X3805000Y-12081952D01*
X3785952Y-12091476D01*
X3766905Y-12091476D01*
X3747857Y-12081952D01*
X3738333Y-12072428D01*
X3728809Y-12053381D01*
X3719286Y-12015286D01*
X3719286Y-11967667D01*
X3728809Y-11929571D01*
X3738333Y-11910524D01*
X3747857Y-11901000D01*
X3766905Y-11891476D01*
X3957381Y-11891476D02*
X3976428Y-11891476D01*
X3995476Y-11901000D01*
X4005000Y-11910524D01*
X4014524Y-11929571D01*
X4024048Y-11967667D01*
X4024048Y-12015286D01*
X4014524Y-12053381D01*
X4005000Y-12072428D01*
X3995476Y-12081952D01*
X3976428Y-12091476D01*
X3957381Y-12091476D01*
X3938333Y-12081952D01*
X3928809Y-12072428D01*
X3919286Y-12053381D01*
X3909762Y-12015286D01*
X3909762Y-11967667D01*
X3919286Y-11929571D01*
X3928809Y-11910524D01*
X3938333Y-11901000D01*
X3957381Y-11891476D01*
X4109762Y-12091476D02*
X4109762Y-11958143D01*
X4109762Y-11977190D02*
X4119286Y-11967667D01*
X4138333Y-11958143D01*
X4166905Y-11958143D01*
X4185952Y-11967667D01*
X4195476Y-11986714D01*
X4195476Y-12091476D01*
X4195476Y-11986714D02*
X4205000Y-11967667D01*
X4224048Y-11958143D01*
X4252619Y-11958143D01*
X4271667Y-11967667D01*
X4281190Y-11986714D01*
X4281190Y-12091476D01*
X4376429Y-12091476D02*
X4376429Y-11958143D01*
X4376429Y-11977190D02*
X4385952Y-11967667D01*
X4405000Y-11958143D01*
X4433571Y-11958143D01*
X4452619Y-11967667D01*
X4462143Y-11986714D01*
X4462143Y-12091476D01*
X4462143Y-11986714D02*
X4471667Y-11967667D01*
X4490714Y-11958143D01*
X4519286Y-11958143D01*
X4538333Y-11967667D01*
X4547857Y-11986714D01*
X4547857Y-12091476D01*
X4938333Y-11881952D02*
X4766905Y-12139095D01*
X5195476Y-11891476D02*
X5214524Y-11891476D01*
X5233571Y-11901000D01*
X5243095Y-11910524D01*
X5252619Y-11929571D01*
X5262143Y-11967667D01*
X5262143Y-12015286D01*
X5252619Y-12053381D01*
X5243095Y-12072428D01*
X5233571Y-12081952D01*
X5214524Y-12091476D01*
X5195476Y-12091476D01*
X5176429Y-12081952D01*
X5166905Y-12072428D01*
X5157381Y-12053381D01*
X5147857Y-12015286D01*
X5147857Y-11967667D01*
X5157381Y-11929571D01*
X5166905Y-11910524D01*
X5176429Y-11901000D01*
X5195476Y-11891476D01*
X5347857Y-12072428D02*
X5357381Y-12081952D01*
X5347857Y-12091476D01*
X5338333Y-12081952D01*
X5347857Y-12072428D01*
X5347857Y-12091476D01*
X5481190Y-11891476D02*
X5500238Y-11891476D01*
X5519286Y-11901000D01*
X5528810Y-11910524D01*
X5538333Y-11929571D01*
X5547857Y-11967667D01*
X5547857Y-12015286D01*
X5538333Y-12053381D01*
X5528810Y-12072428D01*
X5519286Y-12081952D01*
X5500238Y-12091476D01*
X5481190Y-12091476D01*
X5462143Y-12081952D01*
X5452619Y-12072428D01*
X5443095Y-12053381D01*
X5433571Y-12015286D01*
X5433571Y-11967667D01*
X5443095Y-11929571D01*
X5452619Y-11910524D01*
X5462143Y-11901000D01*
X5481190Y-11891476D01*
X5624048Y-11910524D02*
X5633571Y-11901000D01*
X5652619Y-11891476D01*
X5700238Y-11891476D01*
X5719286Y-11901000D01*
X5728809Y-11910524D01*
X5738333Y-11929571D01*
X5738333Y-11948619D01*
X5728809Y-11977190D01*
X5614524Y-12091476D01*
X5738333Y-12091476D01*
X5805000Y-11891476D02*
X5938333Y-11891476D01*
X5852619Y-12091476D01*
X6100238Y-11891476D02*
X6062143Y-11891476D01*
X6043095Y-11901000D01*
X6033571Y-11910524D01*
X6014524Y-11939095D01*
X6005000Y-11977190D01*
X6005000Y-12053381D01*
X6014524Y-12072428D01*
X6024048Y-12081952D01*
X6043095Y-12091476D01*
X6081190Y-12091476D01*
X6100238Y-12081952D01*
X6109762Y-12072428D01*
X6119286Y-12053381D01*
X6119286Y-12005762D01*
X6109762Y-11986714D01*
X6100238Y-11977190D01*
X6081190Y-11967667D01*
X6043095Y-11967667D01*
X6024048Y-11977190D01*
X6014524Y-11986714D01*
X6005000Y-12005762D01*
X6195476Y-11891476D02*
X6195476Y-11929571D01*
X6271667Y-11891476D02*
X6271667Y-11929571D01*
X6566905Y-12167667D02*
X6557381Y-12158143D01*
X6538333Y-12129571D01*
X6528809Y-12110524D01*
X6519286Y-12081952D01*
X6509762Y-12034333D01*
X6509762Y-11996238D01*
X6519286Y-11948619D01*
X6528809Y-11920048D01*
X6538333Y-11901000D01*
X6557381Y-11872428D01*
X6566905Y-11862905D01*
X6681190Y-11891476D02*
X6700238Y-11891476D01*
X6719286Y-11901000D01*
X6728809Y-11910524D01*
X6738333Y-11929571D01*
X6747857Y-11967667D01*
X6747857Y-12015286D01*
X6738333Y-12053381D01*
X6728809Y-12072428D01*
X6719286Y-12081952D01*
X6700238Y-12091476D01*
X6681190Y-12091476D01*
X6662143Y-12081952D01*
X6652619Y-12072428D01*
X6643095Y-12053381D01*
X6633571Y-12015286D01*
X6633571Y-11967667D01*
X6643095Y-11929571D01*
X6652619Y-11910524D01*
X6662143Y-11901000D01*
X6681190Y-11891476D01*
X6985952Y-12091476D02*
X6985952Y-11891476D01*
X7071667Y-12091476D02*
X7071667Y-11986714D01*
X7062143Y-11967667D01*
X7043095Y-11958143D01*
X7014524Y-11958143D01*
X6995476Y-11967667D01*
X6985952Y-11977190D01*
X7195476Y-12091476D02*
X7176428Y-12081952D01*
X7166905Y-12072428D01*
X7157381Y-12053381D01*
X7157381Y-11996238D01*
X7166905Y-11977190D01*
X7176428Y-11967667D01*
X7195476Y-11958143D01*
X7224048Y-11958143D01*
X7243095Y-11967667D01*
X7252619Y-11977190D01*
X7262143Y-11996238D01*
X7262143Y-12053381D01*
X7252619Y-12072428D01*
X7243095Y-12081952D01*
X7224048Y-12091476D01*
X7195476Y-12091476D01*
X7376428Y-12091476D02*
X7357381Y-12081952D01*
X7347857Y-12062905D01*
X7347857Y-11891476D01*
X7528809Y-12081952D02*
X7509762Y-12091476D01*
X7471667Y-12091476D01*
X7452619Y-12081952D01*
X7443095Y-12062905D01*
X7443095Y-11986714D01*
X7452619Y-11967667D01*
X7471667Y-11958143D01*
X7509762Y-11958143D01*
X7528809Y-11967667D01*
X7538333Y-11986714D01*
X7538333Y-12005762D01*
X7443095Y-12024809D01*
X7614524Y-12081952D02*
X7633571Y-12091476D01*
X7671667Y-12091476D01*
X7690714Y-12081952D01*
X7700238Y-12062905D01*
X7700238Y-12053381D01*
X7690714Y-12034333D01*
X7671667Y-12024809D01*
X7643095Y-12024809D01*
X7624048Y-12015286D01*
X7614524Y-11996238D01*
X7614524Y-11986714D01*
X7624048Y-11967667D01*
X7643095Y-11958143D01*
X7671667Y-11958143D01*
X7690714Y-11967667D01*
X7938333Y-12015286D02*
X8090714Y-12015286D01*
X8014524Y-12091476D02*
X8014524Y-11939095D01*
X8328809Y-11910524D02*
X8338333Y-11901000D01*
X8357381Y-11891476D01*
X8405000Y-11891476D01*
X8424048Y-11901000D01*
X8433571Y-11910524D01*
X8443095Y-11929571D01*
X8443095Y-11948619D01*
X8433571Y-11977190D01*
X8319286Y-12091476D01*
X8443095Y-12091476D01*
X8671667Y-12081952D02*
X8690714Y-12091476D01*
X8728810Y-12091476D01*
X8747857Y-12081952D01*
X8757381Y-12062905D01*
X8757381Y-12053381D01*
X8747857Y-12034333D01*
X8728810Y-12024809D01*
X8700238Y-12024809D01*
X8681190Y-12015286D01*
X8671667Y-11996238D01*
X8671667Y-11986714D01*
X8681190Y-11967667D01*
X8700238Y-11958143D01*
X8728810Y-11958143D01*
X8747857Y-11967667D01*
X8871667Y-12091476D02*
X8852619Y-12081952D01*
X8843095Y-12062905D01*
X8843095Y-11891476D01*
X8976429Y-12091476D02*
X8957381Y-12081952D01*
X8947857Y-12072428D01*
X8938333Y-12053381D01*
X8938333Y-11996238D01*
X8947857Y-11977190D01*
X8957381Y-11967667D01*
X8976429Y-11958143D01*
X9005000Y-11958143D01*
X9024048Y-11967667D01*
X9033571Y-11977190D01*
X9043095Y-11996238D01*
X9043095Y-12053381D01*
X9033571Y-12072428D01*
X9024048Y-12081952D01*
X9005000Y-12091476D01*
X8976429Y-12091476D01*
X9100238Y-11958143D02*
X9176429Y-11958143D01*
X9128810Y-11891476D02*
X9128810Y-12062905D01*
X9138333Y-12081952D01*
X9157381Y-12091476D01*
X9176429Y-12091476D01*
X9233571Y-12081952D02*
X9252619Y-12091476D01*
X9290714Y-12091476D01*
X9309762Y-12081952D01*
X9319286Y-12062905D01*
X9319286Y-12053381D01*
X9309762Y-12034333D01*
X9290714Y-12024809D01*
X9262143Y-12024809D01*
X9243095Y-12015286D01*
X9233571Y-11996238D01*
X9233571Y-11986714D01*
X9243095Y-11967667D01*
X9262143Y-11958143D01*
X9290714Y-11958143D01*
X9309762Y-11967667D01*
X9385952Y-12167667D02*
X9395476Y-12158143D01*
X9414524Y-12129571D01*
X9424048Y-12110524D01*
X9433571Y-12081952D01*
X9443095Y-12034333D01*
X9443095Y-11996238D01*
X9433571Y-11948619D01*
X9424048Y-11920048D01*
X9414524Y-11901000D01*
X9395476Y-11872428D01*
X9385952Y-11862905D01*
D17*
X2900000Y-12217500D02*
X2995000Y-12312500D01*
X2995000Y-12217500D02*
X2900000Y-12312500D01*
X2995000Y-12265000D02*
G75*
G03*
X2995000Y-12265000I-47500J0D01*
G01*
D11*
X3290714Y-12155476D02*
X3309762Y-12155476D01*
X3328809Y-12165000D01*
X3338333Y-12174524D01*
X3347857Y-12193571D01*
X3357381Y-12231667D01*
X3357381Y-12279286D01*
X3347857Y-12317381D01*
X3338333Y-12336428D01*
X3328809Y-12345952D01*
X3309762Y-12355476D01*
X3290714Y-12355476D01*
X3271667Y-12345952D01*
X3262143Y-12336428D01*
X3252619Y-12317381D01*
X3243095Y-12279286D01*
X3243095Y-12231667D01*
X3252619Y-12193571D01*
X3262143Y-12174524D01*
X3271667Y-12165000D01*
X3290714Y-12155476D01*
X3443095Y-12336428D02*
X3452619Y-12345952D01*
X3443095Y-12355476D01*
X3433571Y-12345952D01*
X3443095Y-12336428D01*
X3443095Y-12355476D01*
X3547857Y-12355476D02*
X3585952Y-12355476D01*
X3605000Y-12345952D01*
X3614524Y-12336428D01*
X3633571Y-12307857D01*
X3643095Y-12269762D01*
X3643095Y-12193571D01*
X3633571Y-12174524D01*
X3624048Y-12165000D01*
X3605000Y-12155476D01*
X3566905Y-12155476D01*
X3547857Y-12165000D01*
X3538333Y-12174524D01*
X3528809Y-12193571D01*
X3528809Y-12241190D01*
X3538333Y-12260238D01*
X3547857Y-12269762D01*
X3566905Y-12279286D01*
X3605000Y-12279286D01*
X3624048Y-12269762D01*
X3633571Y-12260238D01*
X3643095Y-12241190D01*
X3824048Y-12155476D02*
X3728809Y-12155476D01*
X3719286Y-12250714D01*
X3728809Y-12241190D01*
X3747857Y-12231667D01*
X3795476Y-12231667D01*
X3814524Y-12241190D01*
X3824048Y-12250714D01*
X3833571Y-12269762D01*
X3833571Y-12317381D01*
X3824048Y-12336428D01*
X3814524Y-12345952D01*
X3795476Y-12355476D01*
X3747857Y-12355476D01*
X3728809Y-12345952D01*
X3719286Y-12336428D01*
X3957381Y-12155476D02*
X3976428Y-12155476D01*
X3995476Y-12165000D01*
X4005000Y-12174524D01*
X4014524Y-12193571D01*
X4024048Y-12231667D01*
X4024048Y-12279286D01*
X4014524Y-12317381D01*
X4005000Y-12336428D01*
X3995476Y-12345952D01*
X3976428Y-12355476D01*
X3957381Y-12355476D01*
X3938333Y-12345952D01*
X3928809Y-12336428D01*
X3919286Y-12317381D01*
X3909762Y-12279286D01*
X3909762Y-12231667D01*
X3919286Y-12193571D01*
X3928809Y-12174524D01*
X3938333Y-12165000D01*
X3957381Y-12155476D01*
X4109762Y-12355476D02*
X4109762Y-12222143D01*
X4109762Y-12241190D02*
X4119286Y-12231667D01*
X4138333Y-12222143D01*
X4166905Y-12222143D01*
X4185952Y-12231667D01*
X4195476Y-12250714D01*
X4195476Y-12355476D01*
X4195476Y-12250714D02*
X4205000Y-12231667D01*
X4224048Y-12222143D01*
X4252619Y-12222143D01*
X4271667Y-12231667D01*
X4281190Y-12250714D01*
X4281190Y-12355476D01*
X4376429Y-12355476D02*
X4376429Y-12222143D01*
X4376429Y-12241190D02*
X4385952Y-12231667D01*
X4405000Y-12222143D01*
X4433571Y-12222143D01*
X4452619Y-12231667D01*
X4462143Y-12250714D01*
X4462143Y-12355476D01*
X4462143Y-12250714D02*
X4471667Y-12231667D01*
X4490714Y-12222143D01*
X4519286Y-12222143D01*
X4538333Y-12231667D01*
X4547857Y-12250714D01*
X4547857Y-12355476D01*
X4938333Y-12145952D02*
X4766905Y-12403095D01*
X5195476Y-12155476D02*
X5214524Y-12155476D01*
X5233571Y-12165000D01*
X5243095Y-12174524D01*
X5252619Y-12193571D01*
X5262143Y-12231667D01*
X5262143Y-12279286D01*
X5252619Y-12317381D01*
X5243095Y-12336428D01*
X5233571Y-12345952D01*
X5214524Y-12355476D01*
X5195476Y-12355476D01*
X5176429Y-12345952D01*
X5166905Y-12336428D01*
X5157381Y-12317381D01*
X5147857Y-12279286D01*
X5147857Y-12231667D01*
X5157381Y-12193571D01*
X5166905Y-12174524D01*
X5176429Y-12165000D01*
X5195476Y-12155476D01*
X5347857Y-12336428D02*
X5357381Y-12345952D01*
X5347857Y-12355476D01*
X5338333Y-12345952D01*
X5347857Y-12336428D01*
X5347857Y-12355476D01*
X5481190Y-12155476D02*
X5500238Y-12155476D01*
X5519286Y-12165000D01*
X5528810Y-12174524D01*
X5538333Y-12193571D01*
X5547857Y-12231667D01*
X5547857Y-12279286D01*
X5538333Y-12317381D01*
X5528810Y-12336428D01*
X5519286Y-12345952D01*
X5500238Y-12355476D01*
X5481190Y-12355476D01*
X5462143Y-12345952D01*
X5452619Y-12336428D01*
X5443095Y-12317381D01*
X5433571Y-12279286D01*
X5433571Y-12231667D01*
X5443095Y-12193571D01*
X5452619Y-12174524D01*
X5462143Y-12165000D01*
X5481190Y-12155476D01*
X5614524Y-12155476D02*
X5738333Y-12155476D01*
X5671667Y-12231667D01*
X5700238Y-12231667D01*
X5719286Y-12241190D01*
X5728809Y-12250714D01*
X5738333Y-12269762D01*
X5738333Y-12317381D01*
X5728809Y-12336428D01*
X5719286Y-12345952D01*
X5700238Y-12355476D01*
X5643095Y-12355476D01*
X5624048Y-12345952D01*
X5614524Y-12336428D01*
X5805000Y-12155476D02*
X5938333Y-12155476D01*
X5852619Y-12355476D01*
X6100238Y-12222143D02*
X6100238Y-12355476D01*
X6052619Y-12145952D02*
X6005000Y-12288809D01*
X6128809Y-12288809D01*
X6195476Y-12155476D02*
X6195476Y-12193571D01*
X6271667Y-12155476D02*
X6271667Y-12193571D01*
X6566905Y-12431667D02*
X6557381Y-12422143D01*
X6538333Y-12393571D01*
X6528809Y-12374524D01*
X6519286Y-12345952D01*
X6509762Y-12298333D01*
X6509762Y-12260238D01*
X6519286Y-12212619D01*
X6528809Y-12184048D01*
X6538333Y-12165000D01*
X6557381Y-12136428D01*
X6566905Y-12126905D01*
X6728809Y-12222143D02*
X6728809Y-12355476D01*
X6681190Y-12145952D02*
X6633571Y-12288809D01*
X6757381Y-12288809D01*
X6985952Y-12355476D02*
X6985952Y-12155476D01*
X7071667Y-12355476D02*
X7071667Y-12250714D01*
X7062143Y-12231667D01*
X7043095Y-12222143D01*
X7014524Y-12222143D01*
X6995476Y-12231667D01*
X6985952Y-12241190D01*
X7195476Y-12355476D02*
X7176428Y-12345952D01*
X7166905Y-12336428D01*
X7157381Y-12317381D01*
X7157381Y-12260238D01*
X7166905Y-12241190D01*
X7176428Y-12231667D01*
X7195476Y-12222143D01*
X7224048Y-12222143D01*
X7243095Y-12231667D01*
X7252619Y-12241190D01*
X7262143Y-12260238D01*
X7262143Y-12317381D01*
X7252619Y-12336428D01*
X7243095Y-12345952D01*
X7224048Y-12355476D01*
X7195476Y-12355476D01*
X7376428Y-12355476D02*
X7357381Y-12345952D01*
X7347857Y-12326905D01*
X7347857Y-12155476D01*
X7528809Y-12345952D02*
X7509762Y-12355476D01*
X7471667Y-12355476D01*
X7452619Y-12345952D01*
X7443095Y-12326905D01*
X7443095Y-12250714D01*
X7452619Y-12231667D01*
X7471667Y-12222143D01*
X7509762Y-12222143D01*
X7528809Y-12231667D01*
X7538333Y-12250714D01*
X7538333Y-12269762D01*
X7443095Y-12288809D01*
X7614524Y-12345952D02*
X7633571Y-12355476D01*
X7671667Y-12355476D01*
X7690714Y-12345952D01*
X7700238Y-12326905D01*
X7700238Y-12317381D01*
X7690714Y-12298333D01*
X7671667Y-12288809D01*
X7643095Y-12288809D01*
X7624048Y-12279286D01*
X7614524Y-12260238D01*
X7614524Y-12250714D01*
X7624048Y-12231667D01*
X7643095Y-12222143D01*
X7671667Y-12222143D01*
X7690714Y-12231667D01*
X7766905Y-12431667D02*
X7776428Y-12422143D01*
X7795476Y-12393571D01*
X7805000Y-12374524D01*
X7814524Y-12345952D01*
X7824048Y-12298333D01*
X7824048Y-12260238D01*
X7814524Y-12212619D01*
X7805000Y-12184048D01*
X7795476Y-12165000D01*
X7776428Y-12136428D01*
X7766905Y-12126905D01*
D10*
X2895000Y-12479000D02*
X2995000Y-12579000D01*
X2995000Y-12479000D02*
X2895000Y-12579000D01*
X2945000Y-12479000D02*
X2945000Y-12579000D01*
X2895000Y-12529000D02*
X2995000Y-12529000D01*
D11*
X3357381Y-12619476D02*
X3243095Y-12619476D01*
X3300238Y-12619476D02*
X3300238Y-12419476D01*
X3281190Y-12448048D01*
X3262143Y-12467095D01*
X3243095Y-12476619D01*
X3443095Y-12600428D02*
X3452619Y-12609952D01*
X3443095Y-12619476D01*
X3433571Y-12609952D01*
X3443095Y-12600428D01*
X3443095Y-12619476D01*
X3576428Y-12419476D02*
X3595476Y-12419476D01*
X3614524Y-12429000D01*
X3624048Y-12438524D01*
X3633571Y-12457571D01*
X3643095Y-12495667D01*
X3643095Y-12543286D01*
X3633571Y-12581381D01*
X3624048Y-12600428D01*
X3614524Y-12609952D01*
X3595476Y-12619476D01*
X3576428Y-12619476D01*
X3557381Y-12609952D01*
X3547857Y-12600428D01*
X3538333Y-12581381D01*
X3528809Y-12543286D01*
X3528809Y-12495667D01*
X3538333Y-12457571D01*
X3547857Y-12438524D01*
X3557381Y-12429000D01*
X3576428Y-12419476D01*
X3766905Y-12419476D02*
X3785952Y-12419476D01*
X3805000Y-12429000D01*
X3814524Y-12438524D01*
X3824048Y-12457571D01*
X3833571Y-12495667D01*
X3833571Y-12543286D01*
X3824048Y-12581381D01*
X3814524Y-12600428D01*
X3805000Y-12609952D01*
X3785952Y-12619476D01*
X3766905Y-12619476D01*
X3747857Y-12609952D01*
X3738333Y-12600428D01*
X3728809Y-12581381D01*
X3719286Y-12543286D01*
X3719286Y-12495667D01*
X3728809Y-12457571D01*
X3738333Y-12438524D01*
X3747857Y-12429000D01*
X3766905Y-12419476D01*
X3957381Y-12419476D02*
X3976428Y-12419476D01*
X3995476Y-12429000D01*
X4005000Y-12438524D01*
X4014524Y-12457571D01*
X4024048Y-12495667D01*
X4024048Y-12543286D01*
X4014524Y-12581381D01*
X4005000Y-12600428D01*
X3995476Y-12609952D01*
X3976428Y-12619476D01*
X3957381Y-12619476D01*
X3938333Y-12609952D01*
X3928809Y-12600428D01*
X3919286Y-12581381D01*
X3909762Y-12543286D01*
X3909762Y-12495667D01*
X3919286Y-12457571D01*
X3928809Y-12438524D01*
X3938333Y-12429000D01*
X3957381Y-12419476D01*
X4109762Y-12619476D02*
X4109762Y-12486143D01*
X4109762Y-12505190D02*
X4119286Y-12495667D01*
X4138333Y-12486143D01*
X4166905Y-12486143D01*
X4185952Y-12495667D01*
X4195476Y-12514714D01*
X4195476Y-12619476D01*
X4195476Y-12514714D02*
X4205000Y-12495667D01*
X4224048Y-12486143D01*
X4252619Y-12486143D01*
X4271667Y-12495667D01*
X4281190Y-12514714D01*
X4281190Y-12619476D01*
X4376429Y-12619476D02*
X4376429Y-12486143D01*
X4376429Y-12505190D02*
X4385952Y-12495667D01*
X4405000Y-12486143D01*
X4433571Y-12486143D01*
X4452619Y-12495667D01*
X4462143Y-12514714D01*
X4462143Y-12619476D01*
X4462143Y-12514714D02*
X4471667Y-12495667D01*
X4490714Y-12486143D01*
X4519286Y-12486143D01*
X4538333Y-12495667D01*
X4547857Y-12514714D01*
X4547857Y-12619476D01*
X4938333Y-12409952D02*
X4766905Y-12667095D01*
X5195476Y-12419476D02*
X5214524Y-12419476D01*
X5233571Y-12429000D01*
X5243095Y-12438524D01*
X5252619Y-12457571D01*
X5262143Y-12495667D01*
X5262143Y-12543286D01*
X5252619Y-12581381D01*
X5243095Y-12600428D01*
X5233571Y-12609952D01*
X5214524Y-12619476D01*
X5195476Y-12619476D01*
X5176429Y-12609952D01*
X5166905Y-12600428D01*
X5157381Y-12581381D01*
X5147857Y-12543286D01*
X5147857Y-12495667D01*
X5157381Y-12457571D01*
X5166905Y-12438524D01*
X5176429Y-12429000D01*
X5195476Y-12419476D01*
X5347857Y-12600428D02*
X5357381Y-12609952D01*
X5347857Y-12619476D01*
X5338333Y-12609952D01*
X5347857Y-12600428D01*
X5347857Y-12619476D01*
X5481190Y-12419476D02*
X5500238Y-12419476D01*
X5519286Y-12429000D01*
X5528810Y-12438524D01*
X5538333Y-12457571D01*
X5547857Y-12495667D01*
X5547857Y-12543286D01*
X5538333Y-12581381D01*
X5528810Y-12600428D01*
X5519286Y-12609952D01*
X5500238Y-12619476D01*
X5481190Y-12619476D01*
X5462143Y-12609952D01*
X5452619Y-12600428D01*
X5443095Y-12581381D01*
X5433571Y-12543286D01*
X5433571Y-12495667D01*
X5443095Y-12457571D01*
X5452619Y-12438524D01*
X5462143Y-12429000D01*
X5481190Y-12419476D01*
X5614524Y-12419476D02*
X5738333Y-12419476D01*
X5671667Y-12495667D01*
X5700238Y-12495667D01*
X5719286Y-12505190D01*
X5728809Y-12514714D01*
X5738333Y-12533762D01*
X5738333Y-12581381D01*
X5728809Y-12600428D01*
X5719286Y-12609952D01*
X5700238Y-12619476D01*
X5643095Y-12619476D01*
X5624048Y-12609952D01*
X5614524Y-12600428D01*
X5833571Y-12619476D02*
X5871667Y-12619476D01*
X5890714Y-12609952D01*
X5900238Y-12600428D01*
X5919286Y-12571857D01*
X5928809Y-12533762D01*
X5928809Y-12457571D01*
X5919286Y-12438524D01*
X5909762Y-12429000D01*
X5890714Y-12419476D01*
X5852619Y-12419476D01*
X5833571Y-12429000D01*
X5824048Y-12438524D01*
X5814524Y-12457571D01*
X5814524Y-12505190D01*
X5824048Y-12524238D01*
X5833571Y-12533762D01*
X5852619Y-12543286D01*
X5890714Y-12543286D01*
X5909762Y-12533762D01*
X5919286Y-12524238D01*
X5928809Y-12505190D01*
X6100238Y-12486143D02*
X6100238Y-12619476D01*
X6052619Y-12409952D02*
X6005000Y-12552809D01*
X6128809Y-12552809D01*
X6195476Y-12419476D02*
X6195476Y-12457571D01*
X6271667Y-12419476D02*
X6271667Y-12457571D01*
X6566905Y-12695667D02*
X6557381Y-12686143D01*
X6538333Y-12657571D01*
X6528809Y-12638524D01*
X6519286Y-12609952D01*
X6509762Y-12562333D01*
X6509762Y-12524238D01*
X6519286Y-12476619D01*
X6528809Y-12448048D01*
X6538333Y-12429000D01*
X6557381Y-12400428D01*
X6566905Y-12390905D01*
X6747857Y-12619476D02*
X6633571Y-12619476D01*
X6690714Y-12619476D02*
X6690714Y-12419476D01*
X6671667Y-12448048D01*
X6652619Y-12467095D01*
X6633571Y-12476619D01*
X6824048Y-12438524D02*
X6833571Y-12429000D01*
X6852619Y-12419476D01*
X6900238Y-12419476D01*
X6919286Y-12429000D01*
X6928809Y-12438524D01*
X6938333Y-12457571D01*
X6938333Y-12476619D01*
X6928809Y-12505190D01*
X6814524Y-12619476D01*
X6938333Y-12619476D01*
X7176428Y-12619476D02*
X7176428Y-12419476D01*
X7262143Y-12619476D02*
X7262143Y-12514714D01*
X7252619Y-12495667D01*
X7233571Y-12486143D01*
X7205000Y-12486143D01*
X7185952Y-12495667D01*
X7176428Y-12505190D01*
X7385952Y-12619476D02*
X7366905Y-12609952D01*
X7357381Y-12600428D01*
X7347857Y-12581381D01*
X7347857Y-12524238D01*
X7357381Y-12505190D01*
X7366905Y-12495667D01*
X7385952Y-12486143D01*
X7414524Y-12486143D01*
X7433571Y-12495667D01*
X7443095Y-12505190D01*
X7452619Y-12524238D01*
X7452619Y-12581381D01*
X7443095Y-12600428D01*
X7433571Y-12609952D01*
X7414524Y-12619476D01*
X7385952Y-12619476D01*
X7566905Y-12619476D02*
X7547857Y-12609952D01*
X7538333Y-12590905D01*
X7538333Y-12419476D01*
X7719286Y-12609952D02*
X7700238Y-12619476D01*
X7662143Y-12619476D01*
X7643095Y-12609952D01*
X7633571Y-12590905D01*
X7633571Y-12514714D01*
X7643095Y-12495667D01*
X7662143Y-12486143D01*
X7700238Y-12486143D01*
X7719286Y-12495667D01*
X7728809Y-12514714D01*
X7728809Y-12533762D01*
X7633571Y-12552809D01*
X7805000Y-12609952D02*
X7824048Y-12619476D01*
X7862143Y-12619476D01*
X7881190Y-12609952D01*
X7890714Y-12590905D01*
X7890714Y-12581381D01*
X7881190Y-12562333D01*
X7862143Y-12552809D01*
X7833571Y-12552809D01*
X7814524Y-12543286D01*
X7805000Y-12524238D01*
X7805000Y-12514714D01*
X7814524Y-12495667D01*
X7833571Y-12486143D01*
X7862143Y-12486143D01*
X7881190Y-12495667D01*
X7957381Y-12695667D02*
X7966905Y-12686143D01*
X7985952Y-12657571D01*
X7995476Y-12638524D01*
X8005000Y-12609952D01*
X8014524Y-12562333D01*
X8014524Y-12524238D01*
X8005000Y-12476619D01*
X7995476Y-12448048D01*
X7985952Y-12429000D01*
X7966905Y-12400428D01*
X7957381Y-12390905D01*
D18*
X2885000Y-12738000D02*
X2995000Y-12848000D01*
X2995000Y-12738000D02*
X2885000Y-12848000D01*
X2978891Y-12831891D02*
X2978891Y-12754109D01*
X2901109Y-12754109D01*
X2901109Y-12831891D01*
X2978891Y-12831891D01*
D11*
X3357381Y-12883476D02*
X3243095Y-12883476D01*
X3300238Y-12883476D02*
X3300238Y-12683476D01*
X3281190Y-12712048D01*
X3262143Y-12731095D01*
X3243095Y-12740619D01*
X3443095Y-12864428D02*
X3452619Y-12873952D01*
X3443095Y-12883476D01*
X3433571Y-12873952D01*
X3443095Y-12864428D01*
X3443095Y-12883476D01*
X3643095Y-12883476D02*
X3528809Y-12883476D01*
X3585952Y-12883476D02*
X3585952Y-12683476D01*
X3566905Y-12712048D01*
X3547857Y-12731095D01*
X3528809Y-12740619D01*
X3766905Y-12683476D02*
X3785952Y-12683476D01*
X3805000Y-12693000D01*
X3814524Y-12702524D01*
X3824048Y-12721571D01*
X3833571Y-12759667D01*
X3833571Y-12807286D01*
X3824048Y-12845381D01*
X3814524Y-12864428D01*
X3805000Y-12873952D01*
X3785952Y-12883476D01*
X3766905Y-12883476D01*
X3747857Y-12873952D01*
X3738333Y-12864428D01*
X3728809Y-12845381D01*
X3719286Y-12807286D01*
X3719286Y-12759667D01*
X3728809Y-12721571D01*
X3738333Y-12702524D01*
X3747857Y-12693000D01*
X3766905Y-12683476D01*
X3957381Y-12683476D02*
X3976428Y-12683476D01*
X3995476Y-12693000D01*
X4005000Y-12702524D01*
X4014524Y-12721571D01*
X4024048Y-12759667D01*
X4024048Y-12807286D01*
X4014524Y-12845381D01*
X4005000Y-12864428D01*
X3995476Y-12873952D01*
X3976428Y-12883476D01*
X3957381Y-12883476D01*
X3938333Y-12873952D01*
X3928809Y-12864428D01*
X3919286Y-12845381D01*
X3909762Y-12807286D01*
X3909762Y-12759667D01*
X3919286Y-12721571D01*
X3928809Y-12702524D01*
X3938333Y-12693000D01*
X3957381Y-12683476D01*
X4109762Y-12883476D02*
X4109762Y-12750143D01*
X4109762Y-12769190D02*
X4119286Y-12759667D01*
X4138333Y-12750143D01*
X4166905Y-12750143D01*
X4185952Y-12759667D01*
X4195476Y-12778714D01*
X4195476Y-12883476D01*
X4195476Y-12778714D02*
X4205000Y-12759667D01*
X4224048Y-12750143D01*
X4252619Y-12750143D01*
X4271667Y-12759667D01*
X4281190Y-12778714D01*
X4281190Y-12883476D01*
X4376429Y-12883476D02*
X4376429Y-12750143D01*
X4376429Y-12769190D02*
X4385952Y-12759667D01*
X4405000Y-12750143D01*
X4433571Y-12750143D01*
X4452619Y-12759667D01*
X4462143Y-12778714D01*
X4462143Y-12883476D01*
X4462143Y-12778714D02*
X4471667Y-12759667D01*
X4490714Y-12750143D01*
X4519286Y-12750143D01*
X4538333Y-12759667D01*
X4547857Y-12778714D01*
X4547857Y-12883476D01*
X4938333Y-12673952D02*
X4766905Y-12931095D01*
X5195476Y-12683476D02*
X5214524Y-12683476D01*
X5233571Y-12693000D01*
X5243095Y-12702524D01*
X5252619Y-12721571D01*
X5262143Y-12759667D01*
X5262143Y-12807286D01*
X5252619Y-12845381D01*
X5243095Y-12864428D01*
X5233571Y-12873952D01*
X5214524Y-12883476D01*
X5195476Y-12883476D01*
X5176429Y-12873952D01*
X5166905Y-12864428D01*
X5157381Y-12845381D01*
X5147857Y-12807286D01*
X5147857Y-12759667D01*
X5157381Y-12721571D01*
X5166905Y-12702524D01*
X5176429Y-12693000D01*
X5195476Y-12683476D01*
X5347857Y-12864428D02*
X5357381Y-12873952D01*
X5347857Y-12883476D01*
X5338333Y-12873952D01*
X5347857Y-12864428D01*
X5347857Y-12883476D01*
X5481190Y-12683476D02*
X5500238Y-12683476D01*
X5519286Y-12693000D01*
X5528810Y-12702524D01*
X5538333Y-12721571D01*
X5547857Y-12759667D01*
X5547857Y-12807286D01*
X5538333Y-12845381D01*
X5528810Y-12864428D01*
X5519286Y-12873952D01*
X5500238Y-12883476D01*
X5481190Y-12883476D01*
X5462143Y-12873952D01*
X5452619Y-12864428D01*
X5443095Y-12845381D01*
X5433571Y-12807286D01*
X5433571Y-12759667D01*
X5443095Y-12721571D01*
X5452619Y-12702524D01*
X5462143Y-12693000D01*
X5481190Y-12683476D01*
X5719286Y-12750143D02*
X5719286Y-12883476D01*
X5671667Y-12673952D02*
X5624048Y-12816809D01*
X5747857Y-12816809D01*
X5805000Y-12683476D02*
X5928809Y-12683476D01*
X5862143Y-12759667D01*
X5890714Y-12759667D01*
X5909762Y-12769190D01*
X5919286Y-12778714D01*
X5928809Y-12797762D01*
X5928809Y-12845381D01*
X5919286Y-12864428D01*
X5909762Y-12873952D01*
X5890714Y-12883476D01*
X5833571Y-12883476D01*
X5814524Y-12873952D01*
X5805000Y-12864428D01*
X5995476Y-12683476D02*
X6119286Y-12683476D01*
X6052619Y-12759667D01*
X6081190Y-12759667D01*
X6100238Y-12769190D01*
X6109762Y-12778714D01*
X6119286Y-12797762D01*
X6119286Y-12845381D01*
X6109762Y-12864428D01*
X6100238Y-12873952D01*
X6081190Y-12883476D01*
X6024048Y-12883476D01*
X6005000Y-12873952D01*
X5995476Y-12864428D01*
X6195476Y-12683476D02*
X6195476Y-12721571D01*
X6271667Y-12683476D02*
X6271667Y-12721571D01*
X6566905Y-12959667D02*
X6557381Y-12950143D01*
X6538333Y-12921571D01*
X6528809Y-12902524D01*
X6519286Y-12873952D01*
X6509762Y-12826333D01*
X6509762Y-12788238D01*
X6519286Y-12740619D01*
X6528809Y-12712048D01*
X6538333Y-12693000D01*
X6557381Y-12664428D01*
X6566905Y-12654905D01*
X6728809Y-12683476D02*
X6690714Y-12683476D01*
X6671667Y-12693000D01*
X6662143Y-12702524D01*
X6643095Y-12731095D01*
X6633571Y-12769190D01*
X6633571Y-12845381D01*
X6643095Y-12864428D01*
X6652619Y-12873952D01*
X6671667Y-12883476D01*
X6709762Y-12883476D01*
X6728809Y-12873952D01*
X6738333Y-12864428D01*
X6747857Y-12845381D01*
X6747857Y-12797762D01*
X6738333Y-12778714D01*
X6728809Y-12769190D01*
X6709762Y-12759667D01*
X6671667Y-12759667D01*
X6652619Y-12769190D01*
X6643095Y-12778714D01*
X6633571Y-12797762D01*
X6985952Y-12883476D02*
X6985952Y-12683476D01*
X7071667Y-12883476D02*
X7071667Y-12778714D01*
X7062143Y-12759667D01*
X7043095Y-12750143D01*
X7014524Y-12750143D01*
X6995476Y-12759667D01*
X6985952Y-12769190D01*
X7195476Y-12883476D02*
X7176428Y-12873952D01*
X7166905Y-12864428D01*
X7157381Y-12845381D01*
X7157381Y-12788238D01*
X7166905Y-12769190D01*
X7176428Y-12759667D01*
X7195476Y-12750143D01*
X7224048Y-12750143D01*
X7243095Y-12759667D01*
X7252619Y-12769190D01*
X7262143Y-12788238D01*
X7262143Y-12845381D01*
X7252619Y-12864428D01*
X7243095Y-12873952D01*
X7224048Y-12883476D01*
X7195476Y-12883476D01*
X7376428Y-12883476D02*
X7357381Y-12873952D01*
X7347857Y-12854905D01*
X7347857Y-12683476D01*
X7528809Y-12873952D02*
X7509762Y-12883476D01*
X7471667Y-12883476D01*
X7452619Y-12873952D01*
X7443095Y-12854905D01*
X7443095Y-12778714D01*
X7452619Y-12759667D01*
X7471667Y-12750143D01*
X7509762Y-12750143D01*
X7528809Y-12759667D01*
X7538333Y-12778714D01*
X7538333Y-12797762D01*
X7443095Y-12816809D01*
X7614524Y-12873952D02*
X7633571Y-12883476D01*
X7671667Y-12883476D01*
X7690714Y-12873952D01*
X7700238Y-12854905D01*
X7700238Y-12845381D01*
X7690714Y-12826333D01*
X7671667Y-12816809D01*
X7643095Y-12816809D01*
X7624048Y-12807286D01*
X7614524Y-12788238D01*
X7614524Y-12778714D01*
X7624048Y-12759667D01*
X7643095Y-12750143D01*
X7671667Y-12750143D01*
X7690714Y-12759667D01*
X7766905Y-12959667D02*
X7776428Y-12950143D01*
X7795476Y-12921571D01*
X7805000Y-12902524D01*
X7814524Y-12873952D01*
X7824048Y-12826333D01*
X7824048Y-12788238D01*
X7814524Y-12740619D01*
X7805000Y-12712048D01*
X7795476Y-12693000D01*
X7776428Y-12664428D01*
X7766905Y-12654905D01*
D19*
X2875000Y-12997000D02*
X2995000Y-13117000D01*
X2995000Y-12997000D02*
X2875000Y-13117000D01*
X2935000Y-13117000D02*
X2995000Y-13057000D01*
X2935000Y-12997000D01*
X2875000Y-13057000D01*
X2935000Y-13117000D01*
D11*
X3357381Y-13147476D02*
X3243095Y-13147476D01*
X3300238Y-13147476D02*
X3300238Y-12947476D01*
X3281190Y-12976048D01*
X3262143Y-12995095D01*
X3243095Y-13004619D01*
X3443095Y-13128428D02*
X3452619Y-13137952D01*
X3443095Y-13147476D01*
X3433571Y-13137952D01*
X3443095Y-13128428D01*
X3443095Y-13147476D01*
X3528809Y-12966524D02*
X3538333Y-12957000D01*
X3557381Y-12947476D01*
X3605000Y-12947476D01*
X3624048Y-12957000D01*
X3633571Y-12966524D01*
X3643095Y-12985571D01*
X3643095Y-13004619D01*
X3633571Y-13033190D01*
X3519286Y-13147476D01*
X3643095Y-13147476D01*
X3766905Y-12947476D02*
X3785952Y-12947476D01*
X3805000Y-12957000D01*
X3814524Y-12966524D01*
X3824048Y-12985571D01*
X3833571Y-13023667D01*
X3833571Y-13071286D01*
X3824048Y-13109381D01*
X3814524Y-13128428D01*
X3805000Y-13137952D01*
X3785952Y-13147476D01*
X3766905Y-13147476D01*
X3747857Y-13137952D01*
X3738333Y-13128428D01*
X3728809Y-13109381D01*
X3719286Y-13071286D01*
X3719286Y-13023667D01*
X3728809Y-12985571D01*
X3738333Y-12966524D01*
X3747857Y-12957000D01*
X3766905Y-12947476D01*
X3957381Y-12947476D02*
X3976428Y-12947476D01*
X3995476Y-12957000D01*
X4005000Y-12966524D01*
X4014524Y-12985571D01*
X4024048Y-13023667D01*
X4024048Y-13071286D01*
X4014524Y-13109381D01*
X4005000Y-13128428D01*
X3995476Y-13137952D01*
X3976428Y-13147476D01*
X3957381Y-13147476D01*
X3938333Y-13137952D01*
X3928809Y-13128428D01*
X3919286Y-13109381D01*
X3909762Y-13071286D01*
X3909762Y-13023667D01*
X3919286Y-12985571D01*
X3928809Y-12966524D01*
X3938333Y-12957000D01*
X3957381Y-12947476D01*
X4109762Y-13147476D02*
X4109762Y-13014143D01*
X4109762Y-13033190D02*
X4119286Y-13023667D01*
X4138333Y-13014143D01*
X4166905Y-13014143D01*
X4185952Y-13023667D01*
X4195476Y-13042714D01*
X4195476Y-13147476D01*
X4195476Y-13042714D02*
X4205000Y-13023667D01*
X4224048Y-13014143D01*
X4252619Y-13014143D01*
X4271667Y-13023667D01*
X4281190Y-13042714D01*
X4281190Y-13147476D01*
X4376429Y-13147476D02*
X4376429Y-13014143D01*
X4376429Y-13033190D02*
X4385952Y-13023667D01*
X4405000Y-13014143D01*
X4433571Y-13014143D01*
X4452619Y-13023667D01*
X4462143Y-13042714D01*
X4462143Y-13147476D01*
X4462143Y-13042714D02*
X4471667Y-13023667D01*
X4490714Y-13014143D01*
X4519286Y-13014143D01*
X4538333Y-13023667D01*
X4547857Y-13042714D01*
X4547857Y-13147476D01*
X4938333Y-12937952D02*
X4766905Y-13195095D01*
X5195476Y-12947476D02*
X5214524Y-12947476D01*
X5233571Y-12957000D01*
X5243095Y-12966524D01*
X5252619Y-12985571D01*
X5262143Y-13023667D01*
X5262143Y-13071286D01*
X5252619Y-13109381D01*
X5243095Y-13128428D01*
X5233571Y-13137952D01*
X5214524Y-13147476D01*
X5195476Y-13147476D01*
X5176429Y-13137952D01*
X5166905Y-13128428D01*
X5157381Y-13109381D01*
X5147857Y-13071286D01*
X5147857Y-13023667D01*
X5157381Y-12985571D01*
X5166905Y-12966524D01*
X5176429Y-12957000D01*
X5195476Y-12947476D01*
X5347857Y-13128428D02*
X5357381Y-13137952D01*
X5347857Y-13147476D01*
X5338333Y-13137952D01*
X5347857Y-13128428D01*
X5347857Y-13147476D01*
X5481190Y-12947476D02*
X5500238Y-12947476D01*
X5519286Y-12957000D01*
X5528810Y-12966524D01*
X5538333Y-12985571D01*
X5547857Y-13023667D01*
X5547857Y-13071286D01*
X5538333Y-13109381D01*
X5528810Y-13128428D01*
X5519286Y-13137952D01*
X5500238Y-13147476D01*
X5481190Y-13147476D01*
X5462143Y-13137952D01*
X5452619Y-13128428D01*
X5443095Y-13109381D01*
X5433571Y-13071286D01*
X5433571Y-13023667D01*
X5443095Y-12985571D01*
X5452619Y-12966524D01*
X5462143Y-12957000D01*
X5481190Y-12947476D01*
X5719286Y-13014143D02*
X5719286Y-13147476D01*
X5671667Y-12937952D02*
X5624048Y-13080809D01*
X5747857Y-13080809D01*
X5805000Y-12947476D02*
X5938333Y-12947476D01*
X5852619Y-13147476D01*
X6005000Y-12966524D02*
X6014524Y-12957000D01*
X6033571Y-12947476D01*
X6081190Y-12947476D01*
X6100238Y-12957000D01*
X6109762Y-12966524D01*
X6119286Y-12985571D01*
X6119286Y-13004619D01*
X6109762Y-13033190D01*
X5995476Y-13147476D01*
X6119286Y-13147476D01*
X6195476Y-12947476D02*
X6195476Y-12985571D01*
X6271667Y-12947476D02*
X6271667Y-12985571D01*
X6566905Y-13223667D02*
X6557381Y-13214143D01*
X6538333Y-13185571D01*
X6528809Y-13166524D01*
X6519286Y-13137952D01*
X6509762Y-13090333D01*
X6509762Y-13052238D01*
X6519286Y-13004619D01*
X6528809Y-12976048D01*
X6538333Y-12957000D01*
X6557381Y-12928428D01*
X6566905Y-12918905D01*
X6624048Y-12947476D02*
X6747857Y-12947476D01*
X6681190Y-13023667D01*
X6709762Y-13023667D01*
X6728809Y-13033190D01*
X6738333Y-13042714D01*
X6747857Y-13061762D01*
X6747857Y-13109381D01*
X6738333Y-13128428D01*
X6728809Y-13137952D01*
X6709762Y-13147476D01*
X6652619Y-13147476D01*
X6633571Y-13137952D01*
X6624048Y-13128428D01*
X6985952Y-13147476D02*
X6985952Y-12947476D01*
X7071667Y-13147476D02*
X7071667Y-13042714D01*
X7062143Y-13023667D01*
X7043095Y-13014143D01*
X7014524Y-13014143D01*
X6995476Y-13023667D01*
X6985952Y-13033190D01*
X7195476Y-13147476D02*
X7176428Y-13137952D01*
X7166905Y-13128428D01*
X7157381Y-13109381D01*
X7157381Y-13052238D01*
X7166905Y-13033190D01*
X7176428Y-13023667D01*
X7195476Y-13014143D01*
X7224048Y-13014143D01*
X7243095Y-13023667D01*
X7252619Y-13033190D01*
X7262143Y-13052238D01*
X7262143Y-13109381D01*
X7252619Y-13128428D01*
X7243095Y-13137952D01*
X7224048Y-13147476D01*
X7195476Y-13147476D01*
X7376428Y-13147476D02*
X7357381Y-13137952D01*
X7347857Y-13118905D01*
X7347857Y-12947476D01*
X7528809Y-13137952D02*
X7509762Y-13147476D01*
X7471667Y-13147476D01*
X7452619Y-13137952D01*
X7443095Y-13118905D01*
X7443095Y-13042714D01*
X7452619Y-13023667D01*
X7471667Y-13014143D01*
X7509762Y-13014143D01*
X7528809Y-13023667D01*
X7538333Y-13042714D01*
X7538333Y-13061762D01*
X7443095Y-13080809D01*
X7614524Y-13137952D02*
X7633571Y-13147476D01*
X7671667Y-13147476D01*
X7690714Y-13137952D01*
X7700238Y-13118905D01*
X7700238Y-13109381D01*
X7690714Y-13090333D01*
X7671667Y-13080809D01*
X7643095Y-13080809D01*
X7624048Y-13071286D01*
X7614524Y-13052238D01*
X7614524Y-13042714D01*
X7624048Y-13023667D01*
X7643095Y-13014143D01*
X7671667Y-13014143D01*
X7690714Y-13023667D01*
X7766905Y-13223667D02*
X7776428Y-13214143D01*
X7795476Y-13185571D01*
X7805000Y-13166524D01*
X7814524Y-13137952D01*
X7824048Y-13090333D01*
X7824048Y-13052238D01*
X7814524Y-13004619D01*
X7805000Y-12976048D01*
X7795476Y-12957000D01*
X7776428Y-12928428D01*
X7766905Y-12918905D01*
D20*
X2915000Y-13241000D02*
X2915000Y-13401000D01*
X2835000Y-13321000D02*
X2995000Y-13321000D01*
X2995000Y-13321000D02*
G75*
G03*
X2995000Y-13321000I-80000J0D01*
G01*
D11*
X3357381Y-13411476D02*
X3243095Y-13411476D01*
X3300238Y-13411476D02*
X3300238Y-13211476D01*
X3281190Y-13240048D01*
X3262143Y-13259095D01*
X3243095Y-13268619D01*
X3443095Y-13392428D02*
X3452619Y-13401952D01*
X3443095Y-13411476D01*
X3433571Y-13401952D01*
X3443095Y-13392428D01*
X3443095Y-13411476D01*
X3624048Y-13211476D02*
X3585952Y-13211476D01*
X3566905Y-13221000D01*
X3557381Y-13230524D01*
X3538333Y-13259095D01*
X3528809Y-13297190D01*
X3528809Y-13373381D01*
X3538333Y-13392428D01*
X3547857Y-13401952D01*
X3566905Y-13411476D01*
X3605000Y-13411476D01*
X3624048Y-13401952D01*
X3633571Y-13392428D01*
X3643095Y-13373381D01*
X3643095Y-13325762D01*
X3633571Y-13306714D01*
X3624048Y-13297190D01*
X3605000Y-13287667D01*
X3566905Y-13287667D01*
X3547857Y-13297190D01*
X3538333Y-13306714D01*
X3528809Y-13325762D01*
X3766905Y-13211476D02*
X3785952Y-13211476D01*
X3805000Y-13221000D01*
X3814524Y-13230524D01*
X3824048Y-13249571D01*
X3833571Y-13287667D01*
X3833571Y-13335286D01*
X3824048Y-13373381D01*
X3814524Y-13392428D01*
X3805000Y-13401952D01*
X3785952Y-13411476D01*
X3766905Y-13411476D01*
X3747857Y-13401952D01*
X3738333Y-13392428D01*
X3728809Y-13373381D01*
X3719286Y-13335286D01*
X3719286Y-13287667D01*
X3728809Y-13249571D01*
X3738333Y-13230524D01*
X3747857Y-13221000D01*
X3766905Y-13211476D01*
X3957381Y-13211476D02*
X3976428Y-13211476D01*
X3995476Y-13221000D01*
X4005000Y-13230524D01*
X4014524Y-13249571D01*
X4024048Y-13287667D01*
X4024048Y-13335286D01*
X4014524Y-13373381D01*
X4005000Y-13392428D01*
X3995476Y-13401952D01*
X3976428Y-13411476D01*
X3957381Y-13411476D01*
X3938333Y-13401952D01*
X3928809Y-13392428D01*
X3919286Y-13373381D01*
X3909762Y-13335286D01*
X3909762Y-13287667D01*
X3919286Y-13249571D01*
X3928809Y-13230524D01*
X3938333Y-13221000D01*
X3957381Y-13211476D01*
X4109762Y-13411476D02*
X4109762Y-13278143D01*
X4109762Y-13297190D02*
X4119286Y-13287667D01*
X4138333Y-13278143D01*
X4166905Y-13278143D01*
X4185952Y-13287667D01*
X4195476Y-13306714D01*
X4195476Y-13411476D01*
X4195476Y-13306714D02*
X4205000Y-13287667D01*
X4224048Y-13278143D01*
X4252619Y-13278143D01*
X4271667Y-13287667D01*
X4281190Y-13306714D01*
X4281190Y-13411476D01*
X4376429Y-13411476D02*
X4376429Y-13278143D01*
X4376429Y-13297190D02*
X4385952Y-13287667D01*
X4405000Y-13278143D01*
X4433571Y-13278143D01*
X4452619Y-13287667D01*
X4462143Y-13306714D01*
X4462143Y-13411476D01*
X4462143Y-13306714D02*
X4471667Y-13287667D01*
X4490714Y-13278143D01*
X4519286Y-13278143D01*
X4538333Y-13287667D01*
X4547857Y-13306714D01*
X4547857Y-13411476D01*
X4938333Y-13201952D02*
X4766905Y-13459095D01*
X5195476Y-13211476D02*
X5214524Y-13211476D01*
X5233571Y-13221000D01*
X5243095Y-13230524D01*
X5252619Y-13249571D01*
X5262143Y-13287667D01*
X5262143Y-13335286D01*
X5252619Y-13373381D01*
X5243095Y-13392428D01*
X5233571Y-13401952D01*
X5214524Y-13411476D01*
X5195476Y-13411476D01*
X5176429Y-13401952D01*
X5166905Y-13392428D01*
X5157381Y-13373381D01*
X5147857Y-13335286D01*
X5147857Y-13287667D01*
X5157381Y-13249571D01*
X5166905Y-13230524D01*
X5176429Y-13221000D01*
X5195476Y-13211476D01*
X5347857Y-13392428D02*
X5357381Y-13401952D01*
X5347857Y-13411476D01*
X5338333Y-13401952D01*
X5347857Y-13392428D01*
X5347857Y-13411476D01*
X5481190Y-13211476D02*
X5500238Y-13211476D01*
X5519286Y-13221000D01*
X5528810Y-13230524D01*
X5538333Y-13249571D01*
X5547857Y-13287667D01*
X5547857Y-13335286D01*
X5538333Y-13373381D01*
X5528810Y-13392428D01*
X5519286Y-13401952D01*
X5500238Y-13411476D01*
X5481190Y-13411476D01*
X5462143Y-13401952D01*
X5452619Y-13392428D01*
X5443095Y-13373381D01*
X5433571Y-13335286D01*
X5433571Y-13287667D01*
X5443095Y-13249571D01*
X5452619Y-13230524D01*
X5462143Y-13221000D01*
X5481190Y-13211476D01*
X5719286Y-13211476D02*
X5681190Y-13211476D01*
X5662143Y-13221000D01*
X5652619Y-13230524D01*
X5633571Y-13259095D01*
X5624048Y-13297190D01*
X5624048Y-13373381D01*
X5633571Y-13392428D01*
X5643095Y-13401952D01*
X5662143Y-13411476D01*
X5700238Y-13411476D01*
X5719286Y-13401952D01*
X5728809Y-13392428D01*
X5738333Y-13373381D01*
X5738333Y-13325762D01*
X5728809Y-13306714D01*
X5719286Y-13297190D01*
X5700238Y-13287667D01*
X5662143Y-13287667D01*
X5643095Y-13297190D01*
X5633571Y-13306714D01*
X5624048Y-13325762D01*
X5805000Y-13211476D02*
X5928809Y-13211476D01*
X5862143Y-13287667D01*
X5890714Y-13287667D01*
X5909762Y-13297190D01*
X5919286Y-13306714D01*
X5928809Y-13325762D01*
X5928809Y-13373381D01*
X5919286Y-13392428D01*
X5909762Y-13401952D01*
X5890714Y-13411476D01*
X5833571Y-13411476D01*
X5814524Y-13401952D01*
X5805000Y-13392428D01*
X6052619Y-13211476D02*
X6071667Y-13211476D01*
X6090714Y-13221000D01*
X6100238Y-13230524D01*
X6109762Y-13249571D01*
X6119286Y-13287667D01*
X6119286Y-13335286D01*
X6109762Y-13373381D01*
X6100238Y-13392428D01*
X6090714Y-13401952D01*
X6071667Y-13411476D01*
X6052619Y-13411476D01*
X6033571Y-13401952D01*
X6024048Y-13392428D01*
X6014524Y-13373381D01*
X6005000Y-13335286D01*
X6005000Y-13287667D01*
X6014524Y-13249571D01*
X6024048Y-13230524D01*
X6033571Y-13221000D01*
X6052619Y-13211476D01*
X6195476Y-13211476D02*
X6195476Y-13249571D01*
X6271667Y-13211476D02*
X6271667Y-13249571D01*
X6566905Y-13487667D02*
X6557381Y-13478143D01*
X6538333Y-13449571D01*
X6528809Y-13430524D01*
X6519286Y-13401952D01*
X6509762Y-13354333D01*
X6509762Y-13316238D01*
X6519286Y-13268619D01*
X6528809Y-13240048D01*
X6538333Y-13221000D01*
X6557381Y-13192428D01*
X6566905Y-13182905D01*
X6728809Y-13278143D02*
X6728809Y-13411476D01*
X6681190Y-13201952D02*
X6633571Y-13344809D01*
X6757381Y-13344809D01*
X6985952Y-13411476D02*
X6985952Y-13211476D01*
X7071667Y-13411476D02*
X7071667Y-13306714D01*
X7062143Y-13287667D01*
X7043095Y-13278143D01*
X7014524Y-13278143D01*
X6995476Y-13287667D01*
X6985952Y-13297190D01*
X7195476Y-13411476D02*
X7176428Y-13401952D01*
X7166905Y-13392428D01*
X7157381Y-13373381D01*
X7157381Y-13316238D01*
X7166905Y-13297190D01*
X7176428Y-13287667D01*
X7195476Y-13278143D01*
X7224048Y-13278143D01*
X7243095Y-13287667D01*
X7252619Y-13297190D01*
X7262143Y-13316238D01*
X7262143Y-13373381D01*
X7252619Y-13392428D01*
X7243095Y-13401952D01*
X7224048Y-13411476D01*
X7195476Y-13411476D01*
X7376428Y-13411476D02*
X7357381Y-13401952D01*
X7347857Y-13382905D01*
X7347857Y-13211476D01*
X7528809Y-13401952D02*
X7509762Y-13411476D01*
X7471667Y-13411476D01*
X7452619Y-13401952D01*
X7443095Y-13382905D01*
X7443095Y-13306714D01*
X7452619Y-13287667D01*
X7471667Y-13278143D01*
X7509762Y-13278143D01*
X7528809Y-13287667D01*
X7538333Y-13306714D01*
X7538333Y-13325762D01*
X7443095Y-13344809D01*
X7614524Y-13401952D02*
X7633571Y-13411476D01*
X7671667Y-13411476D01*
X7690714Y-13401952D01*
X7700238Y-13382905D01*
X7700238Y-13373381D01*
X7690714Y-13354333D01*
X7671667Y-13344809D01*
X7643095Y-13344809D01*
X7624048Y-13335286D01*
X7614524Y-13316238D01*
X7614524Y-13306714D01*
X7624048Y-13287667D01*
X7643095Y-13278143D01*
X7671667Y-13278143D01*
X7690714Y-13287667D01*
X7766905Y-13487667D02*
X7776428Y-13478143D01*
X7795476Y-13449571D01*
X7805000Y-13430524D01*
X7814524Y-13401952D01*
X7824048Y-13354333D01*
X7824048Y-13316238D01*
X7814524Y-13268619D01*
X7805000Y-13240048D01*
X7795476Y-13221000D01*
X7776428Y-13192428D01*
X7766905Y-13182905D01*
D21*
X2970105Y-13661105D02*
X2970105Y-13540895D01*
X2849895Y-13540895D01*
X2849895Y-13661105D01*
X2970105Y-13661105D01*
X2995000Y-13601000D02*
G75*
G03*
X2995000Y-13601000I-85000J0D01*
G01*
D11*
X3357381Y-13691476D02*
X3243095Y-13691476D01*
X3300238Y-13691476D02*
X3300238Y-13491476D01*
X3281190Y-13520048D01*
X3262143Y-13539095D01*
X3243095Y-13548619D01*
X3443095Y-13672428D02*
X3452619Y-13681952D01*
X3443095Y-13691476D01*
X3433571Y-13681952D01*
X3443095Y-13672428D01*
X3443095Y-13691476D01*
X3519286Y-13491476D02*
X3652619Y-13491476D01*
X3566905Y-13691476D01*
X3766905Y-13491476D02*
X3785952Y-13491476D01*
X3805000Y-13501000D01*
X3814524Y-13510524D01*
X3824048Y-13529571D01*
X3833571Y-13567667D01*
X3833571Y-13615286D01*
X3824048Y-13653381D01*
X3814524Y-13672428D01*
X3805000Y-13681952D01*
X3785952Y-13691476D01*
X3766905Y-13691476D01*
X3747857Y-13681952D01*
X3738333Y-13672428D01*
X3728809Y-13653381D01*
X3719286Y-13615286D01*
X3719286Y-13567667D01*
X3728809Y-13529571D01*
X3738333Y-13510524D01*
X3747857Y-13501000D01*
X3766905Y-13491476D01*
X3957381Y-13491476D02*
X3976428Y-13491476D01*
X3995476Y-13501000D01*
X4005000Y-13510524D01*
X4014524Y-13529571D01*
X4024048Y-13567667D01*
X4024048Y-13615286D01*
X4014524Y-13653381D01*
X4005000Y-13672428D01*
X3995476Y-13681952D01*
X3976428Y-13691476D01*
X3957381Y-13691476D01*
X3938333Y-13681952D01*
X3928809Y-13672428D01*
X3919286Y-13653381D01*
X3909762Y-13615286D01*
X3909762Y-13567667D01*
X3919286Y-13529571D01*
X3928809Y-13510524D01*
X3938333Y-13501000D01*
X3957381Y-13491476D01*
X4109762Y-13691476D02*
X4109762Y-13558143D01*
X4109762Y-13577190D02*
X4119286Y-13567667D01*
X4138333Y-13558143D01*
X4166905Y-13558143D01*
X4185952Y-13567667D01*
X4195476Y-13586714D01*
X4195476Y-13691476D01*
X4195476Y-13586714D02*
X4205000Y-13567667D01*
X4224048Y-13558143D01*
X4252619Y-13558143D01*
X4271667Y-13567667D01*
X4281190Y-13586714D01*
X4281190Y-13691476D01*
X4376429Y-13691476D02*
X4376429Y-13558143D01*
X4376429Y-13577190D02*
X4385952Y-13567667D01*
X4405000Y-13558143D01*
X4433571Y-13558143D01*
X4452619Y-13567667D01*
X4462143Y-13586714D01*
X4462143Y-13691476D01*
X4462143Y-13586714D02*
X4471667Y-13567667D01*
X4490714Y-13558143D01*
X4519286Y-13558143D01*
X4538333Y-13567667D01*
X4547857Y-13586714D01*
X4547857Y-13691476D01*
X4938333Y-13481952D02*
X4766905Y-13739095D01*
X5195476Y-13491476D02*
X5214524Y-13491476D01*
X5233571Y-13501000D01*
X5243095Y-13510524D01*
X5252619Y-13529571D01*
X5262143Y-13567667D01*
X5262143Y-13615286D01*
X5252619Y-13653381D01*
X5243095Y-13672428D01*
X5233571Y-13681952D01*
X5214524Y-13691476D01*
X5195476Y-13691476D01*
X5176429Y-13681952D01*
X5166905Y-13672428D01*
X5157381Y-13653381D01*
X5147857Y-13615286D01*
X5147857Y-13567667D01*
X5157381Y-13529571D01*
X5166905Y-13510524D01*
X5176429Y-13501000D01*
X5195476Y-13491476D01*
X5347857Y-13672428D02*
X5357381Y-13681952D01*
X5347857Y-13691476D01*
X5338333Y-13681952D01*
X5347857Y-13672428D01*
X5347857Y-13691476D01*
X5481190Y-13491476D02*
X5500238Y-13491476D01*
X5519286Y-13501000D01*
X5528810Y-13510524D01*
X5538333Y-13529571D01*
X5547857Y-13567667D01*
X5547857Y-13615286D01*
X5538333Y-13653381D01*
X5528810Y-13672428D01*
X5519286Y-13681952D01*
X5500238Y-13691476D01*
X5481190Y-13691476D01*
X5462143Y-13681952D01*
X5452619Y-13672428D01*
X5443095Y-13653381D01*
X5433571Y-13615286D01*
X5433571Y-13567667D01*
X5443095Y-13529571D01*
X5452619Y-13510524D01*
X5462143Y-13501000D01*
X5481190Y-13491476D01*
X5719286Y-13491476D02*
X5681190Y-13491476D01*
X5662143Y-13501000D01*
X5652619Y-13510524D01*
X5633571Y-13539095D01*
X5624048Y-13577190D01*
X5624048Y-13653381D01*
X5633571Y-13672428D01*
X5643095Y-13681952D01*
X5662143Y-13691476D01*
X5700238Y-13691476D01*
X5719286Y-13681952D01*
X5728809Y-13672428D01*
X5738333Y-13653381D01*
X5738333Y-13605762D01*
X5728809Y-13586714D01*
X5719286Y-13577190D01*
X5700238Y-13567667D01*
X5662143Y-13567667D01*
X5643095Y-13577190D01*
X5633571Y-13586714D01*
X5624048Y-13605762D01*
X5909762Y-13491476D02*
X5871667Y-13491476D01*
X5852619Y-13501000D01*
X5843095Y-13510524D01*
X5824048Y-13539095D01*
X5814524Y-13577190D01*
X5814524Y-13653381D01*
X5824048Y-13672428D01*
X5833571Y-13681952D01*
X5852619Y-13691476D01*
X5890714Y-13691476D01*
X5909762Y-13681952D01*
X5919286Y-13672428D01*
X5928809Y-13653381D01*
X5928809Y-13605762D01*
X5919286Y-13586714D01*
X5909762Y-13577190D01*
X5890714Y-13567667D01*
X5852619Y-13567667D01*
X5833571Y-13577190D01*
X5824048Y-13586714D01*
X5814524Y-13605762D01*
X6024048Y-13691476D02*
X6062143Y-13691476D01*
X6081190Y-13681952D01*
X6090714Y-13672428D01*
X6109762Y-13643857D01*
X6119286Y-13605762D01*
X6119286Y-13529571D01*
X6109762Y-13510524D01*
X6100238Y-13501000D01*
X6081190Y-13491476D01*
X6043095Y-13491476D01*
X6024048Y-13501000D01*
X6014524Y-13510524D01*
X6005000Y-13529571D01*
X6005000Y-13577190D01*
X6014524Y-13596238D01*
X6024048Y-13605762D01*
X6043095Y-13615286D01*
X6081190Y-13615286D01*
X6100238Y-13605762D01*
X6109762Y-13596238D01*
X6119286Y-13577190D01*
X6195476Y-13491476D02*
X6195476Y-13529571D01*
X6271667Y-13491476D02*
X6271667Y-13529571D01*
X6566905Y-13767667D02*
X6557381Y-13758143D01*
X6538333Y-13729571D01*
X6528809Y-13710524D01*
X6519286Y-13681952D01*
X6509762Y-13634333D01*
X6509762Y-13596238D01*
X6519286Y-13548619D01*
X6528809Y-13520048D01*
X6538333Y-13501000D01*
X6557381Y-13472428D01*
X6566905Y-13462905D01*
X6728809Y-13558143D02*
X6728809Y-13691476D01*
X6681190Y-13481952D02*
X6633571Y-13624809D01*
X6757381Y-13624809D01*
X6985952Y-13691476D02*
X6985952Y-13491476D01*
X7071667Y-13691476D02*
X7071667Y-13586714D01*
X7062143Y-13567667D01*
X7043095Y-13558143D01*
X7014524Y-13558143D01*
X6995476Y-13567667D01*
X6985952Y-13577190D01*
X7195476Y-13691476D02*
X7176428Y-13681952D01*
X7166905Y-13672428D01*
X7157381Y-13653381D01*
X7157381Y-13596238D01*
X7166905Y-13577190D01*
X7176428Y-13567667D01*
X7195476Y-13558143D01*
X7224048Y-13558143D01*
X7243095Y-13567667D01*
X7252619Y-13577190D01*
X7262143Y-13596238D01*
X7262143Y-13653381D01*
X7252619Y-13672428D01*
X7243095Y-13681952D01*
X7224048Y-13691476D01*
X7195476Y-13691476D01*
X7376428Y-13691476D02*
X7357381Y-13681952D01*
X7347857Y-13662905D01*
X7347857Y-13491476D01*
X7528809Y-13681952D02*
X7509762Y-13691476D01*
X7471667Y-13691476D01*
X7452619Y-13681952D01*
X7443095Y-13662905D01*
X7443095Y-13586714D01*
X7452619Y-13567667D01*
X7471667Y-13558143D01*
X7509762Y-13558143D01*
X7528809Y-13567667D01*
X7538333Y-13586714D01*
X7538333Y-13605762D01*
X7443095Y-13624809D01*
X7614524Y-13681952D02*
X7633571Y-13691476D01*
X7671667Y-13691476D01*
X7690714Y-13681952D01*
X7700238Y-13662905D01*
X7700238Y-13653381D01*
X7690714Y-13634333D01*
X7671667Y-13624809D01*
X7643095Y-13624809D01*
X7624048Y-13615286D01*
X7614524Y-13596238D01*
X7614524Y-13586714D01*
X7624048Y-13567667D01*
X7643095Y-13558143D01*
X7671667Y-13558143D01*
X7690714Y-13567667D01*
X7766905Y-13767667D02*
X7776428Y-13758143D01*
X7795476Y-13729571D01*
X7805000Y-13710524D01*
X7814524Y-13681952D01*
X7824048Y-13634333D01*
X7824048Y-13596238D01*
X7814524Y-13548619D01*
X7805000Y-13520048D01*
X7795476Y-13501000D01*
X7776428Y-13472428D01*
X7766905Y-13462905D01*
X2895000Y-13991000D02*
X2995000Y-13891000D01*
X2895000Y-13791000D01*
X2795000Y-13891000D01*
X2895000Y-13991000D01*
X2995000Y-13891000D02*
G75*
G03*
X2995000Y-13891000I-100000J0D01*
G01*
X3233571Y-13781476D02*
X3357381Y-13781476D01*
X3290714Y-13857667D01*
X3319286Y-13857667D01*
X3338333Y-13867190D01*
X3347857Y-13876714D01*
X3357381Y-13895762D01*
X3357381Y-13943381D01*
X3347857Y-13962428D01*
X3338333Y-13971952D01*
X3319286Y-13981476D01*
X3262143Y-13981476D01*
X3243095Y-13971952D01*
X3233571Y-13962428D01*
X3443095Y-13962428D02*
X3452619Y-13971952D01*
X3443095Y-13981476D01*
X3433571Y-13971952D01*
X3443095Y-13962428D01*
X3443095Y-13981476D01*
X3528809Y-13800524D02*
X3538333Y-13791000D01*
X3557381Y-13781476D01*
X3605000Y-13781476D01*
X3624048Y-13791000D01*
X3633571Y-13800524D01*
X3643095Y-13819571D01*
X3643095Y-13838619D01*
X3633571Y-13867190D01*
X3519286Y-13981476D01*
X3643095Y-13981476D01*
X3766905Y-13781476D02*
X3785952Y-13781476D01*
X3805000Y-13791000D01*
X3814524Y-13800524D01*
X3824048Y-13819571D01*
X3833571Y-13857667D01*
X3833571Y-13905286D01*
X3824048Y-13943381D01*
X3814524Y-13962428D01*
X3805000Y-13971952D01*
X3785952Y-13981476D01*
X3766905Y-13981476D01*
X3747857Y-13971952D01*
X3738333Y-13962428D01*
X3728809Y-13943381D01*
X3719286Y-13905286D01*
X3719286Y-13857667D01*
X3728809Y-13819571D01*
X3738333Y-13800524D01*
X3747857Y-13791000D01*
X3766905Y-13781476D01*
X3957381Y-13781476D02*
X3976428Y-13781476D01*
X3995476Y-13791000D01*
X4005000Y-13800524D01*
X4014524Y-13819571D01*
X4024048Y-13857667D01*
X4024048Y-13905286D01*
X4014524Y-13943381D01*
X4005000Y-13962428D01*
X3995476Y-13971952D01*
X3976428Y-13981476D01*
X3957381Y-13981476D01*
X3938333Y-13971952D01*
X3928809Y-13962428D01*
X3919286Y-13943381D01*
X3909762Y-13905286D01*
X3909762Y-13857667D01*
X3919286Y-13819571D01*
X3928809Y-13800524D01*
X3938333Y-13791000D01*
X3957381Y-13781476D01*
X4109762Y-13981476D02*
X4109762Y-13848143D01*
X4109762Y-13867190D02*
X4119286Y-13857667D01*
X4138333Y-13848143D01*
X4166905Y-13848143D01*
X4185952Y-13857667D01*
X4195476Y-13876714D01*
X4195476Y-13981476D01*
X4195476Y-13876714D02*
X4205000Y-13857667D01*
X4224048Y-13848143D01*
X4252619Y-13848143D01*
X4271667Y-13857667D01*
X4281190Y-13876714D01*
X4281190Y-13981476D01*
X4376429Y-13981476D02*
X4376429Y-13848143D01*
X4376429Y-13867190D02*
X4385952Y-13857667D01*
X4405000Y-13848143D01*
X4433571Y-13848143D01*
X4452619Y-13857667D01*
X4462143Y-13876714D01*
X4462143Y-13981476D01*
X4462143Y-13876714D02*
X4471667Y-13857667D01*
X4490714Y-13848143D01*
X4519286Y-13848143D01*
X4538333Y-13857667D01*
X4547857Y-13876714D01*
X4547857Y-13981476D01*
X4938333Y-13771952D02*
X4766905Y-14029095D01*
X5195476Y-13781476D02*
X5214524Y-13781476D01*
X5233571Y-13791000D01*
X5243095Y-13800524D01*
X5252619Y-13819571D01*
X5262143Y-13857667D01*
X5262143Y-13905286D01*
X5252619Y-13943381D01*
X5243095Y-13962428D01*
X5233571Y-13971952D01*
X5214524Y-13981476D01*
X5195476Y-13981476D01*
X5176429Y-13971952D01*
X5166905Y-13962428D01*
X5157381Y-13943381D01*
X5147857Y-13905286D01*
X5147857Y-13857667D01*
X5157381Y-13819571D01*
X5166905Y-13800524D01*
X5176429Y-13791000D01*
X5195476Y-13781476D01*
X5347857Y-13962428D02*
X5357381Y-13971952D01*
X5347857Y-13981476D01*
X5338333Y-13971952D01*
X5347857Y-13962428D01*
X5347857Y-13981476D01*
X5547857Y-13981476D02*
X5433571Y-13981476D01*
X5490714Y-13981476D02*
X5490714Y-13781476D01*
X5471667Y-13810048D01*
X5452619Y-13829095D01*
X5433571Y-13838619D01*
X5624048Y-13800524D02*
X5633571Y-13791000D01*
X5652619Y-13781476D01*
X5700238Y-13781476D01*
X5719286Y-13791000D01*
X5728809Y-13800524D01*
X5738333Y-13819571D01*
X5738333Y-13838619D01*
X5728809Y-13867190D01*
X5614524Y-13981476D01*
X5738333Y-13981476D01*
X5909762Y-13781476D02*
X5871667Y-13781476D01*
X5852619Y-13791000D01*
X5843095Y-13800524D01*
X5824048Y-13829095D01*
X5814524Y-13867190D01*
X5814524Y-13943381D01*
X5824048Y-13962428D01*
X5833571Y-13971952D01*
X5852619Y-13981476D01*
X5890714Y-13981476D01*
X5909762Y-13971952D01*
X5919286Y-13962428D01*
X5928809Y-13943381D01*
X5928809Y-13895762D01*
X5919286Y-13876714D01*
X5909762Y-13867190D01*
X5890714Y-13857667D01*
X5852619Y-13857667D01*
X5833571Y-13867190D01*
X5824048Y-13876714D01*
X5814524Y-13895762D01*
X6052619Y-13781476D02*
X6071667Y-13781476D01*
X6090714Y-13791000D01*
X6100238Y-13800524D01*
X6109762Y-13819571D01*
X6119286Y-13857667D01*
X6119286Y-13905286D01*
X6109762Y-13943381D01*
X6100238Y-13962428D01*
X6090714Y-13971952D01*
X6071667Y-13981476D01*
X6052619Y-13981476D01*
X6033571Y-13971952D01*
X6024048Y-13962428D01*
X6014524Y-13943381D01*
X6005000Y-13905286D01*
X6005000Y-13857667D01*
X6014524Y-13819571D01*
X6024048Y-13800524D01*
X6033571Y-13791000D01*
X6052619Y-13781476D01*
X6195476Y-13781476D02*
X6195476Y-13819571D01*
X6271667Y-13781476D02*
X6271667Y-13819571D01*
X6566905Y-14057667D02*
X6557381Y-14048143D01*
X6538333Y-14019571D01*
X6528809Y-14000524D01*
X6519286Y-13971952D01*
X6509762Y-13924333D01*
X6509762Y-13886238D01*
X6519286Y-13838619D01*
X6528809Y-13810048D01*
X6538333Y-13791000D01*
X6557381Y-13762428D01*
X6566905Y-13752905D01*
X6633571Y-13800524D02*
X6643095Y-13791000D01*
X6662143Y-13781476D01*
X6709762Y-13781476D01*
X6728809Y-13791000D01*
X6738333Y-13800524D01*
X6747857Y-13819571D01*
X6747857Y-13838619D01*
X6738333Y-13867190D01*
X6624048Y-13981476D01*
X6747857Y-13981476D01*
X6985952Y-13981476D02*
X6985952Y-13781476D01*
X7071667Y-13981476D02*
X7071667Y-13876714D01*
X7062143Y-13857667D01*
X7043095Y-13848143D01*
X7014524Y-13848143D01*
X6995476Y-13857667D01*
X6985952Y-13867190D01*
X7195476Y-13981476D02*
X7176428Y-13971952D01*
X7166905Y-13962428D01*
X7157381Y-13943381D01*
X7157381Y-13886238D01*
X7166905Y-13867190D01*
X7176428Y-13857667D01*
X7195476Y-13848143D01*
X7224048Y-13848143D01*
X7243095Y-13857667D01*
X7252619Y-13867190D01*
X7262143Y-13886238D01*
X7262143Y-13943381D01*
X7252619Y-13962428D01*
X7243095Y-13971952D01*
X7224048Y-13981476D01*
X7195476Y-13981476D01*
X7376428Y-13981476D02*
X7357381Y-13971952D01*
X7347857Y-13952905D01*
X7347857Y-13781476D01*
X7528809Y-13971952D02*
X7509762Y-13981476D01*
X7471667Y-13981476D01*
X7452619Y-13971952D01*
X7443095Y-13952905D01*
X7443095Y-13876714D01*
X7452619Y-13857667D01*
X7471667Y-13848143D01*
X7509762Y-13848143D01*
X7528809Y-13857667D01*
X7538333Y-13876714D01*
X7538333Y-13895762D01*
X7443095Y-13914809D01*
X7614524Y-13971952D02*
X7633571Y-13981476D01*
X7671667Y-13981476D01*
X7690714Y-13971952D01*
X7700238Y-13952905D01*
X7700238Y-13943381D01*
X7690714Y-13924333D01*
X7671667Y-13914809D01*
X7643095Y-13914809D01*
X7624048Y-13905286D01*
X7614524Y-13886238D01*
X7614524Y-13876714D01*
X7624048Y-13857667D01*
X7643095Y-13848143D01*
X7671667Y-13848143D01*
X7690714Y-13857667D01*
X7766905Y-14057667D02*
X7776428Y-14048143D01*
X7795476Y-14019571D01*
X7805000Y-14000524D01*
X7814524Y-13971952D01*
X7824048Y-13924333D01*
X7824048Y-13886238D01*
X7814524Y-13838619D01*
X7805000Y-13810048D01*
X7795476Y-13791000D01*
X7776428Y-13762428D01*
X7766905Y-13752905D01*
M02*
