M48
; DRILL file {KiCad (6.0.9)} date Sun Jan 29 21:25:19 2023
; FORMAT={-:-/ absolute / metric / decimal}
; #@! TF.CreationDate,2023-01-29T21:25:19-08:00
; #@! TF.GenerationSoftware,Kicad,Pcbnew,(6.0.9)
; #@! TF.FileFunction,Plated,1,2,PTH
FMAT,2
METRIC
; #@! TA.AperFunction,Plated,PTH,ViaDrill
T1C0.250
; #@! TA.AperFunction,Plated,PTH,ViaDrill
T2C0.400
; #@! TA.AperFunction,Plated,PTH,ComponentDrill
T3C0.500
; #@! TA.AperFunction,Plated,PTH,ComponentDrill
T4C0.650
; #@! TA.AperFunction,Plated,PTH,ComponentDrill
T5C0.700
; #@! TA.AperFunction,Plated,PTH,ComponentDrill
T6C0.950
; #@! TA.AperFunction,Plated,PTH,ComponentDrill
T7C1.000
; #@! TA.AperFunction,Plated,PTH,ComponentDrill
T8C1.100
; #@! TA.AperFunction,Plated,PTH,ComponentDrill
T9C1.200
; #@! TA.AperFunction,Plated,PTH,ComponentDrill
T10C1.600
; #@! TA.AperFunction,Plated,PTH,ComponentDrill
T11C1.700
; #@! TA.AperFunction,Plated,PTH,ComponentDrill
T12C3.200
%
G90
G05
T1
X31.2Y-77.6
X32.4Y-33.4
X32.4Y-34.6
X32.9Y-62.6
X32.9Y-70.6
X33.0Y-53.1
X33.0Y-55.9
X33.3Y-44.1
X33.3Y-73.9
X33.9Y-32.4
X33.9Y-35.5
X35.1Y-42.3
X35.1Y-46.0
X35.8Y-65.3
X36.9Y-44.1
X38.1Y-74.4
X38.4Y-53.1
X38.4Y-55.9
X40.6Y-66.1
X40.8Y-54.5
X40.9Y-44.1
X42.4Y-91.1
X42.7Y-42.3
X42.7Y-46.0
X43.0Y-64.9
X44.2Y-91.1
X44.5Y-44.1
X44.7Y-73.0
X45.5Y-73.0
X46.0Y-91.1
X46.3Y-73.0
X46.4Y-38.3
X47.8Y-62.6
X48.2Y-86.8
X48.5Y-49.7
X48.5Y-55.2
X49.0Y-96.0
X49.0Y-98.0
X50.0Y-91.6
X51.0Y-69.2
X51.0Y-90.2
X51.0Y-96.0
X51.0Y-98.0
X51.2Y-93.0
X51.4Y-91.6
X52.0Y-49.7
X52.0Y-55.2
X52.0Y-76.2
X52.317Y-93.317
X52.883Y-93.883
X53.0Y-99.8
X54.5Y-61.0
X54.5Y-64.5
X54.5Y-68.0
X54.5Y-71.5
X55.0Y-99.8
X55.5Y-49.7
X55.5Y-55.2
X55.5Y-82.5
X55.8Y-93.6
X57.0Y-99.8
X57.8Y-92.0
X59.0Y-49.7
X59.0Y-55.2
X59.7Y-57.5
X59.7Y-61.0
X59.7Y-64.5
X59.7Y-68.0
X59.7Y-71.5
X59.925Y-89.875
X61.2Y-89.7
X62.5Y-49.7
X62.5Y-55.2
X62.725Y-92.875
X62.8Y-57.5
X62.8Y-61.0
X62.8Y-64.5
X62.8Y-68.0
X62.9Y-71.5
X63.5Y-71.5
X64.0Y-42.7
X64.1Y-71.5
X64.7Y-71.5
X65.3Y-71.5
X65.6Y-88.5
X65.6Y-90.4
X65.6Y-94.1
X65.9Y-71.5
X66.0Y-46.4
X66.0Y-49.7
X66.5Y-71.5
X66.5Y-90.0
X68.9Y-90.7
X69.0Y-42.7
X69.1Y-38.0
X69.5Y-49.7
X70.5Y-55.3
X70.5Y-58.8
X70.5Y-62.3
X70.5Y-65.8
X70.5Y-69.3
X71.0Y-46.4
X71.8Y-90.7
X72.0Y-96.0
X74.2Y-38.0
X75.0Y-59.1
X75.0Y-83.0
X76.0Y-42.7
X77.375Y-45.325
X80.0Y-38.0
X80.5Y-57.8
X80.6Y-59.8
X81.0Y-77.0
X81.0Y-87.0
X83.5Y-57.8
X84.0Y-83.0
X84.0Y-97.0
X85.2Y-60.8
X85.9Y-92.7
X86.7Y-64.7
X87.8Y-57.8
X88.0Y-79.0
X88.1Y-55.3
X88.1Y-56.9
X88.2Y-35.1
X88.2Y-37.1
X88.4Y-60.8
X88.8Y-62.9
X90.0Y-77.0
X90.7Y-58.7
X91.2Y-59.3
X91.4Y-63.2
X91.4Y-64.8
X91.7Y-58.0
X92.5Y-62.2
X92.5Y-63.1
X93.4Y-70.0
X93.4Y-71.0
X93.8Y-65.0
X93.8Y-73.4
X93.9Y-57.1
X94.0Y-72.0
X94.6Y-54.8
X94.7Y-72.8
X95.0Y-80.0
X95.0Y-83.3
X95.2Y-65.1
X96.2Y-55.8
X96.2Y-70.5
X96.25Y-55.05
X97.2Y-66.8
X97.492Y-65.508
X97.8Y-36.2
X97.8Y-70.5
X97.9Y-74.0
X97.95Y-67.15
X98.0Y-68.3
X99.2Y-72.8
X99.65Y-56.15
X99.7Y-70.5
X100.287Y-65.287
X100.8Y-67.6
X100.9Y-53.7
X101.05Y-57.15
X101.7Y-63.3
X102.2Y-60.9
X102.3Y-58.4
X102.5Y-37.0
X102.8Y-57.9
X103.6Y-61.0
X104.3Y-61.0
X104.5Y-55.4
X106.1Y-74.0
T2
X55.129Y-79.629
X55.871Y-80.371
T3
X51.6Y-42.5
X52.303Y-40.803
X52.303Y-44.197
X54.0Y-40.1
X54.0Y-44.9
X55.697Y-40.803
X55.697Y-44.197
X56.4Y-42.5
X83.6Y-42.5
X84.303Y-40.803
X84.303Y-44.197
X86.0Y-40.1
X86.0Y-44.9
X87.697Y-40.803
X87.697Y-44.197
X88.4Y-42.5
T6
X33.85Y-33.875
X36.35Y-33.875
X38.85Y-33.875
X41.35Y-33.875
T7
X63.65Y-32.235
X63.65Y-34.775
X66.19Y-32.235
X66.19Y-34.775
X68.73Y-32.235
X68.73Y-34.775
X71.27Y-32.235
X71.27Y-34.775
X73.81Y-32.235
X73.81Y-34.775
X76.35Y-32.235
X76.35Y-34.775
T8
X88.1Y-90.0
X88.5Y-87.5
X88.5Y-92.5
X93.5Y-87.5
X93.5Y-92.5
X93.9Y-90.0
T9
X76.25Y-63.605
X79.75Y-63.605
X79.75Y-96.605
T10
X35.05Y-84.69
X35.05Y-92.31
X35.09Y-44.15
X42.71Y-44.15
T11
X73.8Y-67.505
X73.8Y-92.705
X82.2Y-68.705
X82.2Y-91.505
T12
X54.0Y-42.5
X86.0Y-42.5
T4
X97.005Y-34.585G85X97.005Y-34.985
G05
X101.845Y-34.585G85X101.845Y-34.985
G05
T5
X96.695Y-31.535G85X96.695Y-32.035
G05
X102.155Y-31.535G85X102.155Y-32.035
G05
T0
M30
