G04 #@! TF.GenerationSoftware,KiCad,Pcbnew,(6.0.9)*
G04 #@! TF.CreationDate,2023-01-29T21:25:14-08:00*
G04 #@! TF.ProjectId,RadarPanelController,52616461-7250-4616-9e65-6c436f6e7472,REV1*
G04 #@! TF.SameCoordinates,Original*
G04 #@! TF.FileFunction,Legend,Top*
G04 #@! TF.FilePolarity,Positive*
%FSLAX46Y46*%
G04 Gerber Fmt 4.6, Leading zero omitted, Abs format (unit mm)*
G04 Created by KiCad (PCBNEW (6.0.9)) date 2023-01-29 21:25:14*
%MOMM*%
%LPD*%
G01*
G04 APERTURE LIST*
G04 Aperture macros list*
%AMRoundRect*
0 Rectangle with rounded corners*
0 $1 Rounding radius*
0 $2 $3 $4 $5 $6 $7 $8 $9 X,Y pos of 4 corners*
0 Add a 4 corners polygon primitive as box body*
4,1,4,$2,$3,$4,$5,$6,$7,$8,$9,$2,$3,0*
0 Add four circle primitives for the rounded corners*
1,1,$1+$1,$2,$3*
1,1,$1+$1,$4,$5*
1,1,$1+$1,$6,$7*
1,1,$1+$1,$8,$9*
0 Add four rect primitives between the rounded corners*
20,1,$1+$1,$2,$3,$4,$5,0*
20,1,$1+$1,$4,$5,$6,$7,0*
20,1,$1+$1,$6,$7,$8,$9,0*
20,1,$1+$1,$8,$9,$2,$3,0*%
%AMFreePoly0*
4,1,21,2.125000,-3.300000,1.400000,-3.300000,1.400000,-2.775000,0.000000,-2.775000,0.000000,-2.225000,0.520000,-2.225000,0.520000,-1.525000,0.000000,-1.525000,0.000000,-0.975000,0.520000,-0.975000,0.520000,-0.275000,0.000000,-0.275000,0.000000,-0.000500,-0.000500,-0.000500,-0.000500,0.000500,0.000000,0.000500,0.000000,0.275000,1.725000,0.275000,1.725000,1.235000,2.125000,1.235000,
2.125000,-3.300000,2.125000,-3.300000,$1*%
%AMFreePoly1*
4,1,9,3.862500,-0.866500,0.737500,-0.866500,0.737500,-0.450000,-0.737500,-0.450000,-0.737500,0.450000,0.737500,0.450000,0.737500,0.866500,3.862500,0.866500,3.862500,-0.866500,3.862500,-0.866500,$1*%
G04 Aperture macros list end*
%ADD10C,0.150000*%
%ADD11C,0.250000*%
%ADD12C,0.100000*%
%ADD13C,0.200000*%
%ADD14C,0.125000*%
%ADD15C,0.120000*%
%ADD16C,0.254000*%
%ADD17RoundRect,0.200000X-0.275000X0.200000X-0.275000X-0.200000X0.275000X-0.200000X0.275000X0.200000X0*%
%ADD18RoundRect,0.250000X1.100000X-0.325000X1.100000X0.325000X-1.100000X0.325000X-1.100000X-0.325000X0*%
%ADD19RoundRect,0.200000X0.275000X-0.200000X0.275000X0.200000X-0.275000X0.200000X-0.275000X-0.200000X0*%
%ADD20RoundRect,0.225000X-0.225000X-0.250000X0.225000X-0.250000X0.225000X0.250000X-0.225000X0.250000X0*%
%ADD21RoundRect,0.225000X0.225000X0.250000X-0.225000X0.250000X-0.225000X-0.250000X0.225000X-0.250000X0*%
%ADD22RoundRect,0.150000X0.150000X-0.587500X0.150000X0.587500X-0.150000X0.587500X-0.150000X-0.587500X0*%
%ADD23RoundRect,0.250000X-0.325000X-1.100000X0.325000X-1.100000X0.325000X1.100000X-0.325000X1.100000X0*%
%ADD24RoundRect,0.250000X1.000000X-1.950000X1.000000X1.950000X-1.000000X1.950000X-1.000000X-1.950000X0*%
%ADD25RoundRect,0.250000X-0.325000X-0.650000X0.325000X-0.650000X0.325000X0.650000X-0.325000X0.650000X0*%
%ADD26RoundRect,0.250000X0.450000X-0.262500X0.450000X0.262500X-0.450000X0.262500X-0.450000X-0.262500X0*%
%ADD27RoundRect,0.250000X0.250000X0.475000X-0.250000X0.475000X-0.250000X-0.475000X0.250000X-0.475000X0*%
%ADD28RoundRect,0.243750X0.456250X-0.243750X0.456250X0.243750X-0.456250X0.243750X-0.456250X-0.243750X0*%
%ADD29RoundRect,0.140000X0.140000X0.170000X-0.140000X0.170000X-0.140000X-0.170000X0.140000X-0.170000X0*%
%ADD30RoundRect,0.250000X-0.600000X-0.725000X0.600000X-0.725000X0.600000X0.725000X-0.600000X0.725000X0*%
%ADD31O,1.700000X1.950000*%
%ADD32RoundRect,0.225000X0.250000X-0.225000X0.250000X0.225000X-0.250000X0.225000X-0.250000X-0.225000X0*%
%ADD33RoundRect,0.250000X0.475000X-0.250000X0.475000X0.250000X-0.475000X0.250000X-0.475000X-0.250000X0*%
%ADD34RoundRect,0.250000X0.325000X1.100000X-0.325000X1.100000X-0.325000X-1.100000X0.325000X-1.100000X0*%
%ADD35R,1.700000X1.700000*%
%ADD36O,1.700000X1.700000*%
%ADD37C,0.800000*%
%ADD38C,6.400000*%
%ADD39FreePoly0,0.000000*%
%ADD40R,0.920000X0.300000*%
%ADD41R,0.300000X0.920000*%
%ADD42R,0.920000X0.350000*%
%ADD43RoundRect,0.035000X-0.465000X-0.140000X0.465000X-0.140000X0.465000X0.140000X-0.465000X0.140000X0*%
%ADD44RoundRect,0.060000X0.140000X-0.490000X0.140000X0.490000X-0.140000X0.490000X-0.140000X-0.490000X0*%
%ADD45RoundRect,0.060000X0.240000X-0.490000X0.240000X0.490000X-0.240000X0.490000X-0.240000X-0.490000X0*%
%ADD46RoundRect,0.250000X-0.250000X-0.475000X0.250000X-0.475000X0.250000X0.475000X-0.250000X0.475000X0*%
%ADD47RoundRect,0.250000X1.500000X0.550000X-1.500000X0.550000X-1.500000X-0.550000X1.500000X-0.550000X0*%
%ADD48RoundRect,0.250000X-0.450000X0.262500X-0.450000X-0.262500X0.450000X-0.262500X0.450000X0.262500X0*%
%ADD49RoundRect,0.200000X0.200000X0.275000X-0.200000X0.275000X-0.200000X-0.275000X0.200000X-0.275000X0*%
%ADD50R,1.750000X1.750000*%
%ADD51C,1.750000*%
%ADD52C,2.700000*%
%ADD53RoundRect,0.250000X-1.100000X0.325000X-1.100000X-0.325000X1.100000X-0.325000X1.100000X0.325000X0*%
%ADD54RoundRect,0.250000X0.650000X-0.325000X0.650000X0.325000X-0.650000X0.325000X-0.650000X-0.325000X0*%
%ADD55RoundRect,0.200000X-0.200000X-0.275000X0.200000X-0.275000X0.200000X0.275000X-0.200000X0.275000X0*%
%ADD56RoundRect,0.800000X1.700000X-1.200000X1.700000X1.200000X-1.700000X1.200000X-1.700000X-1.200000X0*%
%ADD57C,1.850000*%
%ADD58RoundRect,0.243750X0.243750X0.456250X-0.243750X0.456250X-0.243750X-0.456250X0.243750X-0.456250X0*%
%ADD59RoundRect,0.250000X0.262500X0.450000X-0.262500X0.450000X-0.262500X-0.450000X0.262500X-0.450000X0*%
%ADD60R,1.300000X0.900000*%
%ADD61FreePoly1,0.000000*%
%ADD62RoundRect,0.165000X0.385000X-0.710000X0.385000X0.710000X-0.385000X0.710000X-0.385000X-0.710000X0*%
%ADD63R,2.540000X2.540000*%
%ADD64C,2.540000*%
%ADD65RoundRect,0.243750X-0.456250X0.243750X-0.456250X-0.243750X0.456250X-0.243750X0.456250X0.243750X0*%
%ADD66RoundRect,0.135000X-0.135000X-0.185000X0.135000X-0.185000X0.135000X0.185000X-0.135000X0.185000X0*%
%ADD67RoundRect,0.062500X-0.062500X0.475000X-0.062500X-0.475000X0.062500X-0.475000X0.062500X0.475000X0*%
%ADD68RoundRect,0.062500X-0.475000X0.062500X-0.475000X-0.062500X0.475000X-0.062500X0.475000X0.062500X0*%
%ADD69R,5.200000X5.200000*%
%ADD70R,0.400000X1.650000*%
%ADD71R,2.000000X1.500000*%
%ADD72R,1.350000X2.000000*%
%ADD73R,1.825000X0.700000*%
%ADD74R,1.430000X2.500000*%
%ADD75O,1.350000X1.700000*%
%ADD76O,1.100000X1.500000*%
%ADD77R,1.900000X0.400000*%
G04 APERTURE END LIST*
D10*
X34942857Y-49604761D02*
X35085714Y-49652380D01*
X35323809Y-49652380D01*
X35419047Y-49604761D01*
X35466666Y-49557142D01*
X35514285Y-49461904D01*
X35514285Y-49366666D01*
X35466666Y-49271428D01*
X35419047Y-49223809D01*
X35323809Y-49176190D01*
X35133333Y-49128571D01*
X35038095Y-49080952D01*
X34990476Y-49033333D01*
X34942857Y-48938095D01*
X34942857Y-48842857D01*
X34990476Y-48747619D01*
X35038095Y-48700000D01*
X35133333Y-48652380D01*
X35371428Y-48652380D01*
X35514285Y-48700000D01*
X35800000Y-48652380D02*
X36371428Y-48652380D01*
X36085714Y-49652380D02*
X36085714Y-48652380D01*
X37276190Y-49652380D02*
X36942857Y-49176190D01*
X36704761Y-49652380D02*
X36704761Y-48652380D01*
X37085714Y-48652380D01*
X37180952Y-48700000D01*
X37228571Y-48747619D01*
X37276190Y-48842857D01*
X37276190Y-48985714D01*
X37228571Y-49080952D01*
X37180952Y-49128571D01*
X37085714Y-49176190D01*
X36704761Y-49176190D01*
X37704761Y-49652380D02*
X37704761Y-48652380D01*
X38180952Y-49652380D02*
X38180952Y-48652380D01*
X38561904Y-48652380D01*
X38657142Y-48700000D01*
X38704761Y-48747619D01*
X38752380Y-48842857D01*
X38752380Y-48985714D01*
X38704761Y-49080952D01*
X38657142Y-49128571D01*
X38561904Y-49176190D01*
X38180952Y-49176190D01*
X39942857Y-49652380D02*
X39942857Y-48652380D01*
X40323809Y-48652380D01*
X40419047Y-48700000D01*
X40466666Y-48747619D01*
X40514285Y-48842857D01*
X40514285Y-48985714D01*
X40466666Y-49080952D01*
X40419047Y-49128571D01*
X40323809Y-49176190D01*
X39942857Y-49176190D01*
X40847619Y-48652380D02*
X41085714Y-49652380D01*
X41276190Y-48938095D01*
X41466666Y-49652380D01*
X41704761Y-48652380D01*
X42657142Y-49652380D02*
X42323809Y-49176190D01*
X42085714Y-49652380D02*
X42085714Y-48652380D01*
X42466666Y-48652380D01*
X42561904Y-48700000D01*
X42609523Y-48747619D01*
X42657142Y-48842857D01*
X42657142Y-48985714D01*
X42609523Y-49080952D01*
X42561904Y-49128571D01*
X42466666Y-49176190D01*
X42085714Y-49176190D01*
D11*
X94642857Y-99178571D02*
X94142857Y-98464285D01*
X93785714Y-99178571D02*
X93785714Y-97678571D01*
X94357142Y-97678571D01*
X94500000Y-97750000D01*
X94571428Y-97821428D01*
X94642857Y-97964285D01*
X94642857Y-98178571D01*
X94571428Y-98321428D01*
X94500000Y-98392857D01*
X94357142Y-98464285D01*
X93785714Y-98464285D01*
X95214285Y-98750000D02*
X95928571Y-98750000D01*
X95071428Y-99178571D02*
X95571428Y-97678571D01*
X96071428Y-99178571D01*
X96571428Y-99178571D02*
X96571428Y-97678571D01*
X96928571Y-97678571D01*
X97142857Y-97750000D01*
X97285714Y-97892857D01*
X97357142Y-98035714D01*
X97428571Y-98321428D01*
X97428571Y-98535714D01*
X97357142Y-98821428D01*
X97285714Y-98964285D01*
X97142857Y-99107142D01*
X96928571Y-99178571D01*
X96571428Y-99178571D01*
X98000000Y-98750000D02*
X98714285Y-98750000D01*
X97857142Y-99178571D02*
X98357142Y-97678571D01*
X98857142Y-99178571D01*
X100214285Y-99178571D02*
X99714285Y-98464285D01*
X99357142Y-99178571D02*
X99357142Y-97678571D01*
X99928571Y-97678571D01*
X100071428Y-97750000D01*
X100142857Y-97821428D01*
X100214285Y-97964285D01*
X100214285Y-98178571D01*
X100142857Y-98321428D01*
X100071428Y-98392857D01*
X99928571Y-98464285D01*
X99357142Y-98464285D01*
X102000000Y-99178571D02*
X102000000Y-97678571D01*
X102571428Y-97678571D01*
X102714285Y-97750000D01*
X102785714Y-97821428D01*
X102857142Y-97964285D01*
X102857142Y-98178571D01*
X102785714Y-98321428D01*
X102714285Y-98392857D01*
X102571428Y-98464285D01*
X102000000Y-98464285D01*
X103428571Y-98750000D02*
X104142857Y-98750000D01*
X103285714Y-99178571D02*
X103785714Y-97678571D01*
X104285714Y-99178571D01*
X104785714Y-99178571D02*
X104785714Y-97678571D01*
X105642857Y-99178571D01*
X105642857Y-97678571D01*
X106357142Y-98392857D02*
X106857142Y-98392857D01*
X107071428Y-99178571D02*
X106357142Y-99178571D01*
X106357142Y-97678571D01*
X107071428Y-97678571D01*
X108428571Y-99178571D02*
X107714285Y-99178571D01*
X107714285Y-97678571D01*
X99428571Y-101178571D02*
X98928571Y-100464285D01*
X98571428Y-101178571D02*
X98571428Y-99678571D01*
X99142857Y-99678571D01*
X99285714Y-99750000D01*
X99357142Y-99821428D01*
X99428571Y-99964285D01*
X99428571Y-100178571D01*
X99357142Y-100321428D01*
X99285714Y-100392857D01*
X99142857Y-100464285D01*
X98571428Y-100464285D01*
X100071428Y-100392857D02*
X100571428Y-100392857D01*
X100785714Y-101178571D02*
X100071428Y-101178571D01*
X100071428Y-99678571D01*
X100785714Y-99678571D01*
X101214285Y-99678571D02*
X101714285Y-101178571D01*
X102214285Y-99678571D01*
X103500000Y-101178571D02*
X102642857Y-101178571D01*
X103071428Y-101178571D02*
X103071428Y-99678571D01*
X102928571Y-99892857D01*
X102785714Y-100035714D01*
X102642857Y-100107142D01*
D10*
X100404761Y-83040357D02*
X100452380Y-82897500D01*
X100452380Y-82659404D01*
X100404761Y-82564166D01*
X100357142Y-82516547D01*
X100261904Y-82468928D01*
X100166666Y-82468928D01*
X100071428Y-82516547D01*
X100023809Y-82564166D01*
X99976190Y-82659404D01*
X99928571Y-82849880D01*
X99880952Y-82945119D01*
X99833333Y-82992738D01*
X99738095Y-83040357D01*
X99642857Y-83040357D01*
X99547619Y-82992738D01*
X99500000Y-82945119D01*
X99452380Y-82849880D01*
X99452380Y-82611785D01*
X99500000Y-82468928D01*
X99452380Y-82183214D02*
X99452380Y-81611785D01*
X100452380Y-81897500D02*
X99452380Y-81897500D01*
X100166666Y-81326071D02*
X100166666Y-80849880D01*
X100452380Y-81421309D02*
X99452380Y-81087976D01*
X100452380Y-80754642D01*
X99452380Y-80564166D02*
X99452380Y-79992738D01*
X100452380Y-80278452D02*
X99452380Y-80278452D01*
X99452380Y-79659404D02*
X100261904Y-79659404D01*
X100357142Y-79611785D01*
X100404761Y-79564166D01*
X100452380Y-79468928D01*
X100452380Y-79278452D01*
X100404761Y-79183214D01*
X100357142Y-79135595D01*
X100261904Y-79087976D01*
X99452380Y-79087976D01*
X100404761Y-78659404D02*
X100452380Y-78516547D01*
X100452380Y-78278452D01*
X100404761Y-78183214D01*
X100357142Y-78135595D01*
X100261904Y-78087976D01*
X100166666Y-78087976D01*
X100071428Y-78135595D01*
X100023809Y-78183214D01*
X99976190Y-78278452D01*
X99928571Y-78468928D01*
X99880952Y-78564166D01*
X99833333Y-78611785D01*
X99738095Y-78659404D01*
X99642857Y-78659404D01*
X99547619Y-78611785D01*
X99500000Y-78564166D01*
X99452380Y-78468928D01*
X99452380Y-78230833D01*
X99500000Y-78087976D01*
X76000000Y-98495000D02*
X75904761Y-98447380D01*
X75761904Y-98447380D01*
X75619047Y-98495000D01*
X75523809Y-98590238D01*
X75476190Y-98685476D01*
X75428571Y-98875952D01*
X75428571Y-99018809D01*
X75476190Y-99209285D01*
X75523809Y-99304523D01*
X75619047Y-99399761D01*
X75761904Y-99447380D01*
X75857142Y-99447380D01*
X76000000Y-99399761D01*
X76047619Y-99352142D01*
X76047619Y-99018809D01*
X75857142Y-99018809D01*
X76952380Y-99447380D02*
X76476190Y-99447380D01*
X76476190Y-98447380D01*
X77476190Y-98447380D02*
X77666666Y-98447380D01*
X77761904Y-98495000D01*
X77857142Y-98590238D01*
X77904761Y-98780714D01*
X77904761Y-99114047D01*
X77857142Y-99304523D01*
X77761904Y-99399761D01*
X77666666Y-99447380D01*
X77476190Y-99447380D01*
X77380952Y-99399761D01*
X77285714Y-99304523D01*
X77238095Y-99114047D01*
X77238095Y-98780714D01*
X77285714Y-98590238D01*
X77380952Y-98495000D01*
X77476190Y-98447380D01*
X78666666Y-98923571D02*
X78809523Y-98971190D01*
X78857142Y-99018809D01*
X78904761Y-99114047D01*
X78904761Y-99256904D01*
X78857142Y-99352142D01*
X78809523Y-99399761D01*
X78714285Y-99447380D01*
X78333333Y-99447380D01*
X78333333Y-98447380D01*
X78666666Y-98447380D01*
X78761904Y-98495000D01*
X78809523Y-98542619D01*
X78857142Y-98637857D01*
X78857142Y-98733095D01*
X78809523Y-98828333D01*
X78761904Y-98875952D01*
X78666666Y-98923571D01*
X78333333Y-98923571D01*
X79285714Y-99161666D02*
X79761904Y-99161666D01*
X79190476Y-99447380D02*
X79523809Y-98447380D01*
X79857142Y-99447380D01*
X80666666Y-99447380D02*
X80190476Y-99447380D01*
X80190476Y-98447380D01*
X74000000Y-100533571D02*
X74142857Y-100581190D01*
X74190476Y-100628809D01*
X74238095Y-100724047D01*
X74238095Y-100866904D01*
X74190476Y-100962142D01*
X74142857Y-101009761D01*
X74047619Y-101057380D01*
X73666666Y-101057380D01*
X73666666Y-100057380D01*
X74000000Y-100057380D01*
X74095238Y-100105000D01*
X74142857Y-100152619D01*
X74190476Y-100247857D01*
X74190476Y-100343095D01*
X74142857Y-100438333D01*
X74095238Y-100485952D01*
X74000000Y-100533571D01*
X73666666Y-100533571D01*
X75238095Y-101057380D02*
X74904761Y-100581190D01*
X74666666Y-101057380D02*
X74666666Y-100057380D01*
X75047619Y-100057380D01*
X75142857Y-100105000D01*
X75190476Y-100152619D01*
X75238095Y-100247857D01*
X75238095Y-100390714D01*
X75190476Y-100485952D01*
X75142857Y-100533571D01*
X75047619Y-100581190D01*
X74666666Y-100581190D01*
X75666666Y-101057380D02*
X75666666Y-100057380D01*
X76666666Y-100105000D02*
X76571428Y-100057380D01*
X76428571Y-100057380D01*
X76285714Y-100105000D01*
X76190476Y-100200238D01*
X76142857Y-100295476D01*
X76095238Y-100485952D01*
X76095238Y-100628809D01*
X76142857Y-100819285D01*
X76190476Y-100914523D01*
X76285714Y-101009761D01*
X76428571Y-101057380D01*
X76523809Y-101057380D01*
X76666666Y-101009761D01*
X76714285Y-100962142D01*
X76714285Y-100628809D01*
X76523809Y-100628809D01*
X77142857Y-101057380D02*
X77142857Y-100057380D01*
X77142857Y-100533571D02*
X77714285Y-100533571D01*
X77714285Y-101057380D02*
X77714285Y-100057380D01*
X78047619Y-100057380D02*
X78619047Y-100057380D01*
X78333333Y-101057380D02*
X78333333Y-100057380D01*
X78952380Y-101057380D02*
X78952380Y-100057380D01*
X79523809Y-101057380D01*
X79523809Y-100057380D01*
X80000000Y-100533571D02*
X80333333Y-100533571D01*
X80476190Y-101057380D02*
X80000000Y-101057380D01*
X80000000Y-100057380D01*
X80476190Y-100057380D01*
X80857142Y-101009761D02*
X81000000Y-101057380D01*
X81238095Y-101057380D01*
X81333333Y-101009761D01*
X81380952Y-100962142D01*
X81428571Y-100866904D01*
X81428571Y-100771666D01*
X81380952Y-100676428D01*
X81333333Y-100628809D01*
X81238095Y-100581190D01*
X81047619Y-100533571D01*
X80952380Y-100485952D01*
X80904761Y-100438333D01*
X80857142Y-100343095D01*
X80857142Y-100247857D01*
X80904761Y-100152619D01*
X80952380Y-100105000D01*
X81047619Y-100057380D01*
X81285714Y-100057380D01*
X81428571Y-100105000D01*
X81809523Y-101009761D02*
X81952380Y-101057380D01*
X82190476Y-101057380D01*
X82285714Y-101009761D01*
X82333333Y-100962142D01*
X82380952Y-100866904D01*
X82380952Y-100771666D01*
X82333333Y-100676428D01*
X82285714Y-100628809D01*
X82190476Y-100581190D01*
X82000000Y-100533571D01*
X81904761Y-100485952D01*
X81857142Y-100438333D01*
X81809523Y-100343095D01*
X81809523Y-100247857D01*
X81857142Y-100152619D01*
X81904761Y-100105000D01*
X82000000Y-100057380D01*
X82238095Y-100057380D01*
X82380952Y-100105000D01*
D12*
X98485714Y-102192857D02*
X98600000Y-102230952D01*
X98638095Y-102269047D01*
X98676190Y-102345238D01*
X98676190Y-102459523D01*
X98638095Y-102535714D01*
X98600000Y-102573809D01*
X98523809Y-102611904D01*
X98219047Y-102611904D01*
X98219047Y-101811904D01*
X98485714Y-101811904D01*
X98561904Y-101850000D01*
X98600000Y-101888095D01*
X98638095Y-101964285D01*
X98638095Y-102040476D01*
X98600000Y-102116666D01*
X98561904Y-102154761D01*
X98485714Y-102192857D01*
X98219047Y-102192857D01*
X99171428Y-102230952D02*
X99171428Y-102611904D01*
X98904761Y-101811904D02*
X99171428Y-102230952D01*
X99438095Y-101811904D01*
X100314285Y-102611904D02*
X100314285Y-101811904D01*
X100504761Y-101811904D01*
X100619047Y-101850000D01*
X100695238Y-101926190D01*
X100733333Y-102002380D01*
X100771428Y-102154761D01*
X100771428Y-102269047D01*
X100733333Y-102421428D01*
X100695238Y-102497619D01*
X100619047Y-102573809D01*
X100504761Y-102611904D01*
X100314285Y-102611904D01*
X101076190Y-102383333D02*
X101457142Y-102383333D01*
X101000000Y-102611904D02*
X101266666Y-101811904D01*
X101533333Y-102611904D01*
X101723809Y-101811904D02*
X102257142Y-102611904D01*
X102257142Y-101811904D02*
X101723809Y-102611904D01*
X102485714Y-101811904D02*
X103019047Y-102611904D01*
X103019047Y-101811904D02*
X102485714Y-102611904D01*
X103323809Y-102611904D02*
X103323809Y-101811904D01*
X103780952Y-102611904D01*
X103780952Y-101811904D01*
D10*
X48304761Y-32852380D02*
X47828571Y-32852380D01*
X47828571Y-31852380D01*
X48638095Y-32852380D02*
X48638095Y-31852380D01*
X49638095Y-31900000D02*
X49542857Y-31852380D01*
X49400000Y-31852380D01*
X49257142Y-31900000D01*
X49161904Y-31995238D01*
X49114285Y-32090476D01*
X49066666Y-32280952D01*
X49066666Y-32423809D01*
X49114285Y-32614285D01*
X49161904Y-32709523D01*
X49257142Y-32804761D01*
X49400000Y-32852380D01*
X49495238Y-32852380D01*
X49638095Y-32804761D01*
X49685714Y-32757142D01*
X49685714Y-32423809D01*
X49495238Y-32423809D01*
X50114285Y-32852380D02*
X50114285Y-31852380D01*
X50114285Y-32328571D02*
X50685714Y-32328571D01*
X50685714Y-32852380D02*
X50685714Y-31852380D01*
X51019047Y-31852380D02*
X51590476Y-31852380D01*
X51304761Y-32852380D02*
X51304761Y-31852380D01*
X51923809Y-32852380D02*
X51923809Y-31852380D01*
X52400000Y-32852380D02*
X52400000Y-31852380D01*
X52971428Y-32852380D01*
X52971428Y-31852380D01*
X53971428Y-31900000D02*
X53876190Y-31852380D01*
X53733333Y-31852380D01*
X53590476Y-31900000D01*
X53495238Y-31995238D01*
X53447619Y-32090476D01*
X53400000Y-32280952D01*
X53400000Y-32423809D01*
X53447619Y-32614285D01*
X53495238Y-32709523D01*
X53590476Y-32804761D01*
X53733333Y-32852380D01*
X53828571Y-32852380D01*
X53971428Y-32804761D01*
X54019047Y-32757142D01*
X54019047Y-32423809D01*
X53828571Y-32423809D01*
X103928571Y-82611785D02*
X103928571Y-82278452D01*
X104452380Y-82135595D02*
X104452380Y-82611785D01*
X103452380Y-82611785D01*
X103452380Y-82135595D01*
X104452380Y-81135595D02*
X103976190Y-81468928D01*
X104452380Y-81707023D02*
X103452380Y-81707023D01*
X103452380Y-81326071D01*
X103500000Y-81230833D01*
X103547619Y-81183214D01*
X103642857Y-81135595D01*
X103785714Y-81135595D01*
X103880952Y-81183214D01*
X103928571Y-81230833D01*
X103976190Y-81326071D01*
X103976190Y-81707023D01*
X104452380Y-80135595D02*
X103976190Y-80468928D01*
X104452380Y-80707023D02*
X103452380Y-80707023D01*
X103452380Y-80326071D01*
X103500000Y-80230833D01*
X103547619Y-80183214D01*
X103642857Y-80135595D01*
X103785714Y-80135595D01*
X103880952Y-80183214D01*
X103928571Y-80230833D01*
X103976190Y-80326071D01*
X103976190Y-80707023D01*
X103452380Y-79516547D02*
X103452380Y-79326071D01*
X103500000Y-79230833D01*
X103595238Y-79135595D01*
X103785714Y-79087976D01*
X104119047Y-79087976D01*
X104309523Y-79135595D01*
X104404761Y-79230833D01*
X104452380Y-79326071D01*
X104452380Y-79516547D01*
X104404761Y-79611785D01*
X104309523Y-79707023D01*
X104119047Y-79754642D01*
X103785714Y-79754642D01*
X103595238Y-79707023D01*
X103500000Y-79611785D01*
X103452380Y-79516547D01*
X104452380Y-78087976D02*
X103976190Y-78421309D01*
X104452380Y-78659404D02*
X103452380Y-78659404D01*
X103452380Y-78278452D01*
X103500000Y-78183214D01*
X103547619Y-78135595D01*
X103642857Y-78087976D01*
X103785714Y-78087976D01*
X103880952Y-78135595D01*
X103928571Y-78183214D01*
X103976190Y-78278452D01*
X103976190Y-78659404D01*
X35695238Y-38704761D02*
X35838095Y-38752380D01*
X36076190Y-38752380D01*
X36171428Y-38704761D01*
X36219047Y-38657142D01*
X36266666Y-38561904D01*
X36266666Y-38466666D01*
X36219047Y-38371428D01*
X36171428Y-38323809D01*
X36076190Y-38276190D01*
X35885714Y-38228571D01*
X35790476Y-38180952D01*
X35742857Y-38133333D01*
X35695238Y-38038095D01*
X35695238Y-37942857D01*
X35742857Y-37847619D01*
X35790476Y-37800000D01*
X35885714Y-37752380D01*
X36123809Y-37752380D01*
X36266666Y-37800000D01*
X36552380Y-37752380D02*
X37123809Y-37752380D01*
X36838095Y-38752380D02*
X36838095Y-37752380D01*
X38028571Y-38752380D02*
X37695238Y-38276190D01*
X37457142Y-38752380D02*
X37457142Y-37752380D01*
X37838095Y-37752380D01*
X37933333Y-37800000D01*
X37980952Y-37847619D01*
X38028571Y-37942857D01*
X38028571Y-38085714D01*
X37980952Y-38180952D01*
X37933333Y-38228571D01*
X37838095Y-38276190D01*
X37457142Y-38276190D01*
X38457142Y-38752380D02*
X38457142Y-37752380D01*
X38933333Y-38752380D02*
X38933333Y-37752380D01*
X39314285Y-37752380D01*
X39409523Y-37800000D01*
X39457142Y-37847619D01*
X39504761Y-37942857D01*
X39504761Y-38085714D01*
X39457142Y-38180952D01*
X39409523Y-38228571D01*
X39314285Y-38276190D01*
X38933333Y-38276190D01*
D13*
X34171428Y-98271071D02*
X33314285Y-98271071D01*
X33742857Y-98271071D02*
X33742857Y-96771071D01*
X33600000Y-96985357D01*
X33457142Y-97128214D01*
X33314285Y-97199642D01*
X35028571Y-97413928D02*
X34885714Y-97342500D01*
X34814285Y-97271071D01*
X34742857Y-97128214D01*
X34742857Y-97056785D01*
X34814285Y-96913928D01*
X34885714Y-96842500D01*
X35028571Y-96771071D01*
X35314285Y-96771071D01*
X35457142Y-96842500D01*
X35528571Y-96913928D01*
X35600000Y-97056785D01*
X35600000Y-97128214D01*
X35528571Y-97271071D01*
X35457142Y-97342500D01*
X35314285Y-97413928D01*
X35028571Y-97413928D01*
X34885714Y-97485357D01*
X34814285Y-97556785D01*
X34742857Y-97699642D01*
X34742857Y-97985357D01*
X34814285Y-98128214D01*
X34885714Y-98199642D01*
X35028571Y-98271071D01*
X35314285Y-98271071D01*
X35457142Y-98199642D01*
X35528571Y-98128214D01*
X35600000Y-97985357D01*
X35600000Y-97699642D01*
X35528571Y-97556785D01*
X35457142Y-97485357D01*
X35314285Y-97413928D01*
X36028571Y-96771071D02*
X36528571Y-98271071D01*
X37028571Y-96771071D01*
X34314285Y-100686071D02*
X34314285Y-99186071D01*
X35028571Y-100686071D02*
X35028571Y-99186071D01*
X35885714Y-100686071D01*
X35885714Y-99186071D01*
D10*
X88404761Y-95147380D02*
X87928571Y-95147380D01*
X87928571Y-94147380D01*
X88738095Y-95147380D02*
X88738095Y-94147380D01*
X89738095Y-94195000D02*
X89642857Y-94147380D01*
X89500000Y-94147380D01*
X89357142Y-94195000D01*
X89261904Y-94290238D01*
X89214285Y-94385476D01*
X89166666Y-94575952D01*
X89166666Y-94718809D01*
X89214285Y-94909285D01*
X89261904Y-95004523D01*
X89357142Y-95099761D01*
X89500000Y-95147380D01*
X89595238Y-95147380D01*
X89738095Y-95099761D01*
X89785714Y-95052142D01*
X89785714Y-94718809D01*
X89595238Y-94718809D01*
X90214285Y-95147380D02*
X90214285Y-94147380D01*
X90214285Y-94623571D02*
X90785714Y-94623571D01*
X90785714Y-95147380D02*
X90785714Y-94147380D01*
X91119047Y-94147380D02*
X91690476Y-94147380D01*
X91404761Y-95147380D02*
X91404761Y-94147380D01*
X92023809Y-95147380D02*
X92023809Y-94147380D01*
X92500000Y-95147380D02*
X92500000Y-94147380D01*
X93071428Y-95147380D01*
X93071428Y-94147380D01*
X94071428Y-94195000D02*
X93976190Y-94147380D01*
X93833333Y-94147380D01*
X93690476Y-94195000D01*
X93595238Y-94290238D01*
X93547619Y-94385476D01*
X93500000Y-94575952D01*
X93500000Y-94718809D01*
X93547619Y-94909285D01*
X93595238Y-95004523D01*
X93690476Y-95099761D01*
X93833333Y-95147380D01*
X93928571Y-95147380D01*
X94071428Y-95099761D01*
X94119047Y-95052142D01*
X94119047Y-94718809D01*
X93928571Y-94718809D01*
X88333333Y-95757380D02*
X88904761Y-95757380D01*
X88619047Y-96757380D02*
X88619047Y-95757380D01*
X89428571Y-95757380D02*
X89619047Y-95757380D01*
X89714285Y-95805000D01*
X89809523Y-95900238D01*
X89857142Y-96090714D01*
X89857142Y-96424047D01*
X89809523Y-96614523D01*
X89714285Y-96709761D01*
X89619047Y-96757380D01*
X89428571Y-96757380D01*
X89333333Y-96709761D01*
X89238095Y-96614523D01*
X89190476Y-96424047D01*
X89190476Y-96090714D01*
X89238095Y-95900238D01*
X89333333Y-95805000D01*
X89428571Y-95757380D01*
X90809523Y-95805000D02*
X90714285Y-95757380D01*
X90571428Y-95757380D01*
X90428571Y-95805000D01*
X90333333Y-95900238D01*
X90285714Y-95995476D01*
X90238095Y-96185952D01*
X90238095Y-96328809D01*
X90285714Y-96519285D01*
X90333333Y-96614523D01*
X90428571Y-96709761D01*
X90571428Y-96757380D01*
X90666666Y-96757380D01*
X90809523Y-96709761D01*
X90857142Y-96662142D01*
X90857142Y-96328809D01*
X90666666Y-96328809D01*
X91809523Y-95805000D02*
X91714285Y-95757380D01*
X91571428Y-95757380D01*
X91428571Y-95805000D01*
X91333333Y-95900238D01*
X91285714Y-95995476D01*
X91238095Y-96185952D01*
X91238095Y-96328809D01*
X91285714Y-96519285D01*
X91333333Y-96614523D01*
X91428571Y-96709761D01*
X91571428Y-96757380D01*
X91666666Y-96757380D01*
X91809523Y-96709761D01*
X91857142Y-96662142D01*
X91857142Y-96328809D01*
X91666666Y-96328809D01*
X92761904Y-96757380D02*
X92285714Y-96757380D01*
X92285714Y-95757380D01*
X93095238Y-96233571D02*
X93428571Y-96233571D01*
X93571428Y-96757380D02*
X93095238Y-96757380D01*
X93095238Y-95757380D01*
X93571428Y-95757380D01*
X46466666Y-70252380D02*
X46800000Y-71252380D01*
X47133333Y-70252380D01*
X48038095Y-71157142D02*
X47990476Y-71204761D01*
X47847619Y-71252380D01*
X47752380Y-71252380D01*
X47609523Y-71204761D01*
X47514285Y-71109523D01*
X47466666Y-71014285D01*
X47419047Y-70823809D01*
X47419047Y-70680952D01*
X47466666Y-70490476D01*
X47514285Y-70395238D01*
X47609523Y-70300000D01*
X47752380Y-70252380D01*
X47847619Y-70252380D01*
X47990476Y-70300000D01*
X48038095Y-70347619D01*
X49038095Y-71157142D02*
X48990476Y-71204761D01*
X48847619Y-71252380D01*
X48752380Y-71252380D01*
X48609523Y-71204761D01*
X48514285Y-71109523D01*
X48466666Y-71014285D01*
X48419047Y-70823809D01*
X48419047Y-70680952D01*
X48466666Y-70490476D01*
X48514285Y-70395238D01*
X48609523Y-70300000D01*
X48752380Y-70252380D01*
X48847619Y-70252380D01*
X48990476Y-70300000D01*
X49038095Y-70347619D01*
X86352380Y-88542857D02*
X85876190Y-88876190D01*
X86352380Y-89114285D02*
X85352380Y-89114285D01*
X85352380Y-88733333D01*
X85400000Y-88638095D01*
X85447619Y-88590476D01*
X85542857Y-88542857D01*
X85685714Y-88542857D01*
X85780952Y-88590476D01*
X85828571Y-88638095D01*
X85876190Y-88733333D01*
X85876190Y-89114285D01*
X85447619Y-88161904D02*
X85400000Y-88114285D01*
X85352380Y-88019047D01*
X85352380Y-87780952D01*
X85400000Y-87685714D01*
X85447619Y-87638095D01*
X85542857Y-87590476D01*
X85638095Y-87590476D01*
X85780952Y-87638095D01*
X86352380Y-88209523D01*
X86352380Y-87590476D01*
X85780952Y-87019047D02*
X85733333Y-87114285D01*
X85685714Y-87161904D01*
X85590476Y-87209523D01*
X85542857Y-87209523D01*
X85447619Y-87161904D01*
X85400000Y-87114285D01*
X85352380Y-87019047D01*
X85352380Y-86828571D01*
X85400000Y-86733333D01*
X85447619Y-86685714D01*
X85542857Y-86638095D01*
X85590476Y-86638095D01*
X85685714Y-86685714D01*
X85733333Y-86733333D01*
X85780952Y-86828571D01*
X85780952Y-87019047D01*
X85828571Y-87114285D01*
X85876190Y-87161904D01*
X85971428Y-87209523D01*
X86161904Y-87209523D01*
X86257142Y-87161904D01*
X86304761Y-87114285D01*
X86352380Y-87019047D01*
X86352380Y-86828571D01*
X86304761Y-86733333D01*
X86257142Y-86685714D01*
X86161904Y-86638095D01*
X85971428Y-86638095D01*
X85876190Y-86685714D01*
X85828571Y-86733333D01*
X85780952Y-86828571D01*
X59357142Y-49342857D02*
X59404761Y-49390476D01*
X59452380Y-49533333D01*
X59452380Y-49628571D01*
X59404761Y-49771428D01*
X59309523Y-49866666D01*
X59214285Y-49914285D01*
X59023809Y-49961904D01*
X58880952Y-49961904D01*
X58690476Y-49914285D01*
X58595238Y-49866666D01*
X58500000Y-49771428D01*
X58452380Y-49628571D01*
X58452380Y-49533333D01*
X58500000Y-49390476D01*
X58547619Y-49342857D01*
X58452380Y-49009523D02*
X58452380Y-48390476D01*
X58833333Y-48723809D01*
X58833333Y-48580952D01*
X58880952Y-48485714D01*
X58928571Y-48438095D01*
X59023809Y-48390476D01*
X59261904Y-48390476D01*
X59357142Y-48438095D01*
X59404761Y-48485714D01*
X59452380Y-48580952D01*
X59452380Y-48866666D01*
X59404761Y-48961904D01*
X59357142Y-49009523D01*
X58452380Y-48057142D02*
X58452380Y-47438095D01*
X58833333Y-47771428D01*
X58833333Y-47628571D01*
X58880952Y-47533333D01*
X58928571Y-47485714D01*
X59023809Y-47438095D01*
X59261904Y-47438095D01*
X59357142Y-47485714D01*
X59404761Y-47533333D01*
X59452380Y-47628571D01*
X59452380Y-47914285D01*
X59404761Y-48009523D01*
X59357142Y-48057142D01*
X57452380Y-101542857D02*
X56976190Y-101876190D01*
X57452380Y-102114285D02*
X56452380Y-102114285D01*
X56452380Y-101733333D01*
X56500000Y-101638095D01*
X56547619Y-101590476D01*
X56642857Y-101542857D01*
X56785714Y-101542857D01*
X56880952Y-101590476D01*
X56928571Y-101638095D01*
X56976190Y-101733333D01*
X56976190Y-102114285D01*
X57452380Y-100590476D02*
X57452380Y-101161904D01*
X57452380Y-100876190D02*
X56452380Y-100876190D01*
X56595238Y-100971428D01*
X56690476Y-101066666D01*
X56738095Y-101161904D01*
X57452380Y-100114285D02*
X57452380Y-99923809D01*
X57404761Y-99828571D01*
X57357142Y-99780952D01*
X57214285Y-99685714D01*
X57023809Y-99638095D01*
X56642857Y-99638095D01*
X56547619Y-99685714D01*
X56500000Y-99733333D01*
X56452380Y-99828571D01*
X56452380Y-100019047D01*
X56500000Y-100114285D01*
X56547619Y-100161904D01*
X56642857Y-100209523D01*
X56880952Y-100209523D01*
X56976190Y-100161904D01*
X57023809Y-100114285D01*
X57071428Y-100019047D01*
X57071428Y-99828571D01*
X57023809Y-99733333D01*
X56976190Y-99685714D01*
X56880952Y-99638095D01*
X105357142Y-57157142D02*
X105309523Y-57204761D01*
X105166666Y-57252380D01*
X105071428Y-57252380D01*
X104928571Y-57204761D01*
X104833333Y-57109523D01*
X104785714Y-57014285D01*
X104738095Y-56823809D01*
X104738095Y-56680952D01*
X104785714Y-56490476D01*
X104833333Y-56395238D01*
X104928571Y-56300000D01*
X105071428Y-56252380D01*
X105166666Y-56252380D01*
X105309523Y-56300000D01*
X105357142Y-56347619D01*
X106214285Y-56585714D02*
X106214285Y-57252380D01*
X105976190Y-56204761D02*
X105738095Y-56919047D01*
X106357142Y-56919047D01*
X106690476Y-56347619D02*
X106738095Y-56300000D01*
X106833333Y-56252380D01*
X107071428Y-56252380D01*
X107166666Y-56300000D01*
X107214285Y-56347619D01*
X107261904Y-56442857D01*
X107261904Y-56538095D01*
X107214285Y-56680952D01*
X106642857Y-57252380D01*
X107261904Y-57252380D01*
X89257142Y-54257142D02*
X89209523Y-54304761D01*
X89066666Y-54352380D01*
X88971428Y-54352380D01*
X88828571Y-54304761D01*
X88733333Y-54209523D01*
X88685714Y-54114285D01*
X88638095Y-53923809D01*
X88638095Y-53780952D01*
X88685714Y-53590476D01*
X88733333Y-53495238D01*
X88828571Y-53400000D01*
X88971428Y-53352380D01*
X89066666Y-53352380D01*
X89209523Y-53400000D01*
X89257142Y-53447619D01*
X89590476Y-53352380D02*
X90209523Y-53352380D01*
X89876190Y-53733333D01*
X90019047Y-53733333D01*
X90114285Y-53780952D01*
X90161904Y-53828571D01*
X90209523Y-53923809D01*
X90209523Y-54161904D01*
X90161904Y-54257142D01*
X90114285Y-54304761D01*
X90019047Y-54352380D01*
X89733333Y-54352380D01*
X89638095Y-54304761D01*
X89590476Y-54257142D01*
X91114285Y-53352380D02*
X90638095Y-53352380D01*
X90590476Y-53828571D01*
X90638095Y-53780952D01*
X90733333Y-53733333D01*
X90971428Y-53733333D01*
X91066666Y-53780952D01*
X91114285Y-53828571D01*
X91161904Y-53923809D01*
X91161904Y-54161904D01*
X91114285Y-54257142D01*
X91066666Y-54304761D01*
X90971428Y-54352380D01*
X90733333Y-54352380D01*
X90638095Y-54304761D01*
X90590476Y-54257142D01*
X49052380Y-94442857D02*
X48576190Y-94776190D01*
X49052380Y-95014285D02*
X48052380Y-95014285D01*
X48052380Y-94633333D01*
X48100000Y-94538095D01*
X48147619Y-94490476D01*
X48242857Y-94442857D01*
X48385714Y-94442857D01*
X48480952Y-94490476D01*
X48528571Y-94538095D01*
X48576190Y-94633333D01*
X48576190Y-95014285D01*
X49052380Y-93490476D02*
X49052380Y-94061904D01*
X49052380Y-93776190D02*
X48052380Y-93776190D01*
X48195238Y-93871428D01*
X48290476Y-93966666D01*
X48338095Y-94061904D01*
X48052380Y-93157142D02*
X48052380Y-92490476D01*
X49052380Y-92919047D01*
X64804761Y-38547619D02*
X64709523Y-38500000D01*
X64614285Y-38404761D01*
X64471428Y-38261904D01*
X64376190Y-38214285D01*
X64280952Y-38214285D01*
X64328571Y-38452380D02*
X64233333Y-38404761D01*
X64138095Y-38309523D01*
X64090476Y-38119047D01*
X64090476Y-37785714D01*
X64138095Y-37595238D01*
X64233333Y-37500000D01*
X64328571Y-37452380D01*
X64519047Y-37452380D01*
X64614285Y-37500000D01*
X64709523Y-37595238D01*
X64757142Y-37785714D01*
X64757142Y-38119047D01*
X64709523Y-38309523D01*
X64614285Y-38404761D01*
X64519047Y-38452380D01*
X64328571Y-38452380D01*
X65709523Y-38452380D02*
X65138095Y-38452380D01*
X65423809Y-38452380D02*
X65423809Y-37452380D01*
X65328571Y-37595238D01*
X65233333Y-37690476D01*
X65138095Y-37738095D01*
X71157142Y-55557142D02*
X71109523Y-55604761D01*
X70966666Y-55652380D01*
X70871428Y-55652380D01*
X70728571Y-55604761D01*
X70633333Y-55509523D01*
X70585714Y-55414285D01*
X70538095Y-55223809D01*
X70538095Y-55080952D01*
X70585714Y-54890476D01*
X70633333Y-54795238D01*
X70728571Y-54700000D01*
X70871428Y-54652380D01*
X70966666Y-54652380D01*
X71109523Y-54700000D01*
X71157142Y-54747619D01*
X71538095Y-54747619D02*
X71585714Y-54700000D01*
X71680952Y-54652380D01*
X71919047Y-54652380D01*
X72014285Y-54700000D01*
X72061904Y-54747619D01*
X72109523Y-54842857D01*
X72109523Y-54938095D01*
X72061904Y-55080952D01*
X71490476Y-55652380D01*
X72109523Y-55652380D01*
X73014285Y-54652380D02*
X72538095Y-54652380D01*
X72490476Y-55128571D01*
X72538095Y-55080952D01*
X72633333Y-55033333D01*
X72871428Y-55033333D01*
X72966666Y-55080952D01*
X73014285Y-55128571D01*
X73061904Y-55223809D01*
X73061904Y-55461904D01*
X73014285Y-55557142D01*
X72966666Y-55604761D01*
X72871428Y-55652380D01*
X72633333Y-55652380D01*
X72538095Y-55604761D01*
X72490476Y-55557142D01*
X55857142Y-49342857D02*
X55904761Y-49390476D01*
X55952380Y-49533333D01*
X55952380Y-49628571D01*
X55904761Y-49771428D01*
X55809523Y-49866666D01*
X55714285Y-49914285D01*
X55523809Y-49961904D01*
X55380952Y-49961904D01*
X55190476Y-49914285D01*
X55095238Y-49866666D01*
X55000000Y-49771428D01*
X54952380Y-49628571D01*
X54952380Y-49533333D01*
X55000000Y-49390476D01*
X55047619Y-49342857D01*
X54952380Y-49009523D02*
X54952380Y-48390476D01*
X55333333Y-48723809D01*
X55333333Y-48580952D01*
X55380952Y-48485714D01*
X55428571Y-48438095D01*
X55523809Y-48390476D01*
X55761904Y-48390476D01*
X55857142Y-48438095D01*
X55904761Y-48485714D01*
X55952380Y-48580952D01*
X55952380Y-48866666D01*
X55904761Y-48961904D01*
X55857142Y-49009523D01*
X55047619Y-48009523D02*
X55000000Y-47961904D01*
X54952380Y-47866666D01*
X54952380Y-47628571D01*
X55000000Y-47533333D01*
X55047619Y-47485714D01*
X55142857Y-47438095D01*
X55238095Y-47438095D01*
X55380952Y-47485714D01*
X55952380Y-48057142D01*
X55952380Y-47438095D01*
X40657142Y-79042857D02*
X40704761Y-79090476D01*
X40752380Y-79233333D01*
X40752380Y-79328571D01*
X40704761Y-79471428D01*
X40609523Y-79566666D01*
X40514285Y-79614285D01*
X40323809Y-79661904D01*
X40180952Y-79661904D01*
X39990476Y-79614285D01*
X39895238Y-79566666D01*
X39800000Y-79471428D01*
X39752380Y-79328571D01*
X39752380Y-79233333D01*
X39800000Y-79090476D01*
X39847619Y-79042857D01*
X40752380Y-78090476D02*
X40752380Y-78661904D01*
X40752380Y-78376190D02*
X39752380Y-78376190D01*
X39895238Y-78471428D01*
X39990476Y-78566666D01*
X40038095Y-78661904D01*
X39847619Y-77709523D02*
X39800000Y-77661904D01*
X39752380Y-77566666D01*
X39752380Y-77328571D01*
X39800000Y-77233333D01*
X39847619Y-77185714D01*
X39942857Y-77138095D01*
X40038095Y-77138095D01*
X40180952Y-77185714D01*
X40752380Y-77757142D01*
X40752380Y-77138095D01*
X39757142Y-73257142D02*
X39709523Y-73304761D01*
X39566666Y-73352380D01*
X39471428Y-73352380D01*
X39328571Y-73304761D01*
X39233333Y-73209523D01*
X39185714Y-73114285D01*
X39138095Y-72923809D01*
X39138095Y-72780952D01*
X39185714Y-72590476D01*
X39233333Y-72495238D01*
X39328571Y-72400000D01*
X39471428Y-72352380D01*
X39566666Y-72352380D01*
X39709523Y-72400000D01*
X39757142Y-72447619D01*
X40614285Y-72685714D02*
X40614285Y-73352380D01*
X40376190Y-72304761D02*
X40138095Y-73019047D01*
X40757142Y-73019047D01*
X41328571Y-72352380D02*
X41423809Y-72352380D01*
X41519047Y-72400000D01*
X41566666Y-72447619D01*
X41614285Y-72542857D01*
X41661904Y-72733333D01*
X41661904Y-72971428D01*
X41614285Y-73161904D01*
X41566666Y-73257142D01*
X41519047Y-73304761D01*
X41423809Y-73352380D01*
X41328571Y-73352380D01*
X41233333Y-73304761D01*
X41185714Y-73257142D01*
X41138095Y-73161904D01*
X41090476Y-72971428D01*
X41090476Y-72733333D01*
X41138095Y-72542857D01*
X41185714Y-72447619D01*
X41233333Y-72400000D01*
X41328571Y-72352380D01*
X108252380Y-76642857D02*
X107776190Y-76976190D01*
X108252380Y-77214285D02*
X107252380Y-77214285D01*
X107252380Y-76833333D01*
X107300000Y-76738095D01*
X107347619Y-76690476D01*
X107442857Y-76642857D01*
X107585714Y-76642857D01*
X107680952Y-76690476D01*
X107728571Y-76738095D01*
X107776190Y-76833333D01*
X107776190Y-77214285D01*
X107347619Y-76261904D02*
X107300000Y-76214285D01*
X107252380Y-76119047D01*
X107252380Y-75880952D01*
X107300000Y-75785714D01*
X107347619Y-75738095D01*
X107442857Y-75690476D01*
X107538095Y-75690476D01*
X107680952Y-75738095D01*
X108252380Y-76309523D01*
X108252380Y-75690476D01*
X107252380Y-74833333D02*
X107252380Y-75023809D01*
X107300000Y-75119047D01*
X107347619Y-75166666D01*
X107490476Y-75261904D01*
X107680952Y-75309523D01*
X108061904Y-75309523D01*
X108157142Y-75261904D01*
X108204761Y-75214285D01*
X108252380Y-75119047D01*
X108252380Y-74928571D01*
X108204761Y-74833333D01*
X108157142Y-74785714D01*
X108061904Y-74738095D01*
X107823809Y-74738095D01*
X107728571Y-74785714D01*
X107680952Y-74833333D01*
X107633333Y-74928571D01*
X107633333Y-75119047D01*
X107680952Y-75214285D01*
X107728571Y-75261904D01*
X107823809Y-75309523D01*
X73833333Y-59457142D02*
X73785714Y-59504761D01*
X73642857Y-59552380D01*
X73547619Y-59552380D01*
X73404761Y-59504761D01*
X73309523Y-59409523D01*
X73261904Y-59314285D01*
X73214285Y-59123809D01*
X73214285Y-58980952D01*
X73261904Y-58790476D01*
X73309523Y-58695238D01*
X73404761Y-58600000D01*
X73547619Y-58552380D01*
X73642857Y-58552380D01*
X73785714Y-58600000D01*
X73833333Y-58647619D01*
X74404761Y-58980952D02*
X74309523Y-58933333D01*
X74261904Y-58885714D01*
X74214285Y-58790476D01*
X74214285Y-58742857D01*
X74261904Y-58647619D01*
X74309523Y-58600000D01*
X74404761Y-58552380D01*
X74595238Y-58552380D01*
X74690476Y-58600000D01*
X74738095Y-58647619D01*
X74785714Y-58742857D01*
X74785714Y-58790476D01*
X74738095Y-58885714D01*
X74690476Y-58933333D01*
X74595238Y-58980952D01*
X74404761Y-58980952D01*
X74309523Y-59028571D01*
X74261904Y-59076190D01*
X74214285Y-59171428D01*
X74214285Y-59361904D01*
X74261904Y-59457142D01*
X74309523Y-59504761D01*
X74404761Y-59552380D01*
X74595238Y-59552380D01*
X74690476Y-59504761D01*
X74738095Y-59457142D01*
X74785714Y-59361904D01*
X74785714Y-59171428D01*
X74738095Y-59076190D01*
X74690476Y-59028571D01*
X74595238Y-58980952D01*
X103261904Y-74152380D02*
X103261904Y-73152380D01*
X103500000Y-73152380D01*
X103642857Y-73200000D01*
X103738095Y-73295238D01*
X103785714Y-73390476D01*
X103833333Y-73580952D01*
X103833333Y-73723809D01*
X103785714Y-73914285D01*
X103738095Y-74009523D01*
X103642857Y-74104761D01*
X103500000Y-74152380D01*
X103261904Y-74152380D01*
X104738095Y-73152380D02*
X104261904Y-73152380D01*
X104214285Y-73628571D01*
X104261904Y-73580952D01*
X104357142Y-73533333D01*
X104595238Y-73533333D01*
X104690476Y-73580952D01*
X104738095Y-73628571D01*
X104785714Y-73723809D01*
X104785714Y-73961904D01*
X104738095Y-74057142D01*
X104690476Y-74104761D01*
X104595238Y-74152380D01*
X104357142Y-74152380D01*
X104261904Y-74104761D01*
X104214285Y-74057142D01*
X48857142Y-91017142D02*
X48809523Y-91064761D01*
X48666666Y-91112380D01*
X48571428Y-91112380D01*
X48428571Y-91064761D01*
X48333333Y-90969523D01*
X48285714Y-90874285D01*
X48238095Y-90683809D01*
X48238095Y-90540952D01*
X48285714Y-90350476D01*
X48333333Y-90255238D01*
X48428571Y-90160000D01*
X48571428Y-90112380D01*
X48666666Y-90112380D01*
X48809523Y-90160000D01*
X48857142Y-90207619D01*
X49190476Y-90112380D02*
X49809523Y-90112380D01*
X49476190Y-90493333D01*
X49619047Y-90493333D01*
X49714285Y-90540952D01*
X49761904Y-90588571D01*
X49809523Y-90683809D01*
X49809523Y-90921904D01*
X49761904Y-91017142D01*
X49714285Y-91064761D01*
X49619047Y-91112380D01*
X49333333Y-91112380D01*
X49238095Y-91064761D01*
X49190476Y-91017142D01*
X50666666Y-90445714D02*
X50666666Y-91112380D01*
X50428571Y-90064761D02*
X50190476Y-90779047D01*
X50809523Y-90779047D01*
X100952380Y-40566666D02*
X100476190Y-40900000D01*
X100952380Y-41138095D02*
X99952380Y-41138095D01*
X99952380Y-40757142D01*
X100000000Y-40661904D01*
X100047619Y-40614285D01*
X100142857Y-40566666D01*
X100285714Y-40566666D01*
X100380952Y-40614285D01*
X100428571Y-40661904D01*
X100476190Y-40757142D01*
X100476190Y-41138095D01*
X99952380Y-40233333D02*
X99952380Y-39566666D01*
X100952380Y-39995238D01*
X91533333Y-66457142D02*
X91485714Y-66504761D01*
X91342857Y-66552380D01*
X91247619Y-66552380D01*
X91104761Y-66504761D01*
X91009523Y-66409523D01*
X90961904Y-66314285D01*
X90914285Y-66123809D01*
X90914285Y-65980952D01*
X90961904Y-65790476D01*
X91009523Y-65695238D01*
X91104761Y-65600000D01*
X91247619Y-65552380D01*
X91342857Y-65552380D01*
X91485714Y-65600000D01*
X91533333Y-65647619D01*
X92485714Y-66552380D02*
X91914285Y-66552380D01*
X92200000Y-66552380D02*
X92200000Y-65552380D01*
X92104761Y-65695238D01*
X92009523Y-65790476D01*
X91914285Y-65838095D01*
X71157142Y-59157142D02*
X71109523Y-59204761D01*
X70966666Y-59252380D01*
X70871428Y-59252380D01*
X70728571Y-59204761D01*
X70633333Y-59109523D01*
X70585714Y-59014285D01*
X70538095Y-58823809D01*
X70538095Y-58680952D01*
X70585714Y-58490476D01*
X70633333Y-58395238D01*
X70728571Y-58300000D01*
X70871428Y-58252380D01*
X70966666Y-58252380D01*
X71109523Y-58300000D01*
X71157142Y-58347619D01*
X71538095Y-58347619D02*
X71585714Y-58300000D01*
X71680952Y-58252380D01*
X71919047Y-58252380D01*
X72014285Y-58300000D01*
X72061904Y-58347619D01*
X72109523Y-58442857D01*
X72109523Y-58538095D01*
X72061904Y-58680952D01*
X71490476Y-59252380D01*
X72109523Y-59252380D01*
X72490476Y-58347619D02*
X72538095Y-58300000D01*
X72633333Y-58252380D01*
X72871428Y-58252380D01*
X72966666Y-58300000D01*
X73014285Y-58347619D01*
X73061904Y-58442857D01*
X73061904Y-58538095D01*
X73014285Y-58680952D01*
X72442857Y-59252380D01*
X73061904Y-59252380D01*
X67952380Y-88966666D02*
X67476190Y-89300000D01*
X67952380Y-89538095D02*
X66952380Y-89538095D01*
X66952380Y-89157142D01*
X67000000Y-89061904D01*
X67047619Y-89014285D01*
X67142857Y-88966666D01*
X67285714Y-88966666D01*
X67380952Y-89014285D01*
X67428571Y-89061904D01*
X67476190Y-89157142D01*
X67476190Y-89538095D01*
X67952380Y-88014285D02*
X67952380Y-88585714D01*
X67952380Y-88300000D02*
X66952380Y-88300000D01*
X67095238Y-88395238D01*
X67190476Y-88490476D01*
X67238095Y-88585714D01*
X31166666Y-37752380D02*
X31166666Y-38466666D01*
X31119047Y-38609523D01*
X31023809Y-38704761D01*
X30880952Y-38752380D01*
X30785714Y-38752380D01*
X31547619Y-37752380D02*
X32166666Y-37752380D01*
X31833333Y-38133333D01*
X31976190Y-38133333D01*
X32071428Y-38180952D01*
X32119047Y-38228571D01*
X32166666Y-38323809D01*
X32166666Y-38561904D01*
X32119047Y-38657142D01*
X32071428Y-38704761D01*
X31976190Y-38752380D01*
X31690476Y-38752380D01*
X31595238Y-38704761D01*
X31547619Y-38657142D01*
X71157142Y-66157142D02*
X71109523Y-66204761D01*
X70966666Y-66252380D01*
X70871428Y-66252380D01*
X70728571Y-66204761D01*
X70633333Y-66109523D01*
X70585714Y-66014285D01*
X70538095Y-65823809D01*
X70538095Y-65680952D01*
X70585714Y-65490476D01*
X70633333Y-65395238D01*
X70728571Y-65300000D01*
X70871428Y-65252380D01*
X70966666Y-65252380D01*
X71109523Y-65300000D01*
X71157142Y-65347619D01*
X71538095Y-65347619D02*
X71585714Y-65300000D01*
X71680952Y-65252380D01*
X71919047Y-65252380D01*
X72014285Y-65300000D01*
X72061904Y-65347619D01*
X72109523Y-65442857D01*
X72109523Y-65538095D01*
X72061904Y-65680952D01*
X71490476Y-66252380D01*
X72109523Y-66252380D01*
X72728571Y-65252380D02*
X72823809Y-65252380D01*
X72919047Y-65300000D01*
X72966666Y-65347619D01*
X73014285Y-65442857D01*
X73061904Y-65633333D01*
X73061904Y-65871428D01*
X73014285Y-66061904D01*
X72966666Y-66157142D01*
X72919047Y-66204761D01*
X72823809Y-66252380D01*
X72728571Y-66252380D01*
X72633333Y-66204761D01*
X72585714Y-66157142D01*
X72538095Y-66061904D01*
X72490476Y-65871428D01*
X72490476Y-65633333D01*
X72538095Y-65442857D01*
X72585714Y-65347619D01*
X72633333Y-65300000D01*
X72728571Y-65252380D01*
X71157142Y-62657142D02*
X71109523Y-62704761D01*
X70966666Y-62752380D01*
X70871428Y-62752380D01*
X70728571Y-62704761D01*
X70633333Y-62609523D01*
X70585714Y-62514285D01*
X70538095Y-62323809D01*
X70538095Y-62180952D01*
X70585714Y-61990476D01*
X70633333Y-61895238D01*
X70728571Y-61800000D01*
X70871428Y-61752380D01*
X70966666Y-61752380D01*
X71109523Y-61800000D01*
X71157142Y-61847619D01*
X72109523Y-62752380D02*
X71538095Y-62752380D01*
X71823809Y-62752380D02*
X71823809Y-61752380D01*
X71728571Y-61895238D01*
X71633333Y-61990476D01*
X71538095Y-62038095D01*
X72680952Y-62180952D02*
X72585714Y-62133333D01*
X72538095Y-62085714D01*
X72490476Y-61990476D01*
X72490476Y-61942857D01*
X72538095Y-61847619D01*
X72585714Y-61800000D01*
X72680952Y-61752380D01*
X72871428Y-61752380D01*
X72966666Y-61800000D01*
X73014285Y-61847619D01*
X73061904Y-61942857D01*
X73061904Y-61990476D01*
X73014285Y-62085714D01*
X72966666Y-62133333D01*
X72871428Y-62180952D01*
X72680952Y-62180952D01*
X72585714Y-62228571D01*
X72538095Y-62276190D01*
X72490476Y-62371428D01*
X72490476Y-62561904D01*
X72538095Y-62657142D01*
X72585714Y-62704761D01*
X72680952Y-62752380D01*
X72871428Y-62752380D01*
X72966666Y-62704761D01*
X73014285Y-62657142D01*
X73061904Y-62561904D01*
X73061904Y-62371428D01*
X73014285Y-62276190D01*
X72966666Y-62228571D01*
X72871428Y-62180952D01*
X102757142Y-59266666D02*
X102804761Y-59314285D01*
X102852380Y-59457142D01*
X102852380Y-59552380D01*
X102804761Y-59695238D01*
X102709523Y-59790476D01*
X102614285Y-59838095D01*
X102423809Y-59885714D01*
X102280952Y-59885714D01*
X102090476Y-59838095D01*
X101995238Y-59790476D01*
X101900000Y-59695238D01*
X101852380Y-59552380D01*
X101852380Y-59457142D01*
X101900000Y-59314285D01*
X101947619Y-59266666D01*
X101852380Y-58409523D02*
X101852380Y-58600000D01*
X101900000Y-58695238D01*
X101947619Y-58742857D01*
X102090476Y-58838095D01*
X102280952Y-58885714D01*
X102661904Y-58885714D01*
X102757142Y-58838095D01*
X102804761Y-58790476D01*
X102852380Y-58695238D01*
X102852380Y-58504761D01*
X102804761Y-58409523D01*
X102757142Y-58361904D01*
X102661904Y-58314285D01*
X102423809Y-58314285D01*
X102328571Y-58361904D01*
X102280952Y-58409523D01*
X102233333Y-58504761D01*
X102233333Y-58695238D01*
X102280952Y-58790476D01*
X102328571Y-58838095D01*
X102423809Y-58885714D01*
X40957142Y-65742857D02*
X41004761Y-65790476D01*
X41052380Y-65933333D01*
X41052380Y-66028571D01*
X41004761Y-66171428D01*
X40909523Y-66266666D01*
X40814285Y-66314285D01*
X40623809Y-66361904D01*
X40480952Y-66361904D01*
X40290476Y-66314285D01*
X40195238Y-66266666D01*
X40100000Y-66171428D01*
X40052380Y-66028571D01*
X40052380Y-65933333D01*
X40100000Y-65790476D01*
X40147619Y-65742857D01*
X40052380Y-65409523D02*
X40052380Y-64790476D01*
X40433333Y-65123809D01*
X40433333Y-64980952D01*
X40480952Y-64885714D01*
X40528571Y-64838095D01*
X40623809Y-64790476D01*
X40861904Y-64790476D01*
X40957142Y-64838095D01*
X41004761Y-64885714D01*
X41052380Y-64980952D01*
X41052380Y-65266666D01*
X41004761Y-65361904D01*
X40957142Y-65409523D01*
X40480952Y-64219047D02*
X40433333Y-64314285D01*
X40385714Y-64361904D01*
X40290476Y-64409523D01*
X40242857Y-64409523D01*
X40147619Y-64361904D01*
X40100000Y-64314285D01*
X40052380Y-64219047D01*
X40052380Y-64028571D01*
X40100000Y-63933333D01*
X40147619Y-63885714D01*
X40242857Y-63838095D01*
X40290476Y-63838095D01*
X40385714Y-63885714D01*
X40433333Y-63933333D01*
X40480952Y-64028571D01*
X40480952Y-64219047D01*
X40528571Y-64314285D01*
X40576190Y-64361904D01*
X40671428Y-64409523D01*
X40861904Y-64409523D01*
X40957142Y-64361904D01*
X41004761Y-64314285D01*
X41052380Y-64219047D01*
X41052380Y-64028571D01*
X41004761Y-63933333D01*
X40957142Y-63885714D01*
X40861904Y-63838095D01*
X40671428Y-63838095D01*
X40576190Y-63885714D01*
X40528571Y-63933333D01*
X40480952Y-64028571D01*
X59652380Y-93742857D02*
X59176190Y-94076190D01*
X59652380Y-94314285D02*
X58652380Y-94314285D01*
X58652380Y-93933333D01*
X58700000Y-93838095D01*
X58747619Y-93790476D01*
X58842857Y-93742857D01*
X58985714Y-93742857D01*
X59080952Y-93790476D01*
X59128571Y-93838095D01*
X59176190Y-93933333D01*
X59176190Y-94314285D01*
X59652380Y-92790476D02*
X59652380Y-93361904D01*
X59652380Y-93076190D02*
X58652380Y-93076190D01*
X58795238Y-93171428D01*
X58890476Y-93266666D01*
X58938095Y-93361904D01*
X58652380Y-91933333D02*
X58652380Y-92123809D01*
X58700000Y-92219047D01*
X58747619Y-92266666D01*
X58890476Y-92361904D01*
X59080952Y-92409523D01*
X59461904Y-92409523D01*
X59557142Y-92361904D01*
X59604761Y-92314285D01*
X59652380Y-92219047D01*
X59652380Y-92028571D01*
X59604761Y-91933333D01*
X59557142Y-91885714D01*
X59461904Y-91838095D01*
X59223809Y-91838095D01*
X59128571Y-91885714D01*
X59080952Y-91933333D01*
X59033333Y-92028571D01*
X59033333Y-92219047D01*
X59080952Y-92314285D01*
X59128571Y-92361904D01*
X59223809Y-92409523D01*
X52557142Y-61357142D02*
X52509523Y-61404761D01*
X52366666Y-61452380D01*
X52271428Y-61452380D01*
X52128571Y-61404761D01*
X52033333Y-61309523D01*
X51985714Y-61214285D01*
X51938095Y-61023809D01*
X51938095Y-60880952D01*
X51985714Y-60690476D01*
X52033333Y-60595238D01*
X52128571Y-60500000D01*
X52271428Y-60452380D01*
X52366666Y-60452380D01*
X52509523Y-60500000D01*
X52557142Y-60547619D01*
X52890476Y-60452380D02*
X53509523Y-60452380D01*
X53176190Y-60833333D01*
X53319047Y-60833333D01*
X53414285Y-60880952D01*
X53461904Y-60928571D01*
X53509523Y-61023809D01*
X53509523Y-61261904D01*
X53461904Y-61357142D01*
X53414285Y-61404761D01*
X53319047Y-61452380D01*
X53033333Y-61452380D01*
X52938095Y-61404761D01*
X52890476Y-61357142D01*
X54128571Y-60452380D02*
X54223809Y-60452380D01*
X54319047Y-60500000D01*
X54366666Y-60547619D01*
X54414285Y-60642857D01*
X54461904Y-60833333D01*
X54461904Y-61071428D01*
X54414285Y-61261904D01*
X54366666Y-61357142D01*
X54319047Y-61404761D01*
X54223809Y-61452380D01*
X54128571Y-61452380D01*
X54033333Y-61404761D01*
X53985714Y-61357142D01*
X53938095Y-61261904D01*
X53890476Y-61071428D01*
X53890476Y-60833333D01*
X53938095Y-60642857D01*
X53985714Y-60547619D01*
X54033333Y-60500000D01*
X54128571Y-60452380D01*
X60966666Y-34952380D02*
X60966666Y-35666666D01*
X60919047Y-35809523D01*
X60823809Y-35904761D01*
X60680952Y-35952380D01*
X60585714Y-35952380D01*
X61871428Y-34952380D02*
X61680952Y-34952380D01*
X61585714Y-35000000D01*
X61538095Y-35047619D01*
X61442857Y-35190476D01*
X61395238Y-35380952D01*
X61395238Y-35761904D01*
X61442857Y-35857142D01*
X61490476Y-35904761D01*
X61585714Y-35952380D01*
X61776190Y-35952380D01*
X61871428Y-35904761D01*
X61919047Y-35857142D01*
X61966666Y-35761904D01*
X61966666Y-35523809D01*
X61919047Y-35428571D01*
X61871428Y-35380952D01*
X61776190Y-35333333D01*
X61585714Y-35333333D01*
X61490476Y-35380952D01*
X61442857Y-35428571D01*
X61395238Y-35523809D01*
X104757142Y-65566666D02*
X104804761Y-65614285D01*
X104852380Y-65757142D01*
X104852380Y-65852380D01*
X104804761Y-65995238D01*
X104709523Y-66090476D01*
X104614285Y-66138095D01*
X104423809Y-66185714D01*
X104280952Y-66185714D01*
X104090476Y-66138095D01*
X103995238Y-66090476D01*
X103900000Y-65995238D01*
X103852380Y-65852380D01*
X103852380Y-65757142D01*
X103900000Y-65614285D01*
X103947619Y-65566666D01*
X103852380Y-65233333D02*
X103852380Y-64614285D01*
X104233333Y-64947619D01*
X104233333Y-64804761D01*
X104280952Y-64709523D01*
X104328571Y-64661904D01*
X104423809Y-64614285D01*
X104661904Y-64614285D01*
X104757142Y-64661904D01*
X104804761Y-64709523D01*
X104852380Y-64804761D01*
X104852380Y-65090476D01*
X104804761Y-65185714D01*
X104757142Y-65233333D01*
X52557142Y-64857142D02*
X52509523Y-64904761D01*
X52366666Y-64952380D01*
X52271428Y-64952380D01*
X52128571Y-64904761D01*
X52033333Y-64809523D01*
X51985714Y-64714285D01*
X51938095Y-64523809D01*
X51938095Y-64380952D01*
X51985714Y-64190476D01*
X52033333Y-64095238D01*
X52128571Y-64000000D01*
X52271428Y-63952380D01*
X52366666Y-63952380D01*
X52509523Y-64000000D01*
X52557142Y-64047619D01*
X53509523Y-64952380D02*
X52938095Y-64952380D01*
X53223809Y-64952380D02*
X53223809Y-63952380D01*
X53128571Y-64095238D01*
X53033333Y-64190476D01*
X52938095Y-64238095D01*
X53985714Y-64952380D02*
X54176190Y-64952380D01*
X54271428Y-64904761D01*
X54319047Y-64857142D01*
X54414285Y-64714285D01*
X54461904Y-64523809D01*
X54461904Y-64142857D01*
X54414285Y-64047619D01*
X54366666Y-64000000D01*
X54271428Y-63952380D01*
X54080952Y-63952380D01*
X53985714Y-64000000D01*
X53938095Y-64047619D01*
X53890476Y-64142857D01*
X53890476Y-64380952D01*
X53938095Y-64476190D01*
X53985714Y-64523809D01*
X54080952Y-64571428D01*
X54271428Y-64571428D01*
X54366666Y-64523809D01*
X54414285Y-64476190D01*
X54461904Y-64380952D01*
X55452380Y-101542857D02*
X54976190Y-101876190D01*
X55452380Y-102114285D02*
X54452380Y-102114285D01*
X54452380Y-101733333D01*
X54500000Y-101638095D01*
X54547619Y-101590476D01*
X54642857Y-101542857D01*
X54785714Y-101542857D01*
X54880952Y-101590476D01*
X54928571Y-101638095D01*
X54976190Y-101733333D01*
X54976190Y-102114285D01*
X54547619Y-101161904D02*
X54500000Y-101114285D01*
X54452380Y-101019047D01*
X54452380Y-100780952D01*
X54500000Y-100685714D01*
X54547619Y-100638095D01*
X54642857Y-100590476D01*
X54738095Y-100590476D01*
X54880952Y-100638095D01*
X55452380Y-101209523D01*
X55452380Y-100590476D01*
X54452380Y-99971428D02*
X54452380Y-99876190D01*
X54500000Y-99780952D01*
X54547619Y-99733333D01*
X54642857Y-99685714D01*
X54833333Y-99638095D01*
X55071428Y-99638095D01*
X55261904Y-99685714D01*
X55357142Y-99733333D01*
X55404761Y-99780952D01*
X55452380Y-99876190D01*
X55452380Y-99971428D01*
X55404761Y-100066666D01*
X55357142Y-100114285D01*
X55261904Y-100161904D01*
X55071428Y-100209523D01*
X54833333Y-100209523D01*
X54642857Y-100161904D01*
X54547619Y-100114285D01*
X54500000Y-100066666D01*
X54452380Y-99971428D01*
X75004761Y-38547619D02*
X74909523Y-38500000D01*
X74814285Y-38404761D01*
X74671428Y-38261904D01*
X74576190Y-38214285D01*
X74480952Y-38214285D01*
X74528571Y-38452380D02*
X74433333Y-38404761D01*
X74338095Y-38309523D01*
X74290476Y-38119047D01*
X74290476Y-37785714D01*
X74338095Y-37595238D01*
X74433333Y-37500000D01*
X74528571Y-37452380D01*
X74719047Y-37452380D01*
X74814285Y-37500000D01*
X74909523Y-37595238D01*
X74957142Y-37785714D01*
X74957142Y-38119047D01*
X74909523Y-38309523D01*
X74814285Y-38404761D01*
X74719047Y-38452380D01*
X74528571Y-38452380D01*
X75290476Y-37452380D02*
X75909523Y-37452380D01*
X75576190Y-37833333D01*
X75719047Y-37833333D01*
X75814285Y-37880952D01*
X75861904Y-37928571D01*
X75909523Y-38023809D01*
X75909523Y-38261904D01*
X75861904Y-38357142D01*
X75814285Y-38404761D01*
X75719047Y-38452380D01*
X75433333Y-38452380D01*
X75338095Y-38404761D01*
X75290476Y-38357142D01*
X49338095Y-84452380D02*
X49338095Y-85261904D01*
X49385714Y-85357142D01*
X49433333Y-85404761D01*
X49528571Y-85452380D01*
X49719047Y-85452380D01*
X49814285Y-85404761D01*
X49861904Y-85357142D01*
X49909523Y-85261904D01*
X49909523Y-84452380D01*
X50909523Y-85452380D02*
X50338095Y-85452380D01*
X50623809Y-85452380D02*
X50623809Y-84452380D01*
X50528571Y-84595238D01*
X50433333Y-84690476D01*
X50338095Y-84738095D01*
X52000000Y-83652380D02*
X52000000Y-83890476D01*
X51761904Y-83795238D02*
X52000000Y-83890476D01*
X52238095Y-83795238D01*
X51857142Y-84080952D02*
X52000000Y-83890476D01*
X52142857Y-84080952D01*
X55857142Y-82857142D02*
X55809523Y-82904761D01*
X55666666Y-82952380D01*
X55571428Y-82952380D01*
X55428571Y-82904761D01*
X55333333Y-82809523D01*
X55285714Y-82714285D01*
X55238095Y-82523809D01*
X55238095Y-82380952D01*
X55285714Y-82190476D01*
X55333333Y-82095238D01*
X55428571Y-82000000D01*
X55571428Y-81952380D01*
X55666666Y-81952380D01*
X55809523Y-82000000D01*
X55857142Y-82047619D01*
X56809523Y-82952380D02*
X56238095Y-82952380D01*
X56523809Y-82952380D02*
X56523809Y-81952380D01*
X56428571Y-82095238D01*
X56333333Y-82190476D01*
X56238095Y-82238095D01*
X57666666Y-81952380D02*
X57476190Y-81952380D01*
X57380952Y-82000000D01*
X57333333Y-82047619D01*
X57238095Y-82190476D01*
X57190476Y-82380952D01*
X57190476Y-82761904D01*
X57238095Y-82857142D01*
X57285714Y-82904761D01*
X57380952Y-82952380D01*
X57571428Y-82952380D01*
X57666666Y-82904761D01*
X57714285Y-82857142D01*
X57761904Y-82761904D01*
X57761904Y-82523809D01*
X57714285Y-82428571D01*
X57666666Y-82380952D01*
X57571428Y-82333333D01*
X57380952Y-82333333D01*
X57285714Y-82380952D01*
X57238095Y-82428571D01*
X57190476Y-82523809D01*
X98827142Y-55042857D02*
X98874761Y-55090476D01*
X98922380Y-55233333D01*
X98922380Y-55328571D01*
X98874761Y-55471428D01*
X98779523Y-55566666D01*
X98684285Y-55614285D01*
X98493809Y-55661904D01*
X98350952Y-55661904D01*
X98160476Y-55614285D01*
X98065238Y-55566666D01*
X97970000Y-55471428D01*
X97922380Y-55328571D01*
X97922380Y-55233333D01*
X97970000Y-55090476D01*
X98017619Y-55042857D01*
X98255714Y-54185714D02*
X98922380Y-54185714D01*
X97874761Y-54423809D02*
X98589047Y-54661904D01*
X98589047Y-54042857D01*
X98922380Y-53138095D02*
X98922380Y-53709523D01*
X98922380Y-53423809D02*
X97922380Y-53423809D01*
X98065238Y-53519047D01*
X98160476Y-53614285D01*
X98208095Y-53709523D01*
X89057142Y-83657142D02*
X89009523Y-83704761D01*
X88866666Y-83752380D01*
X88771428Y-83752380D01*
X88628571Y-83704761D01*
X88533333Y-83609523D01*
X88485714Y-83514285D01*
X88438095Y-83323809D01*
X88438095Y-83180952D01*
X88485714Y-82990476D01*
X88533333Y-82895238D01*
X88628571Y-82800000D01*
X88771428Y-82752380D01*
X88866666Y-82752380D01*
X89009523Y-82800000D01*
X89057142Y-82847619D01*
X89390476Y-82752380D02*
X90009523Y-82752380D01*
X89676190Y-83133333D01*
X89819047Y-83133333D01*
X89914285Y-83180952D01*
X89961904Y-83228571D01*
X90009523Y-83323809D01*
X90009523Y-83561904D01*
X89961904Y-83657142D01*
X89914285Y-83704761D01*
X89819047Y-83752380D01*
X89533333Y-83752380D01*
X89438095Y-83704761D01*
X89390476Y-83657142D01*
X90342857Y-82752380D02*
X91009523Y-82752380D01*
X90580952Y-83752380D01*
X35352380Y-76642857D02*
X34876190Y-76976190D01*
X35352380Y-77214285D02*
X34352380Y-77214285D01*
X34352380Y-76833333D01*
X34400000Y-76738095D01*
X34447619Y-76690476D01*
X34542857Y-76642857D01*
X34685714Y-76642857D01*
X34780952Y-76690476D01*
X34828571Y-76738095D01*
X34876190Y-76833333D01*
X34876190Y-77214285D01*
X34447619Y-76261904D02*
X34400000Y-76214285D01*
X34352380Y-76119047D01*
X34352380Y-75880952D01*
X34400000Y-75785714D01*
X34447619Y-75738095D01*
X34542857Y-75690476D01*
X34638095Y-75690476D01*
X34780952Y-75738095D01*
X35352380Y-76309523D01*
X35352380Y-75690476D01*
X34447619Y-75309523D02*
X34400000Y-75261904D01*
X34352380Y-75166666D01*
X34352380Y-74928571D01*
X34400000Y-74833333D01*
X34447619Y-74785714D01*
X34542857Y-74738095D01*
X34638095Y-74738095D01*
X34780952Y-74785714D01*
X35352380Y-75357142D01*
X35352380Y-74738095D01*
X103157142Y-65566666D02*
X103204761Y-65614285D01*
X103252380Y-65757142D01*
X103252380Y-65852380D01*
X103204761Y-65995238D01*
X103109523Y-66090476D01*
X103014285Y-66138095D01*
X102823809Y-66185714D01*
X102680952Y-66185714D01*
X102490476Y-66138095D01*
X102395238Y-66090476D01*
X102300000Y-65995238D01*
X102252380Y-65852380D01*
X102252380Y-65757142D01*
X102300000Y-65614285D01*
X102347619Y-65566666D01*
X102347619Y-65185714D02*
X102300000Y-65138095D01*
X102252380Y-65042857D01*
X102252380Y-64804761D01*
X102300000Y-64709523D01*
X102347619Y-64661904D01*
X102442857Y-64614285D01*
X102538095Y-64614285D01*
X102680952Y-64661904D01*
X103252380Y-65233333D01*
X103252380Y-64614285D01*
X35533333Y-59207142D02*
X35485714Y-59254761D01*
X35342857Y-59302380D01*
X35247619Y-59302380D01*
X35104761Y-59254761D01*
X35009523Y-59159523D01*
X34961904Y-59064285D01*
X34914285Y-58873809D01*
X34914285Y-58730952D01*
X34961904Y-58540476D01*
X35009523Y-58445238D01*
X35104761Y-58350000D01*
X35247619Y-58302380D01*
X35342857Y-58302380D01*
X35485714Y-58350000D01*
X35533333Y-58397619D01*
X35866666Y-58302380D02*
X36533333Y-58302380D01*
X36104761Y-59302380D01*
X31852380Y-68742857D02*
X31376190Y-69076190D01*
X31852380Y-69314285D02*
X30852380Y-69314285D01*
X30852380Y-68933333D01*
X30900000Y-68838095D01*
X30947619Y-68790476D01*
X31042857Y-68742857D01*
X31185714Y-68742857D01*
X31280952Y-68790476D01*
X31328571Y-68838095D01*
X31376190Y-68933333D01*
X31376190Y-69314285D01*
X30947619Y-68361904D02*
X30900000Y-68314285D01*
X30852380Y-68219047D01*
X30852380Y-67980952D01*
X30900000Y-67885714D01*
X30947619Y-67838095D01*
X31042857Y-67790476D01*
X31138095Y-67790476D01*
X31280952Y-67838095D01*
X31852380Y-68409523D01*
X31852380Y-67790476D01*
X31852380Y-67314285D02*
X31852380Y-67123809D01*
X31804761Y-67028571D01*
X31757142Y-66980952D01*
X31614285Y-66885714D01*
X31423809Y-66838095D01*
X31042857Y-66838095D01*
X30947619Y-66885714D01*
X30900000Y-66933333D01*
X30852380Y-67028571D01*
X30852380Y-67219047D01*
X30900000Y-67314285D01*
X30947619Y-67361904D01*
X31042857Y-67409523D01*
X31280952Y-67409523D01*
X31376190Y-67361904D01*
X31423809Y-67314285D01*
X31471428Y-67219047D01*
X31471428Y-67028571D01*
X31423809Y-66933333D01*
X31376190Y-66885714D01*
X31280952Y-66838095D01*
D13*
X63161904Y-45014285D02*
X62780952Y-45280952D01*
X63161904Y-45471428D02*
X62361904Y-45471428D01*
X62361904Y-45166666D01*
X62400000Y-45090476D01*
X62438095Y-45052380D01*
X62514285Y-45014285D01*
X62628571Y-45014285D01*
X62704761Y-45052380D01*
X62742857Y-45090476D01*
X62780952Y-45166666D01*
X62780952Y-45471428D01*
X63161904Y-44252380D02*
X63161904Y-44709523D01*
X63161904Y-44480952D02*
X62361904Y-44480952D01*
X62476190Y-44557142D01*
X62552380Y-44633333D01*
X62590476Y-44709523D01*
X63161904Y-43490476D02*
X63161904Y-43947619D01*
X63161904Y-43719047D02*
X62361904Y-43719047D01*
X62476190Y-43795238D01*
X62552380Y-43871428D01*
X62590476Y-43947619D01*
D10*
X92633333Y-35552380D02*
X92300000Y-35076190D01*
X92061904Y-35552380D02*
X92061904Y-34552380D01*
X92442857Y-34552380D01*
X92538095Y-34600000D01*
X92585714Y-34647619D01*
X92633333Y-34742857D01*
X92633333Y-34885714D01*
X92585714Y-34980952D01*
X92538095Y-35028571D01*
X92442857Y-35076190D01*
X92061904Y-35076190D01*
X93538095Y-34552380D02*
X93061904Y-34552380D01*
X93014285Y-35028571D01*
X93061904Y-34980952D01*
X93157142Y-34933333D01*
X93395238Y-34933333D01*
X93490476Y-34980952D01*
X93538095Y-35028571D01*
X93585714Y-35123809D01*
X93585714Y-35361904D01*
X93538095Y-35457142D01*
X93490476Y-35504761D01*
X93395238Y-35552380D01*
X93157142Y-35552380D01*
X93061904Y-35504761D01*
X93014285Y-35457142D01*
X52557142Y-68357142D02*
X52509523Y-68404761D01*
X52366666Y-68452380D01*
X52271428Y-68452380D01*
X52128571Y-68404761D01*
X52033333Y-68309523D01*
X51985714Y-68214285D01*
X51938095Y-68023809D01*
X51938095Y-67880952D01*
X51985714Y-67690476D01*
X52033333Y-67595238D01*
X52128571Y-67500000D01*
X52271428Y-67452380D01*
X52366666Y-67452380D01*
X52509523Y-67500000D01*
X52557142Y-67547619D01*
X52938095Y-67547619D02*
X52985714Y-67500000D01*
X53080952Y-67452380D01*
X53319047Y-67452380D01*
X53414285Y-67500000D01*
X53461904Y-67547619D01*
X53509523Y-67642857D01*
X53509523Y-67738095D01*
X53461904Y-67880952D01*
X52890476Y-68452380D01*
X53509523Y-68452380D01*
X54461904Y-68452380D02*
X53890476Y-68452380D01*
X54176190Y-68452380D02*
X54176190Y-67452380D01*
X54080952Y-67595238D01*
X53985714Y-67690476D01*
X53890476Y-67738095D01*
X79604761Y-61552380D02*
X79271428Y-61076190D01*
X79033333Y-61552380D02*
X79033333Y-60552380D01*
X79414285Y-60552380D01*
X79509523Y-60600000D01*
X79557142Y-60647619D01*
X79604761Y-60742857D01*
X79604761Y-60885714D01*
X79557142Y-60980952D01*
X79509523Y-61028571D01*
X79414285Y-61076190D01*
X79033333Y-61076190D01*
X79890476Y-60552380D02*
X80223809Y-61552380D01*
X80557142Y-60552380D01*
X81414285Y-61552380D02*
X80842857Y-61552380D01*
X81128571Y-61552380D02*
X81128571Y-60552380D01*
X81033333Y-60695238D01*
X80938095Y-60790476D01*
X80842857Y-60838095D01*
X42757142Y-92942857D02*
X42804761Y-92990476D01*
X42852380Y-93133333D01*
X42852380Y-93228571D01*
X42804761Y-93371428D01*
X42709523Y-93466666D01*
X42614285Y-93514285D01*
X42423809Y-93561904D01*
X42280952Y-93561904D01*
X42090476Y-93514285D01*
X41995238Y-93466666D01*
X41900000Y-93371428D01*
X41852380Y-93228571D01*
X41852380Y-93133333D01*
X41900000Y-92990476D01*
X41947619Y-92942857D01*
X42852380Y-91990476D02*
X42852380Y-92561904D01*
X42852380Y-92276190D02*
X41852380Y-92276190D01*
X41995238Y-92371428D01*
X42090476Y-92466666D01*
X42138095Y-92561904D01*
X41852380Y-91085714D02*
X41852380Y-91561904D01*
X42328571Y-91609523D01*
X42280952Y-91561904D01*
X42233333Y-91466666D01*
X42233333Y-91228571D01*
X42280952Y-91133333D01*
X42328571Y-91085714D01*
X42423809Y-91038095D01*
X42661904Y-91038095D01*
X42757142Y-91085714D01*
X42804761Y-91133333D01*
X42852380Y-91228571D01*
X42852380Y-91466666D01*
X42804761Y-91561904D01*
X42757142Y-91609523D01*
X52657142Y-71857142D02*
X52609523Y-71904761D01*
X52466666Y-71952380D01*
X52371428Y-71952380D01*
X52228571Y-71904761D01*
X52133333Y-71809523D01*
X52085714Y-71714285D01*
X52038095Y-71523809D01*
X52038095Y-71380952D01*
X52085714Y-71190476D01*
X52133333Y-71095238D01*
X52228571Y-71000000D01*
X52371428Y-70952380D01*
X52466666Y-70952380D01*
X52609523Y-71000000D01*
X52657142Y-71047619D01*
X53038095Y-71047619D02*
X53085714Y-71000000D01*
X53180952Y-70952380D01*
X53419047Y-70952380D01*
X53514285Y-71000000D01*
X53561904Y-71047619D01*
X53609523Y-71142857D01*
X53609523Y-71238095D01*
X53561904Y-71380952D01*
X52990476Y-71952380D01*
X53609523Y-71952380D01*
X54466666Y-71285714D02*
X54466666Y-71952380D01*
X54228571Y-70904761D02*
X53990476Y-71619047D01*
X54609523Y-71619047D01*
X46357142Y-92942857D02*
X46404761Y-92990476D01*
X46452380Y-93133333D01*
X46452380Y-93228571D01*
X46404761Y-93371428D01*
X46309523Y-93466666D01*
X46214285Y-93514285D01*
X46023809Y-93561904D01*
X45880952Y-93561904D01*
X45690476Y-93514285D01*
X45595238Y-93466666D01*
X45500000Y-93371428D01*
X45452380Y-93228571D01*
X45452380Y-93133333D01*
X45500000Y-92990476D01*
X45547619Y-92942857D01*
X46452380Y-91990476D02*
X46452380Y-92561904D01*
X46452380Y-92276190D02*
X45452380Y-92276190D01*
X45595238Y-92371428D01*
X45690476Y-92466666D01*
X45738095Y-92561904D01*
X45785714Y-91133333D02*
X46452380Y-91133333D01*
X45404761Y-91371428D02*
X46119047Y-91609523D01*
X46119047Y-90990476D01*
X43357142Y-64542857D02*
X43404761Y-64590476D01*
X43452380Y-64733333D01*
X43452380Y-64828571D01*
X43404761Y-64971428D01*
X43309523Y-65066666D01*
X43214285Y-65114285D01*
X43023809Y-65161904D01*
X42880952Y-65161904D01*
X42690476Y-65114285D01*
X42595238Y-65066666D01*
X42500000Y-64971428D01*
X42452380Y-64828571D01*
X42452380Y-64733333D01*
X42500000Y-64590476D01*
X42547619Y-64542857D01*
X42452380Y-64209523D02*
X42452380Y-63590476D01*
X42833333Y-63923809D01*
X42833333Y-63780952D01*
X42880952Y-63685714D01*
X42928571Y-63638095D01*
X43023809Y-63590476D01*
X43261904Y-63590476D01*
X43357142Y-63638095D01*
X43404761Y-63685714D01*
X43452380Y-63780952D01*
X43452380Y-64066666D01*
X43404761Y-64161904D01*
X43357142Y-64209523D01*
X43452380Y-63114285D02*
X43452380Y-62923809D01*
X43404761Y-62828571D01*
X43357142Y-62780952D01*
X43214285Y-62685714D01*
X43023809Y-62638095D01*
X42642857Y-62638095D01*
X42547619Y-62685714D01*
X42500000Y-62733333D01*
X42452380Y-62828571D01*
X42452380Y-63019047D01*
X42500000Y-63114285D01*
X42547619Y-63161904D01*
X42642857Y-63209523D01*
X42880952Y-63209523D01*
X42976190Y-63161904D01*
X43023809Y-63114285D01*
X43071428Y-63019047D01*
X43071428Y-62828571D01*
X43023809Y-62733333D01*
X42976190Y-62685714D01*
X42880952Y-62638095D01*
X68361904Y-45014285D02*
X67980952Y-45280952D01*
X68361904Y-45471428D02*
X67561904Y-45471428D01*
X67561904Y-45166666D01*
X67600000Y-45090476D01*
X67638095Y-45052380D01*
X67714285Y-45014285D01*
X67828571Y-45014285D01*
X67904761Y-45052380D01*
X67942857Y-45090476D01*
X67980952Y-45166666D01*
X67980952Y-45471428D01*
X68361904Y-44252380D02*
X68361904Y-44709523D01*
X68361904Y-44480952D02*
X67561904Y-44480952D01*
X67676190Y-44557142D01*
X67752380Y-44633333D01*
X67790476Y-44709523D01*
X67561904Y-43985714D02*
X67561904Y-43490476D01*
X67866666Y-43757142D01*
X67866666Y-43642857D01*
X67904761Y-43566666D01*
X67942857Y-43528571D01*
X68019047Y-43490476D01*
X68209523Y-43490476D01*
X68285714Y-43528571D01*
X68323809Y-43566666D01*
X68361904Y-43642857D01*
X68361904Y-43871428D01*
X68323809Y-43947619D01*
X68285714Y-43985714D01*
X83133333Y-58252380D02*
X82800000Y-57776190D01*
X82561904Y-58252380D02*
X82561904Y-57252380D01*
X82942857Y-57252380D01*
X83038095Y-57300000D01*
X83085714Y-57347619D01*
X83133333Y-57442857D01*
X83133333Y-57585714D01*
X83085714Y-57680952D01*
X83038095Y-57728571D01*
X82942857Y-57776190D01*
X82561904Y-57776190D01*
X83466666Y-57252380D02*
X84085714Y-57252380D01*
X83752380Y-57633333D01*
X83895238Y-57633333D01*
X83990476Y-57680952D01*
X84038095Y-57728571D01*
X84085714Y-57823809D01*
X84085714Y-58061904D01*
X84038095Y-58157142D01*
X83990476Y-58204761D01*
X83895238Y-58252380D01*
X83609523Y-58252380D01*
X83514285Y-58204761D01*
X83466666Y-58157142D01*
X62857142Y-49342857D02*
X62904761Y-49390476D01*
X62952380Y-49533333D01*
X62952380Y-49628571D01*
X62904761Y-49771428D01*
X62809523Y-49866666D01*
X62714285Y-49914285D01*
X62523809Y-49961904D01*
X62380952Y-49961904D01*
X62190476Y-49914285D01*
X62095238Y-49866666D01*
X62000000Y-49771428D01*
X61952380Y-49628571D01*
X61952380Y-49533333D01*
X62000000Y-49390476D01*
X62047619Y-49342857D01*
X61952380Y-49009523D02*
X61952380Y-48390476D01*
X62333333Y-48723809D01*
X62333333Y-48580952D01*
X62380952Y-48485714D01*
X62428571Y-48438095D01*
X62523809Y-48390476D01*
X62761904Y-48390476D01*
X62857142Y-48438095D01*
X62904761Y-48485714D01*
X62952380Y-48580952D01*
X62952380Y-48866666D01*
X62904761Y-48961904D01*
X62857142Y-49009523D01*
X62952380Y-47438095D02*
X62952380Y-48009523D01*
X62952380Y-47723809D02*
X61952380Y-47723809D01*
X62095238Y-47819047D01*
X62190476Y-47914285D01*
X62238095Y-48009523D01*
X99452380Y-40566666D02*
X98976190Y-40900000D01*
X99452380Y-41138095D02*
X98452380Y-41138095D01*
X98452380Y-40757142D01*
X98500000Y-40661904D01*
X98547619Y-40614285D01*
X98642857Y-40566666D01*
X98785714Y-40566666D01*
X98880952Y-40614285D01*
X98928571Y-40661904D01*
X98976190Y-40757142D01*
X98976190Y-41138095D01*
X98452380Y-39709523D02*
X98452380Y-39900000D01*
X98500000Y-39995238D01*
X98547619Y-40042857D01*
X98690476Y-40138095D01*
X98880952Y-40185714D01*
X99261904Y-40185714D01*
X99357142Y-40138095D01*
X99404761Y-40090476D01*
X99452380Y-39995238D01*
X99452380Y-39804761D01*
X99404761Y-39709523D01*
X99357142Y-39661904D01*
X99261904Y-39614285D01*
X99023809Y-39614285D01*
X98928571Y-39661904D01*
X98880952Y-39709523D01*
X98833333Y-39804761D01*
X98833333Y-39995238D01*
X98880952Y-40090476D01*
X98928571Y-40138095D01*
X99023809Y-40185714D01*
X89057142Y-85652380D02*
X88723809Y-85176190D01*
X88485714Y-85652380D02*
X88485714Y-84652380D01*
X88866666Y-84652380D01*
X88961904Y-84700000D01*
X89009523Y-84747619D01*
X89057142Y-84842857D01*
X89057142Y-84985714D01*
X89009523Y-85080952D01*
X88961904Y-85128571D01*
X88866666Y-85176190D01*
X88485714Y-85176190D01*
X89438095Y-84747619D02*
X89485714Y-84700000D01*
X89580952Y-84652380D01*
X89819047Y-84652380D01*
X89914285Y-84700000D01*
X89961904Y-84747619D01*
X90009523Y-84842857D01*
X90009523Y-84938095D01*
X89961904Y-85080952D01*
X89390476Y-85652380D01*
X90009523Y-85652380D01*
X90342857Y-84652380D02*
X91009523Y-84652380D01*
X90580952Y-85652380D01*
X96702380Y-76642857D02*
X96226190Y-76976190D01*
X96702380Y-77214285D02*
X95702380Y-77214285D01*
X95702380Y-76833333D01*
X95750000Y-76738095D01*
X95797619Y-76690476D01*
X95892857Y-76642857D01*
X96035714Y-76642857D01*
X96130952Y-76690476D01*
X96178571Y-76738095D01*
X96226190Y-76833333D01*
X96226190Y-77214285D01*
X95797619Y-76261904D02*
X95750000Y-76214285D01*
X95702380Y-76119047D01*
X95702380Y-75880952D01*
X95750000Y-75785714D01*
X95797619Y-75738095D01*
X95892857Y-75690476D01*
X95988095Y-75690476D01*
X96130952Y-75738095D01*
X96702380Y-76309523D01*
X96702380Y-75690476D01*
X95702380Y-74785714D02*
X95702380Y-75261904D01*
X96178571Y-75309523D01*
X96130952Y-75261904D01*
X96083333Y-75166666D01*
X96083333Y-74928571D01*
X96130952Y-74833333D01*
X96178571Y-74785714D01*
X96273809Y-74738095D01*
X96511904Y-74738095D01*
X96607142Y-74785714D01*
X96654761Y-74833333D01*
X96702380Y-74928571D01*
X96702380Y-75166666D01*
X96654761Y-75261904D01*
X96607142Y-75309523D01*
X73752380Y-88966666D02*
X73276190Y-89300000D01*
X73752380Y-89538095D02*
X72752380Y-89538095D01*
X72752380Y-89157142D01*
X72800000Y-89061904D01*
X72847619Y-89014285D01*
X72942857Y-88966666D01*
X73085714Y-88966666D01*
X73180952Y-89014285D01*
X73228571Y-89061904D01*
X73276190Y-89157142D01*
X73276190Y-89538095D01*
X72847619Y-88585714D02*
X72800000Y-88538095D01*
X72752380Y-88442857D01*
X72752380Y-88204761D01*
X72800000Y-88109523D01*
X72847619Y-88061904D01*
X72942857Y-88014285D01*
X73038095Y-88014285D01*
X73180952Y-88061904D01*
X73752380Y-88633333D01*
X73752380Y-88014285D01*
X58152380Y-79666666D02*
X58152380Y-80142857D01*
X57152380Y-80142857D01*
X58152380Y-78809523D02*
X58152380Y-79380952D01*
X58152380Y-79095238D02*
X57152380Y-79095238D01*
X57295238Y-79190476D01*
X57390476Y-79285714D01*
X57438095Y-79380952D01*
X86238095Y-85804761D02*
X86380952Y-85852380D01*
X86619047Y-85852380D01*
X86714285Y-85804761D01*
X86761904Y-85757142D01*
X86809523Y-85661904D01*
X86809523Y-85566666D01*
X86761904Y-85471428D01*
X86714285Y-85423809D01*
X86619047Y-85376190D01*
X86428571Y-85328571D01*
X86333333Y-85280952D01*
X86285714Y-85233333D01*
X86238095Y-85138095D01*
X86238095Y-85042857D01*
X86285714Y-84947619D01*
X86333333Y-84900000D01*
X86428571Y-84852380D01*
X86666666Y-84852380D01*
X86809523Y-84900000D01*
X87190476Y-84947619D02*
X87238095Y-84900000D01*
X87333333Y-84852380D01*
X87571428Y-84852380D01*
X87666666Y-84900000D01*
X87714285Y-84947619D01*
X87761904Y-85042857D01*
X87761904Y-85138095D01*
X87714285Y-85280952D01*
X87142857Y-85852380D01*
X87761904Y-85852380D01*
X34361904Y-79452380D02*
X34361904Y-78452380D01*
X34600000Y-78452380D01*
X34742857Y-78500000D01*
X34838095Y-78595238D01*
X34885714Y-78690476D01*
X34933333Y-78880952D01*
X34933333Y-79023809D01*
X34885714Y-79214285D01*
X34838095Y-79309523D01*
X34742857Y-79404761D01*
X34600000Y-79452380D01*
X34361904Y-79452380D01*
X35885714Y-79452380D02*
X35314285Y-79452380D01*
X35600000Y-79452380D02*
X35600000Y-78452380D01*
X35504761Y-78595238D01*
X35409523Y-78690476D01*
X35314285Y-78738095D01*
X59757142Y-88857142D02*
X59709523Y-88904761D01*
X59566666Y-88952380D01*
X59471428Y-88952380D01*
X59328571Y-88904761D01*
X59233333Y-88809523D01*
X59185714Y-88714285D01*
X59138095Y-88523809D01*
X59138095Y-88380952D01*
X59185714Y-88190476D01*
X59233333Y-88095238D01*
X59328571Y-88000000D01*
X59471428Y-87952380D01*
X59566666Y-87952380D01*
X59709523Y-88000000D01*
X59757142Y-88047619D01*
X60709523Y-88952380D02*
X60138095Y-88952380D01*
X60423809Y-88952380D02*
X60423809Y-87952380D01*
X60328571Y-88095238D01*
X60233333Y-88190476D01*
X60138095Y-88238095D01*
X61661904Y-88952380D02*
X61090476Y-88952380D01*
X61376190Y-88952380D02*
X61376190Y-87952380D01*
X61280952Y-88095238D01*
X61185714Y-88190476D01*
X61090476Y-88238095D01*
X89257142Y-58757142D02*
X89209523Y-58804761D01*
X89066666Y-58852380D01*
X88971428Y-58852380D01*
X88828571Y-58804761D01*
X88733333Y-58709523D01*
X88685714Y-58614285D01*
X88638095Y-58423809D01*
X88638095Y-58280952D01*
X88685714Y-58090476D01*
X88733333Y-57995238D01*
X88828571Y-57900000D01*
X88971428Y-57852380D01*
X89066666Y-57852380D01*
X89209523Y-57900000D01*
X89257142Y-57947619D01*
X89590476Y-57852380D02*
X90209523Y-57852380D01*
X89876190Y-58233333D01*
X90019047Y-58233333D01*
X90114285Y-58280952D01*
X90161904Y-58328571D01*
X90209523Y-58423809D01*
X90209523Y-58661904D01*
X90161904Y-58757142D01*
X90114285Y-58804761D01*
X90019047Y-58852380D01*
X89733333Y-58852380D01*
X89638095Y-58804761D01*
X89590476Y-58757142D01*
X91066666Y-57852380D02*
X90876190Y-57852380D01*
X90780952Y-57900000D01*
X90733333Y-57947619D01*
X90638095Y-58090476D01*
X90590476Y-58280952D01*
X90590476Y-58661904D01*
X90638095Y-58757142D01*
X90685714Y-58804761D01*
X90780952Y-58852380D01*
X90971428Y-58852380D01*
X91066666Y-58804761D01*
X91114285Y-58757142D01*
X91161904Y-58661904D01*
X91161904Y-58423809D01*
X91114285Y-58328571D01*
X91066666Y-58280952D01*
X90971428Y-58233333D01*
X90780952Y-58233333D01*
X90685714Y-58280952D01*
X90638095Y-58328571D01*
X90590476Y-58423809D01*
X99261904Y-74152380D02*
X99261904Y-73152380D01*
X99500000Y-73152380D01*
X99642857Y-73200000D01*
X99738095Y-73295238D01*
X99785714Y-73390476D01*
X99833333Y-73580952D01*
X99833333Y-73723809D01*
X99785714Y-73914285D01*
X99738095Y-74009523D01*
X99642857Y-74104761D01*
X99500000Y-74152380D01*
X99261904Y-74152380D01*
X100690476Y-73485714D02*
X100690476Y-74152380D01*
X100452380Y-73104761D02*
X100214285Y-73819047D01*
X100833333Y-73819047D01*
X92633333Y-37552380D02*
X92300000Y-37076190D01*
X92061904Y-37552380D02*
X92061904Y-36552380D01*
X92442857Y-36552380D01*
X92538095Y-36600000D01*
X92585714Y-36647619D01*
X92633333Y-36742857D01*
X92633333Y-36885714D01*
X92585714Y-36980952D01*
X92538095Y-37028571D01*
X92442857Y-37076190D01*
X92061904Y-37076190D01*
X93490476Y-36885714D02*
X93490476Y-37552380D01*
X93252380Y-36504761D02*
X93014285Y-37219047D01*
X93633333Y-37219047D01*
X69904761Y-38547619D02*
X69809523Y-38500000D01*
X69714285Y-38404761D01*
X69571428Y-38261904D01*
X69476190Y-38214285D01*
X69380952Y-38214285D01*
X69428571Y-38452380D02*
X69333333Y-38404761D01*
X69238095Y-38309523D01*
X69190476Y-38119047D01*
X69190476Y-37785714D01*
X69238095Y-37595238D01*
X69333333Y-37500000D01*
X69428571Y-37452380D01*
X69619047Y-37452380D01*
X69714285Y-37500000D01*
X69809523Y-37595238D01*
X69857142Y-37785714D01*
X69857142Y-38119047D01*
X69809523Y-38309523D01*
X69714285Y-38404761D01*
X69619047Y-38452380D01*
X69428571Y-38452380D01*
X70238095Y-37547619D02*
X70285714Y-37500000D01*
X70380952Y-37452380D01*
X70619047Y-37452380D01*
X70714285Y-37500000D01*
X70761904Y-37547619D01*
X70809523Y-37642857D01*
X70809523Y-37738095D01*
X70761904Y-37880952D01*
X70190476Y-38452380D01*
X70809523Y-38452380D01*
X52357142Y-75842857D02*
X52404761Y-75890476D01*
X52452380Y-76033333D01*
X52452380Y-76128571D01*
X52404761Y-76271428D01*
X52309523Y-76366666D01*
X52214285Y-76414285D01*
X52023809Y-76461904D01*
X51880952Y-76461904D01*
X51690476Y-76414285D01*
X51595238Y-76366666D01*
X51500000Y-76271428D01*
X51452380Y-76128571D01*
X51452380Y-76033333D01*
X51500000Y-75890476D01*
X51547619Y-75842857D01*
X52452380Y-74890476D02*
X52452380Y-75461904D01*
X52452380Y-75176190D02*
X51452380Y-75176190D01*
X51595238Y-75271428D01*
X51690476Y-75366666D01*
X51738095Y-75461904D01*
X51452380Y-74557142D02*
X51452380Y-73938095D01*
X51833333Y-74271428D01*
X51833333Y-74128571D01*
X51880952Y-74033333D01*
X51928571Y-73985714D01*
X52023809Y-73938095D01*
X52261904Y-73938095D01*
X52357142Y-73985714D01*
X52404761Y-74033333D01*
X52452380Y-74128571D01*
X52452380Y-74414285D01*
X52404761Y-74509523D01*
X52357142Y-74557142D01*
X74533333Y-61552380D02*
X74200000Y-61076190D01*
X73961904Y-61552380D02*
X73961904Y-60552380D01*
X74342857Y-60552380D01*
X74438095Y-60600000D01*
X74485714Y-60647619D01*
X74533333Y-60742857D01*
X74533333Y-60885714D01*
X74485714Y-60980952D01*
X74438095Y-61028571D01*
X74342857Y-61076190D01*
X73961904Y-61076190D01*
X75009523Y-61552380D02*
X75200000Y-61552380D01*
X75295238Y-61504761D01*
X75342857Y-61457142D01*
X75438095Y-61314285D01*
X75485714Y-61123809D01*
X75485714Y-60742857D01*
X75438095Y-60647619D01*
X75390476Y-60600000D01*
X75295238Y-60552380D01*
X75104761Y-60552380D01*
X75009523Y-60600000D01*
X74961904Y-60647619D01*
X74914285Y-60742857D01*
X74914285Y-60980952D01*
X74961904Y-61076190D01*
X75009523Y-61123809D01*
X75104761Y-61171428D01*
X75295238Y-61171428D01*
X75390476Y-61123809D01*
X75438095Y-61076190D01*
X75485714Y-60980952D01*
X33157142Y-64152380D02*
X32823809Y-63676190D01*
X32585714Y-64152380D02*
X32585714Y-63152380D01*
X32966666Y-63152380D01*
X33061904Y-63200000D01*
X33109523Y-63247619D01*
X33157142Y-63342857D01*
X33157142Y-63485714D01*
X33109523Y-63580952D01*
X33061904Y-63628571D01*
X32966666Y-63676190D01*
X32585714Y-63676190D01*
X33490476Y-63152380D02*
X34109523Y-63152380D01*
X33776190Y-63533333D01*
X33919047Y-63533333D01*
X34014285Y-63580952D01*
X34061904Y-63628571D01*
X34109523Y-63723809D01*
X34109523Y-63961904D01*
X34061904Y-64057142D01*
X34014285Y-64104761D01*
X33919047Y-64152380D01*
X33633333Y-64152380D01*
X33538095Y-64104761D01*
X33490476Y-64057142D01*
X34728571Y-63152380D02*
X34823809Y-63152380D01*
X34919047Y-63200000D01*
X34966666Y-63247619D01*
X35014285Y-63342857D01*
X35061904Y-63533333D01*
X35061904Y-63771428D01*
X35014285Y-63961904D01*
X34966666Y-64057142D01*
X34919047Y-64104761D01*
X34823809Y-64152380D01*
X34728571Y-64152380D01*
X34633333Y-64104761D01*
X34585714Y-64057142D01*
X34538095Y-63961904D01*
X34490476Y-63771428D01*
X34490476Y-63533333D01*
X34538095Y-63342857D01*
X34585714Y-63247619D01*
X34633333Y-63200000D01*
X34728571Y-63152380D01*
X36238095Y-65352380D02*
X36238095Y-66161904D01*
X36285714Y-66257142D01*
X36333333Y-66304761D01*
X36428571Y-66352380D01*
X36619047Y-66352380D01*
X36714285Y-66304761D01*
X36761904Y-66257142D01*
X36809523Y-66161904D01*
X36809523Y-65352380D01*
X37238095Y-65447619D02*
X37285714Y-65400000D01*
X37380952Y-65352380D01*
X37619047Y-65352380D01*
X37714285Y-65400000D01*
X37761904Y-65447619D01*
X37809523Y-65542857D01*
X37809523Y-65638095D01*
X37761904Y-65780952D01*
X37190476Y-66352380D01*
X37809523Y-66352380D01*
X87595238Y-52638095D02*
X87547619Y-52780952D01*
X87547619Y-53019047D01*
X87595238Y-53114285D01*
X87642857Y-53161904D01*
X87738095Y-53209523D01*
X87833333Y-53209523D01*
X87928571Y-53161904D01*
X87976190Y-53114285D01*
X88023809Y-53019047D01*
X88071428Y-52828571D01*
X88119047Y-52733333D01*
X88166666Y-52685714D01*
X88261904Y-52638095D01*
X88357142Y-52638095D01*
X88452380Y-52685714D01*
X88500000Y-52733333D01*
X88547619Y-52828571D01*
X88547619Y-53066666D01*
X88500000Y-53209523D01*
X87547619Y-54161904D02*
X87547619Y-53590476D01*
X87547619Y-53876190D02*
X88547619Y-53876190D01*
X88404761Y-53780952D01*
X88309523Y-53685714D01*
X88261904Y-53590476D01*
X40966666Y-95152380D02*
X40966666Y-95866666D01*
X40919047Y-96009523D01*
X40823809Y-96104761D01*
X40680952Y-96152380D01*
X40585714Y-96152380D01*
X41395238Y-95247619D02*
X41442857Y-95200000D01*
X41538095Y-95152380D01*
X41776190Y-95152380D01*
X41871428Y-95200000D01*
X41919047Y-95247619D01*
X41966666Y-95342857D01*
X41966666Y-95438095D01*
X41919047Y-95580952D01*
X41347619Y-96152380D01*
X41966666Y-96152380D01*
X65833333Y-92257142D02*
X65785714Y-92304761D01*
X65642857Y-92352380D01*
X65547619Y-92352380D01*
X65404761Y-92304761D01*
X65309523Y-92209523D01*
X65261904Y-92114285D01*
X65214285Y-91923809D01*
X65214285Y-91780952D01*
X65261904Y-91590476D01*
X65309523Y-91495238D01*
X65404761Y-91400000D01*
X65547619Y-91352380D01*
X65642857Y-91352380D01*
X65785714Y-91400000D01*
X65833333Y-91447619D01*
X66309523Y-92352380D02*
X66500000Y-92352380D01*
X66595238Y-92304761D01*
X66642857Y-92257142D01*
X66738095Y-92114285D01*
X66785714Y-91923809D01*
X66785714Y-91542857D01*
X66738095Y-91447619D01*
X66690476Y-91400000D01*
X66595238Y-91352380D01*
X66404761Y-91352380D01*
X66309523Y-91400000D01*
X66261904Y-91447619D01*
X66214285Y-91542857D01*
X66214285Y-91780952D01*
X66261904Y-91876190D01*
X66309523Y-91923809D01*
X66404761Y-91971428D01*
X66595238Y-91971428D01*
X66690476Y-91923809D01*
X66738095Y-91876190D01*
X66785714Y-91780952D01*
X53452380Y-101542857D02*
X52976190Y-101876190D01*
X53452380Y-102114285D02*
X52452380Y-102114285D01*
X52452380Y-101733333D01*
X52500000Y-101638095D01*
X52547619Y-101590476D01*
X52642857Y-101542857D01*
X52785714Y-101542857D01*
X52880952Y-101590476D01*
X52928571Y-101638095D01*
X52976190Y-101733333D01*
X52976190Y-102114285D01*
X53452380Y-100590476D02*
X53452380Y-101161904D01*
X53452380Y-100876190D02*
X52452380Y-100876190D01*
X52595238Y-100971428D01*
X52690476Y-101066666D01*
X52738095Y-101161904D01*
X52880952Y-100019047D02*
X52833333Y-100114285D01*
X52785714Y-100161904D01*
X52690476Y-100209523D01*
X52642857Y-100209523D01*
X52547619Y-100161904D01*
X52500000Y-100114285D01*
X52452380Y-100019047D01*
X52452380Y-99828571D01*
X52500000Y-99733333D01*
X52547619Y-99685714D01*
X52642857Y-99638095D01*
X52690476Y-99638095D01*
X52785714Y-99685714D01*
X52833333Y-99733333D01*
X52880952Y-99828571D01*
X52880952Y-100019047D01*
X52928571Y-100114285D01*
X52976190Y-100161904D01*
X53071428Y-100209523D01*
X53261904Y-100209523D01*
X53357142Y-100161904D01*
X53404761Y-100114285D01*
X53452380Y-100019047D01*
X53452380Y-99828571D01*
X53404761Y-99733333D01*
X53357142Y-99685714D01*
X53261904Y-99638095D01*
X53071428Y-99638095D01*
X52976190Y-99685714D01*
X52928571Y-99733333D01*
X52880952Y-99828571D01*
X48552380Y-36942857D02*
X48076190Y-37276190D01*
X48552380Y-37514285D02*
X47552380Y-37514285D01*
X47552380Y-37133333D01*
X47600000Y-37038095D01*
X47647619Y-36990476D01*
X47742857Y-36942857D01*
X47885714Y-36942857D01*
X47980952Y-36990476D01*
X48028571Y-37038095D01*
X48076190Y-37133333D01*
X48076190Y-37514285D01*
X47647619Y-36561904D02*
X47600000Y-36514285D01*
X47552380Y-36419047D01*
X47552380Y-36180952D01*
X47600000Y-36085714D01*
X47647619Y-36038095D01*
X47742857Y-35990476D01*
X47838095Y-35990476D01*
X47980952Y-36038095D01*
X48552380Y-36609523D01*
X48552380Y-35990476D01*
X47552380Y-35657142D02*
X47552380Y-35038095D01*
X47933333Y-35371428D01*
X47933333Y-35228571D01*
X47980952Y-35133333D01*
X48028571Y-35085714D01*
X48123809Y-35038095D01*
X48361904Y-35038095D01*
X48457142Y-35085714D01*
X48504761Y-35133333D01*
X48552380Y-35228571D01*
X48552380Y-35514285D01*
X48504761Y-35609523D01*
X48457142Y-35657142D01*
D14*
X49526190Y-67469047D02*
X49026190Y-67469047D01*
X49026190Y-67350000D01*
X49050000Y-67278571D01*
X49097619Y-67230952D01*
X49145238Y-67207142D01*
X49240476Y-67183333D01*
X49311904Y-67183333D01*
X49407142Y-67207142D01*
X49454761Y-67230952D01*
X49502380Y-67278571D01*
X49526190Y-67350000D01*
X49526190Y-67469047D01*
X49026190Y-67016666D02*
X49026190Y-66707142D01*
X49216666Y-66873809D01*
X49216666Y-66802380D01*
X49240476Y-66754761D01*
X49264285Y-66730952D01*
X49311904Y-66707142D01*
X49430952Y-66707142D01*
X49478571Y-66730952D01*
X49502380Y-66754761D01*
X49526190Y-66802380D01*
X49526190Y-66945238D01*
X49502380Y-66992857D01*
X49478571Y-67016666D01*
X45226190Y-32669047D02*
X44726190Y-32669047D01*
X44726190Y-32550000D01*
X44750000Y-32478571D01*
X44797619Y-32430952D01*
X44845238Y-32407142D01*
X44940476Y-32383333D01*
X45011904Y-32383333D01*
X45107142Y-32407142D01*
X45154761Y-32430952D01*
X45202380Y-32478571D01*
X45226190Y-32550000D01*
X45226190Y-32669047D01*
X44773809Y-32192857D02*
X44750000Y-32169047D01*
X44726190Y-32121428D01*
X44726190Y-32002380D01*
X44750000Y-31954761D01*
X44773809Y-31930952D01*
X44821428Y-31907142D01*
X44869047Y-31907142D01*
X44940476Y-31930952D01*
X45226190Y-32216666D01*
X45226190Y-31907142D01*
D10*
X73461904Y-45014285D02*
X73080952Y-45280952D01*
X73461904Y-45471428D02*
X72661904Y-45471428D01*
X72661904Y-45166666D01*
X72700000Y-45090476D01*
X72738095Y-45052380D01*
X72814285Y-45014285D01*
X72928571Y-45014285D01*
X73004761Y-45052380D01*
X73042857Y-45090476D01*
X73080952Y-45166666D01*
X73080952Y-45471428D01*
X73461904Y-44252380D02*
X73461904Y-44709523D01*
X73461904Y-44480952D02*
X72661904Y-44480952D01*
X72776190Y-44557142D01*
X72852380Y-44633333D01*
X72890476Y-44709523D01*
X72928571Y-43566666D02*
X73461904Y-43566666D01*
X72623809Y-43757142D02*
X73195238Y-43947619D01*
X73195238Y-43452380D01*
X48857142Y-87782380D02*
X48523809Y-87306190D01*
X48285714Y-87782380D02*
X48285714Y-86782380D01*
X48666666Y-86782380D01*
X48761904Y-86830000D01*
X48809523Y-86877619D01*
X48857142Y-86972857D01*
X48857142Y-87115714D01*
X48809523Y-87210952D01*
X48761904Y-87258571D01*
X48666666Y-87306190D01*
X48285714Y-87306190D01*
X49238095Y-86877619D02*
X49285714Y-86830000D01*
X49380952Y-86782380D01*
X49619047Y-86782380D01*
X49714285Y-86830000D01*
X49761904Y-86877619D01*
X49809523Y-86972857D01*
X49809523Y-87068095D01*
X49761904Y-87210952D01*
X49190476Y-87782380D01*
X49809523Y-87782380D01*
X50761904Y-87782380D02*
X50190476Y-87782380D01*
X50476190Y-87782380D02*
X50476190Y-86782380D01*
X50380952Y-86925238D01*
X50285714Y-87020476D01*
X50190476Y-87068095D01*
X49952380Y-65342857D02*
X49476190Y-65676190D01*
X49952380Y-65914285D02*
X48952380Y-65914285D01*
X48952380Y-65533333D01*
X49000000Y-65438095D01*
X49047619Y-65390476D01*
X49142857Y-65342857D01*
X49285714Y-65342857D01*
X49380952Y-65390476D01*
X49428571Y-65438095D01*
X49476190Y-65533333D01*
X49476190Y-65914285D01*
X49047619Y-64961904D02*
X49000000Y-64914285D01*
X48952380Y-64819047D01*
X48952380Y-64580952D01*
X49000000Y-64485714D01*
X49047619Y-64438095D01*
X49142857Y-64390476D01*
X49238095Y-64390476D01*
X49380952Y-64438095D01*
X49952380Y-65009523D01*
X49952380Y-64390476D01*
X49285714Y-63533333D02*
X49952380Y-63533333D01*
X48904761Y-63771428D02*
X49619047Y-64009523D01*
X49619047Y-63390476D01*
X67361904Y-45014285D02*
X66980952Y-45280952D01*
X67361904Y-45471428D02*
X66561904Y-45471428D01*
X66561904Y-45166666D01*
X66600000Y-45090476D01*
X66638095Y-45052380D01*
X66714285Y-45014285D01*
X66828571Y-45014285D01*
X66904761Y-45052380D01*
X66942857Y-45090476D01*
X66980952Y-45166666D01*
X66980952Y-45471428D01*
X67361904Y-44252380D02*
X67361904Y-44709523D01*
X67361904Y-44480952D02*
X66561904Y-44480952D01*
X66676190Y-44557142D01*
X66752380Y-44633333D01*
X66790476Y-44709523D01*
X66561904Y-43757142D02*
X66561904Y-43680952D01*
X66600000Y-43604761D01*
X66638095Y-43566666D01*
X66714285Y-43528571D01*
X66866666Y-43490476D01*
X67057142Y-43490476D01*
X67209523Y-43528571D01*
X67285714Y-43566666D01*
X67323809Y-43604761D01*
X67361904Y-43680952D01*
X67361904Y-43757142D01*
X67323809Y-43833333D01*
X67285714Y-43871428D01*
X67209523Y-43909523D01*
X67057142Y-43947619D01*
X66866666Y-43947619D01*
X66714285Y-43909523D01*
X66638095Y-43871428D01*
X66600000Y-43833333D01*
X66561904Y-43757142D01*
X77561904Y-45014285D02*
X77180952Y-45280952D01*
X77561904Y-45471428D02*
X76761904Y-45471428D01*
X76761904Y-45166666D01*
X76800000Y-45090476D01*
X76838095Y-45052380D01*
X76914285Y-45014285D01*
X77028571Y-45014285D01*
X77104761Y-45052380D01*
X77142857Y-45090476D01*
X77180952Y-45166666D01*
X77180952Y-45471428D01*
X77561904Y-44252380D02*
X77561904Y-44709523D01*
X77561904Y-44480952D02*
X76761904Y-44480952D01*
X76876190Y-44557142D01*
X76952380Y-44633333D01*
X76990476Y-44709523D01*
X76761904Y-43528571D02*
X76761904Y-43909523D01*
X77142857Y-43947619D01*
X77104761Y-43909523D01*
X77066666Y-43833333D01*
X77066666Y-43642857D01*
X77104761Y-43566666D01*
X77142857Y-43528571D01*
X77219047Y-43490476D01*
X77409523Y-43490476D01*
X77485714Y-43528571D01*
X77523809Y-43566666D01*
X77561904Y-43642857D01*
X77561904Y-43833333D01*
X77523809Y-43909523D01*
X77485714Y-43947619D01*
X65857142Y-90757142D02*
X65809523Y-90804761D01*
X65666666Y-90852380D01*
X65571428Y-90852380D01*
X65428571Y-90804761D01*
X65333333Y-90709523D01*
X65285714Y-90614285D01*
X65238095Y-90423809D01*
X65238095Y-90280952D01*
X65285714Y-90090476D01*
X65333333Y-89995238D01*
X65428571Y-89900000D01*
X65571428Y-89852380D01*
X65666666Y-89852380D01*
X65809523Y-89900000D01*
X65857142Y-89947619D01*
X66809523Y-90852380D02*
X66238095Y-90852380D01*
X66523809Y-90852380D02*
X66523809Y-89852380D01*
X66428571Y-89995238D01*
X66333333Y-90090476D01*
X66238095Y-90138095D01*
X67142857Y-89852380D02*
X67809523Y-89852380D01*
X67380952Y-90852380D01*
X102133333Y-53922380D02*
X101800000Y-53446190D01*
X101561904Y-53922380D02*
X101561904Y-52922380D01*
X101942857Y-52922380D01*
X102038095Y-52970000D01*
X102085714Y-53017619D01*
X102133333Y-53112857D01*
X102133333Y-53255714D01*
X102085714Y-53350952D01*
X102038095Y-53398571D01*
X101942857Y-53446190D01*
X101561904Y-53446190D01*
X102704761Y-53350952D02*
X102609523Y-53303333D01*
X102561904Y-53255714D01*
X102514285Y-53160476D01*
X102514285Y-53112857D01*
X102561904Y-53017619D01*
X102609523Y-52970000D01*
X102704761Y-52922380D01*
X102895238Y-52922380D01*
X102990476Y-52970000D01*
X103038095Y-53017619D01*
X103085714Y-53112857D01*
X103085714Y-53160476D01*
X103038095Y-53255714D01*
X102990476Y-53303333D01*
X102895238Y-53350952D01*
X102704761Y-53350952D01*
X102609523Y-53398571D01*
X102561904Y-53446190D01*
X102514285Y-53541428D01*
X102514285Y-53731904D01*
X102561904Y-53827142D01*
X102609523Y-53874761D01*
X102704761Y-53922380D01*
X102895238Y-53922380D01*
X102990476Y-53874761D01*
X103038095Y-53827142D01*
X103085714Y-53731904D01*
X103085714Y-53541428D01*
X103038095Y-53446190D01*
X102990476Y-53398571D01*
X102895238Y-53350952D01*
X31066666Y-48552380D02*
X31066666Y-49266666D01*
X31019047Y-49409523D01*
X30923809Y-49504761D01*
X30780952Y-49552380D01*
X30685714Y-49552380D01*
X31971428Y-48885714D02*
X31971428Y-49552380D01*
X31733333Y-48504761D02*
X31495238Y-49219047D01*
X32114285Y-49219047D01*
X91533333Y-68057142D02*
X91485714Y-68104761D01*
X91342857Y-68152380D01*
X91247619Y-68152380D01*
X91104761Y-68104761D01*
X91009523Y-68009523D01*
X90961904Y-67914285D01*
X90914285Y-67723809D01*
X90914285Y-67580952D01*
X90961904Y-67390476D01*
X91009523Y-67295238D01*
X91104761Y-67200000D01*
X91247619Y-67152380D01*
X91342857Y-67152380D01*
X91485714Y-67200000D01*
X91533333Y-67247619D01*
X92390476Y-67485714D02*
X92390476Y-68152380D01*
X92152380Y-67104761D02*
X91914285Y-67819047D01*
X92533333Y-67819047D01*
X72461904Y-45014285D02*
X72080952Y-45280952D01*
X72461904Y-45471428D02*
X71661904Y-45471428D01*
X71661904Y-45166666D01*
X71700000Y-45090476D01*
X71738095Y-45052380D01*
X71814285Y-45014285D01*
X71928571Y-45014285D01*
X72004761Y-45052380D01*
X72042857Y-45090476D01*
X72080952Y-45166666D01*
X72080952Y-45471428D01*
X72461904Y-44252380D02*
X72461904Y-44709523D01*
X72461904Y-44480952D02*
X71661904Y-44480952D01*
X71776190Y-44557142D01*
X71852380Y-44633333D01*
X71890476Y-44709523D01*
X71738095Y-43947619D02*
X71700000Y-43909523D01*
X71661904Y-43833333D01*
X71661904Y-43642857D01*
X71700000Y-43566666D01*
X71738095Y-43528571D01*
X71814285Y-43490476D01*
X71890476Y-43490476D01*
X72004761Y-43528571D01*
X72461904Y-43985714D01*
X72461904Y-43490476D01*
X95333333Y-55637142D02*
X95285714Y-55684761D01*
X95142857Y-55732380D01*
X95047619Y-55732380D01*
X94904761Y-55684761D01*
X94809523Y-55589523D01*
X94761904Y-55494285D01*
X94714285Y-55303809D01*
X94714285Y-55160952D01*
X94761904Y-54970476D01*
X94809523Y-54875238D01*
X94904761Y-54780000D01*
X95047619Y-54732380D01*
X95142857Y-54732380D01*
X95285714Y-54780000D01*
X95333333Y-54827619D01*
X96238095Y-54732380D02*
X95761904Y-54732380D01*
X95714285Y-55208571D01*
X95761904Y-55160952D01*
X95857142Y-55113333D01*
X96095238Y-55113333D01*
X96190476Y-55160952D01*
X96238095Y-55208571D01*
X96285714Y-55303809D01*
X96285714Y-55541904D01*
X96238095Y-55637142D01*
X96190476Y-55684761D01*
X96095238Y-55732380D01*
X95857142Y-55732380D01*
X95761904Y-55684761D01*
X95714285Y-55637142D01*
X96585714Y-65466666D02*
X97061904Y-65466666D01*
X96490476Y-65752380D02*
X96823809Y-64752380D01*
X97157142Y-65752380D01*
X98014285Y-65752380D02*
X97442857Y-65752380D01*
X97728571Y-65752380D02*
X97728571Y-64752380D01*
X97633333Y-64895238D01*
X97538095Y-64990476D01*
X97442857Y-65038095D01*
X95666666Y-36052380D02*
X95666666Y-36766666D01*
X95619047Y-36909523D01*
X95523809Y-37004761D01*
X95380952Y-37052380D01*
X95285714Y-37052380D01*
X96666666Y-37052380D02*
X96095238Y-37052380D01*
X96380952Y-37052380D02*
X96380952Y-36052380D01*
X96285714Y-36195238D01*
X96190476Y-36290476D01*
X96095238Y-36338095D01*
X62857142Y-96157142D02*
X62809523Y-96204761D01*
X62666666Y-96252380D01*
X62571428Y-96252380D01*
X62428571Y-96204761D01*
X62333333Y-96109523D01*
X62285714Y-96014285D01*
X62238095Y-95823809D01*
X62238095Y-95680952D01*
X62285714Y-95490476D01*
X62333333Y-95395238D01*
X62428571Y-95300000D01*
X62571428Y-95252380D01*
X62666666Y-95252380D01*
X62809523Y-95300000D01*
X62857142Y-95347619D01*
X63809523Y-96252380D02*
X63238095Y-96252380D01*
X63523809Y-96252380D02*
X63523809Y-95252380D01*
X63428571Y-95395238D01*
X63333333Y-95490476D01*
X63238095Y-95538095D01*
X64428571Y-95252380D02*
X64523809Y-95252380D01*
X64619047Y-95300000D01*
X64666666Y-95347619D01*
X64714285Y-95442857D01*
X64761904Y-95633333D01*
X64761904Y-95871428D01*
X64714285Y-96061904D01*
X64666666Y-96157142D01*
X64619047Y-96204761D01*
X64523809Y-96252380D01*
X64428571Y-96252380D01*
X64333333Y-96204761D01*
X64285714Y-96157142D01*
X64238095Y-96061904D01*
X64190476Y-95871428D01*
X64190476Y-95633333D01*
X64238095Y-95442857D01*
X64285714Y-95347619D01*
X64333333Y-95300000D01*
X64428571Y-95252380D01*
X71157142Y-69657142D02*
X71109523Y-69704761D01*
X70966666Y-69752380D01*
X70871428Y-69752380D01*
X70728571Y-69704761D01*
X70633333Y-69609523D01*
X70585714Y-69514285D01*
X70538095Y-69323809D01*
X70538095Y-69180952D01*
X70585714Y-68990476D01*
X70633333Y-68895238D01*
X70728571Y-68800000D01*
X70871428Y-68752380D01*
X70966666Y-68752380D01*
X71109523Y-68800000D01*
X71157142Y-68847619D01*
X71538095Y-68847619D02*
X71585714Y-68800000D01*
X71680952Y-68752380D01*
X71919047Y-68752380D01*
X72014285Y-68800000D01*
X72061904Y-68847619D01*
X72109523Y-68942857D01*
X72109523Y-69038095D01*
X72061904Y-69180952D01*
X71490476Y-69752380D01*
X72109523Y-69752380D01*
X72442857Y-68752380D02*
X73061904Y-68752380D01*
X72728571Y-69133333D01*
X72871428Y-69133333D01*
X72966666Y-69180952D01*
X73014285Y-69228571D01*
X73061904Y-69323809D01*
X73061904Y-69561904D01*
X73014285Y-69657142D01*
X72966666Y-69704761D01*
X72871428Y-69752380D01*
X72585714Y-69752380D01*
X72490476Y-69704761D01*
X72442857Y-69657142D01*
X89176190Y-61276190D02*
X89652380Y-61276190D01*
X88652380Y-61609523D02*
X89176190Y-61276190D01*
X88652380Y-60942857D01*
X89652380Y-60085714D02*
X89652380Y-60657142D01*
X89652380Y-60371428D02*
X88652380Y-60371428D01*
X88795238Y-60466666D01*
X88890476Y-60561904D01*
X88938095Y-60657142D01*
D15*
X85377500Y-90662742D02*
X85377500Y-91137258D01*
X86422500Y-90662742D02*
X86422500Y-91137258D01*
X60360000Y-53211252D02*
X60360000Y-51788748D01*
X57640000Y-53211252D02*
X57640000Y-51788748D01*
X56477500Y-98237258D02*
X56477500Y-97762742D01*
X57522500Y-98237258D02*
X57522500Y-97762742D01*
X102959420Y-56290000D02*
X103240580Y-56290000D01*
X102959420Y-57310000D02*
X103240580Y-57310000D01*
X90040580Y-55810000D02*
X89759420Y-55810000D01*
X90040580Y-54790000D02*
X89759420Y-54790000D01*
X49477500Y-94037258D02*
X49477500Y-93562742D01*
X50522500Y-94037258D02*
X50522500Y-93562742D01*
X63340000Y-40500000D02*
X63340000Y-42175000D01*
X66460000Y-40500000D02*
X66460000Y-39850000D01*
X66460000Y-40500000D02*
X66460000Y-41150000D01*
X63340000Y-40500000D02*
X63340000Y-39850000D01*
X67288748Y-56660000D02*
X68711252Y-56660000D01*
X67288748Y-53940000D02*
X68711252Y-53940000D01*
X54140000Y-53211252D02*
X54140000Y-51788748D01*
X56860000Y-53211252D02*
X56860000Y-51788748D01*
X49860000Y-75140000D02*
X47010000Y-75140000D01*
X42990000Y-85100000D02*
X42990000Y-84100000D01*
X41140000Y-75140000D02*
X43990000Y-75140000D01*
X41140000Y-82795563D02*
X41140000Y-75140000D01*
X48795563Y-83860000D02*
X49860000Y-82795563D01*
X42204437Y-83860000D02*
X41140000Y-82795563D01*
X49860000Y-82795563D02*
X49860000Y-75140000D01*
X48795563Y-83860000D02*
X47010000Y-83860000D01*
X42490000Y-84600000D02*
X43490000Y-84600000D01*
X42204437Y-83860000D02*
X43990000Y-83860000D01*
X35888748Y-73810000D02*
X37311252Y-73810000D01*
X35888748Y-71990000D02*
X37311252Y-71990000D01*
X105365000Y-76227064D02*
X105365000Y-75772936D01*
X106835000Y-76227064D02*
X106835000Y-75772936D01*
X77361252Y-59835000D02*
X76838748Y-59835000D01*
X77361252Y-58365000D02*
X76838748Y-58365000D01*
X103040000Y-77685000D02*
X104960000Y-77685000D01*
X104960000Y-77685000D02*
X104960000Y-75000000D01*
X103040000Y-75000000D02*
X103040000Y-77685000D01*
X49607836Y-89860000D02*
X49392164Y-89860000D01*
X49607836Y-89140000D02*
X49392164Y-89140000D01*
X99977500Y-38137258D02*
X99977500Y-37662742D01*
X101022500Y-38137258D02*
X101022500Y-37662742D01*
X94240580Y-66610000D02*
X93959420Y-66610000D01*
X94240580Y-65590000D02*
X93959420Y-65590000D01*
X67288748Y-60160000D02*
X68711252Y-60160000D01*
X67288748Y-57440000D02*
X68711252Y-57440000D01*
X68377500Y-89037258D02*
X68377500Y-88562742D01*
X69422500Y-89037258D02*
X69422500Y-88562742D01*
X31000000Y-31125000D02*
X31000000Y-32375000D01*
X33100000Y-32175000D02*
X33100000Y-31425000D01*
X31300000Y-32175000D02*
X33100000Y-32175000D01*
X43150000Y-33675000D02*
X43150000Y-36625000D01*
X34600000Y-31425000D02*
X34600000Y-32175000D01*
X32050000Y-33675000D02*
X32050000Y-36625000D01*
X40600000Y-31425000D02*
X34600000Y-31425000D01*
X40600000Y-32175000D02*
X40600000Y-31425000D01*
X31290000Y-31415000D02*
X31290000Y-37385000D01*
X43900000Y-31425000D02*
X42100000Y-31425000D01*
X42100000Y-31425000D02*
X42100000Y-32175000D01*
X33100000Y-31425000D02*
X31300000Y-31425000D01*
X42100000Y-32175000D02*
X43900000Y-32175000D01*
X43150000Y-36625000D02*
X37600000Y-36625000D01*
X43910000Y-31415000D02*
X31290000Y-31415000D01*
X43910000Y-37385000D02*
X43910000Y-31415000D01*
X43900000Y-33675000D02*
X43150000Y-33675000D01*
X32050000Y-36625000D02*
X37600000Y-36625000D01*
X34600000Y-32175000D02*
X40600000Y-32175000D01*
X31300000Y-31425000D02*
X31300000Y-32175000D01*
X32250000Y-31125000D02*
X31000000Y-31125000D01*
X31290000Y-37385000D02*
X43910000Y-37385000D01*
X31300000Y-33675000D02*
X32050000Y-33675000D01*
X43900000Y-32175000D02*
X43900000Y-31425000D01*
X67288748Y-67160000D02*
X68711252Y-67160000D01*
X67288748Y-64440000D02*
X68711252Y-64440000D01*
X67288748Y-63660000D02*
X68711252Y-63660000D01*
X67288748Y-60940000D02*
X68711252Y-60940000D01*
X104310000Y-59240580D02*
X104310000Y-58959420D01*
X103290000Y-59240580D02*
X103290000Y-58959420D01*
X39865000Y-68561252D02*
X39865000Y-68038748D01*
X41335000Y-68561252D02*
X41335000Y-68038748D01*
X61122500Y-92862742D02*
X61122500Y-93337258D01*
X60077500Y-92862742D02*
X60077500Y-93337258D01*
X57711252Y-62360000D02*
X56288748Y-62360000D01*
X57711252Y-59640000D02*
X56288748Y-59640000D01*
X63650000Y-36105000D02*
X62320000Y-36105000D01*
X64920000Y-36105000D02*
X64920000Y-33505000D01*
X77680000Y-36105000D02*
X77680000Y-30905000D01*
X62320000Y-30905000D02*
X77680000Y-30905000D01*
X62320000Y-33505000D02*
X62320000Y-30905000D01*
X64920000Y-33505000D02*
X62320000Y-33505000D01*
X62320000Y-36105000D02*
X62320000Y-34775000D01*
X64920000Y-36105000D02*
X77680000Y-36105000D01*
X104910000Y-63040580D02*
X104910000Y-62759420D01*
X103890000Y-63040580D02*
X103890000Y-62759420D01*
X57711252Y-63140000D02*
X56288748Y-63140000D01*
X57711252Y-65860000D02*
X56288748Y-65860000D01*
X54477500Y-98237258D02*
X54477500Y-97762742D01*
X55522500Y-98237258D02*
X55522500Y-97762742D01*
X76660000Y-40500000D02*
X76660000Y-39850000D01*
X76660000Y-40500000D02*
X76660000Y-41150000D01*
X73540000Y-40500000D02*
X73540000Y-42175000D01*
X73540000Y-40500000D02*
X73540000Y-39850000D01*
X57128900Y-91180080D02*
X57128900Y-91632200D01*
X56786000Y-84367800D02*
X57128900Y-84367800D01*
X52041280Y-91632200D02*
X51871100Y-91632200D01*
X57128900Y-91632200D02*
X56958720Y-91632200D01*
X51871100Y-91632200D02*
X51871100Y-91180080D01*
X54616840Y-84367800D02*
X54914020Y-84367800D01*
X53359420Y-81990000D02*
X53640580Y-81990000D01*
X53359420Y-83010000D02*
X53640580Y-83010000D01*
X100410000Y-54540580D02*
X100410000Y-54259420D01*
X99390000Y-54540580D02*
X99390000Y-54259420D01*
X92638748Y-84035000D02*
X93161252Y-84035000D01*
X92638748Y-82565000D02*
X93161252Y-82565000D01*
X34035000Y-76227064D02*
X34035000Y-75772936D01*
X32565000Y-76227064D02*
X32565000Y-75772936D01*
X102290000Y-63040580D02*
X102290000Y-62759420D01*
X103310000Y-63040580D02*
X103310000Y-62759420D01*
X39110000Y-56845563D02*
X38045563Y-57910000D01*
X39743750Y-56741250D02*
X39743750Y-55953750D01*
X38045563Y-51090000D02*
X32290000Y-51090000D01*
X39110000Y-52154437D02*
X38045563Y-51090000D01*
X32290000Y-51090000D02*
X32290000Y-53440000D01*
X39110000Y-56845563D02*
X39110000Y-55560000D01*
X32290000Y-57910000D02*
X32290000Y-55560000D01*
X40137500Y-56347500D02*
X39350000Y-56347500D01*
X38045563Y-57910000D02*
X32290000Y-57910000D01*
X39110000Y-52154437D02*
X39110000Y-53440000D01*
X33635000Y-67872936D02*
X33635000Y-68327064D01*
X32165000Y-67872936D02*
X32165000Y-68327064D01*
X63377500Y-44262742D02*
X63377500Y-44737258D01*
X64422500Y-44262742D02*
X64422500Y-44737258D01*
X90637258Y-35622500D02*
X90162742Y-35622500D01*
X90637258Y-34577500D02*
X90162742Y-34577500D01*
X57711252Y-66640000D02*
X56288748Y-66640000D01*
X57711252Y-69360000D02*
X56288748Y-69360000D01*
X78000000Y-70105000D02*
X78000000Y-90105000D01*
X78000000Y-70105000D02*
X77250000Y-70855000D01*
X82620000Y-93141000D02*
X82620000Y-97725000D01*
X82620000Y-97725000D02*
X80206000Y-97725000D01*
X73380000Y-94341000D02*
X73380000Y-97725000D01*
X79294000Y-97725000D02*
X73380000Y-97725000D01*
X79500000Y-90105000D02*
X76500000Y-90105000D01*
X82620000Y-70341000D02*
X82620000Y-89870000D01*
X73380000Y-62485000D02*
X73380000Y-65870000D01*
X79250000Y-61930000D02*
X79750000Y-62430000D01*
X79500000Y-70105000D02*
X76500000Y-70105000D01*
X78750000Y-70855000D02*
X78000000Y-70105000D01*
X79750000Y-62430000D02*
X80250000Y-61930000D01*
X78000000Y-90105000D02*
X77250000Y-89355000D01*
X78575000Y-62485000D02*
X76705000Y-62485000D01*
X80250000Y-61930000D02*
X79250000Y-61930000D01*
X82620000Y-62485000D02*
X80925000Y-62485000D01*
X73380000Y-69141000D02*
X73380000Y-91070000D01*
X75794000Y-62485000D02*
X73380000Y-62485000D01*
X78750000Y-89355000D02*
X78000000Y-90105000D01*
X82620000Y-62485000D02*
X82620000Y-67070000D01*
X41040000Y-87788748D02*
X41040000Y-89211252D01*
X43760000Y-87788748D02*
X43760000Y-89211252D01*
X57711252Y-70140000D02*
X56288748Y-70140000D01*
X57711252Y-72860000D02*
X56288748Y-72860000D01*
X47360000Y-87788748D02*
X47360000Y-89211252D01*
X44640000Y-87788748D02*
X44640000Y-89211252D01*
X42090000Y-68411252D02*
X42090000Y-66988748D01*
X43910000Y-68411252D02*
X43910000Y-66988748D01*
X68477500Y-44262742D02*
X68477500Y-44737258D01*
X69522500Y-44262742D02*
X69522500Y-44737258D01*
X85462742Y-58322500D02*
X85937258Y-58322500D01*
X85462742Y-57277500D02*
X85937258Y-57277500D01*
X61140000Y-53211252D02*
X61140000Y-51788748D01*
X63860000Y-53211252D02*
X63860000Y-51788748D01*
X99522500Y-37662742D02*
X99522500Y-38137258D01*
X98477500Y-37662742D02*
X98477500Y-38137258D01*
X92937258Y-85722500D02*
X92462742Y-85722500D01*
X92937258Y-84677500D02*
X92462742Y-84677500D01*
X97165000Y-76227064D02*
X97165000Y-75772936D01*
X98635000Y-76227064D02*
X98635000Y-75772936D01*
X71277500Y-89037258D02*
X71277500Y-88562742D01*
X72322500Y-89037258D02*
X72322500Y-88562742D01*
X95000000Y-92750000D02*
X95000000Y-93750000D01*
X89000000Y-93750000D02*
X87000000Y-93750000D01*
X95000000Y-86250000D02*
X95000000Y-87250000D01*
X92250000Y-87500000D02*
X93000000Y-90000000D01*
X91250000Y-87500000D02*
X92250000Y-87500000D01*
X87000000Y-93750000D02*
X87000000Y-92750000D01*
X91000000Y-91500000D02*
X91000000Y-91000000D01*
D10*
X90750000Y-87750000D02*
X90750000Y-87250000D01*
X90750000Y-87500000D02*
X91250000Y-87750000D01*
D16*
X95100000Y-90250000D02*
X95100000Y-89750000D01*
D15*
X91000000Y-91000000D02*
X90500000Y-89200000D01*
X91000000Y-89000000D02*
X91000000Y-88500000D01*
X90750000Y-87500000D02*
X89750000Y-87500000D01*
X89750000Y-87500000D02*
X89000000Y-90000000D01*
X93000000Y-86250000D02*
X95000000Y-86250000D01*
D10*
X91250000Y-87250000D02*
X90750000Y-87500000D01*
X91250000Y-87750000D02*
X91250000Y-87250000D01*
D15*
X87000000Y-87250000D02*
X87000000Y-86250000D01*
X87000000Y-86250000D02*
X89000000Y-86250000D01*
X95000000Y-93750000D02*
X93000000Y-93750000D01*
X34085000Y-79960000D02*
X34085000Y-78040000D01*
X34085000Y-78040000D02*
X31400000Y-78040000D01*
X31400000Y-79960000D02*
X34085000Y-79960000D01*
X63238748Y-87765000D02*
X63761252Y-87765000D01*
X63238748Y-89235000D02*
X63761252Y-89235000D01*
X90040580Y-57410000D02*
X89759420Y-57410000D01*
X90040580Y-56390000D02*
X89759420Y-56390000D01*
X99040000Y-77685000D02*
X100960000Y-77685000D01*
X100960000Y-77685000D02*
X100960000Y-75000000D01*
X99040000Y-75000000D02*
X99040000Y-77685000D01*
X90637258Y-37622500D02*
X90162742Y-37622500D01*
X90637258Y-36577500D02*
X90162742Y-36577500D01*
X71560000Y-40500000D02*
X71560000Y-39850000D01*
X68440000Y-40500000D02*
X68440000Y-39850000D01*
X71560000Y-40500000D02*
X71560000Y-41150000D01*
X68440000Y-40500000D02*
X68440000Y-42175000D01*
X50640000Y-79711252D02*
X50640000Y-78288748D01*
X53360000Y-79711252D02*
X53360000Y-78288748D01*
X76862742Y-60577500D02*
X77337258Y-60577500D01*
X76862742Y-61622500D02*
X77337258Y-61622500D01*
X34027064Y-64565000D02*
X33572936Y-64565000D01*
X34027064Y-66035000D02*
X33572936Y-66035000D01*
X35740000Y-66640000D02*
X38460000Y-66640000D01*
X38460000Y-71360000D02*
X35740000Y-71360000D01*
X35740000Y-71360000D02*
X35740000Y-71130000D01*
X35740000Y-66640000D02*
X35740000Y-66870000D01*
X38460000Y-66640000D02*
X38460000Y-67950000D01*
X38460000Y-70050000D02*
X38460000Y-71360000D01*
X34600000Y-66870000D02*
X35740000Y-66870000D01*
X84500000Y-56700000D02*
X86500000Y-56700000D01*
X84500000Y-50100000D02*
X86500000Y-50100000D01*
X87300000Y-50900000D02*
X87300000Y-55900000D01*
X83700000Y-55900000D02*
X83700000Y-50900000D01*
X32950000Y-95220000D02*
X38250000Y-95220000D01*
X40120000Y-80520000D02*
X39120000Y-80520000D01*
X31180000Y-80820000D02*
X39820000Y-80820000D01*
X38250000Y-95220000D02*
X38250000Y-81800000D01*
X39820000Y-96180000D02*
X31180000Y-96180000D01*
X38250000Y-81800000D02*
X32950000Y-81800000D01*
X39820000Y-80830000D02*
X39820000Y-96180000D01*
X32950000Y-86830000D02*
X32950000Y-90150000D01*
X32950000Y-81800000D02*
X32950000Y-82550000D01*
X31180000Y-96180000D02*
X31180000Y-80820000D01*
X32950000Y-94470000D02*
X32950000Y-95220000D01*
X40120000Y-80520000D02*
X40120000Y-81520000D01*
X32949999Y-82549999D02*
G75*
G03*
X32950709Y-86830696I2100001J-2140001D01*
G01*
X32950000Y-90150000D02*
G75*
G03*
X32949478Y-94469492I2100000J-2160000D01*
G01*
X63359420Y-92410000D02*
X63640580Y-92410000D01*
X63359420Y-91390000D02*
X63640580Y-91390000D01*
X52477500Y-98237258D02*
X52477500Y-97762742D01*
X53522500Y-98237258D02*
X53522500Y-97762742D01*
X47135000Y-36072936D02*
X47135000Y-36527064D01*
X45665000Y-36072936D02*
X45665000Y-36527064D01*
X48760000Y-66627500D02*
X46840000Y-66627500D01*
X48760000Y-69312500D02*
X48760000Y-66627500D01*
X46840000Y-66627500D02*
X46840000Y-69312500D01*
X47360000Y-33985000D02*
X47360000Y-31300000D01*
X45440000Y-33985000D02*
X47360000Y-33985000D01*
X45440000Y-31300000D02*
X45440000Y-33985000D01*
X73577500Y-44737258D02*
X73577500Y-44262742D01*
X74622500Y-44737258D02*
X74622500Y-44262742D01*
X49346359Y-88880000D02*
X49653641Y-88880000D01*
X49346359Y-88120000D02*
X49653641Y-88120000D01*
X47065000Y-64927064D02*
X47065000Y-64472936D01*
X48535000Y-64927064D02*
X48535000Y-64472936D01*
X66422500Y-44737258D02*
X66422500Y-44262742D01*
X65377500Y-44737258D02*
X65377500Y-44262742D01*
X76622500Y-44737258D02*
X76622500Y-44262742D01*
X75577500Y-44737258D02*
X75577500Y-44262742D01*
X63359420Y-90910000D02*
X63640580Y-90910000D01*
X63359420Y-89890000D02*
X63640580Y-89890000D01*
X102062742Y-54377500D02*
X102537258Y-54377500D01*
X102062742Y-55422500D02*
X102537258Y-55422500D01*
X44870000Y-46250000D02*
X45620000Y-46250000D01*
X46580000Y-48020000D02*
X31220000Y-48020000D01*
X30920000Y-39080000D02*
X31920000Y-39080000D01*
X37230000Y-46250000D02*
X40550000Y-46250000D01*
X45620000Y-46250000D02*
X45620000Y-40950000D01*
X32200000Y-46250000D02*
X32950000Y-46250000D01*
X30920000Y-39080000D02*
X30920000Y-40080000D01*
X46580000Y-39380000D02*
X46580000Y-48020000D01*
X32200000Y-40950000D02*
X32200000Y-46250000D01*
X31230000Y-39380000D02*
X46580000Y-39380000D01*
X45620000Y-40950000D02*
X32200000Y-40950000D01*
X31220000Y-48020000D02*
X31220000Y-39380000D01*
X40550000Y-46250000D02*
G75*
G03*
X44869492Y-46250522I2160000J2100000D01*
G01*
X32949999Y-46250001D02*
G75*
G03*
X37230696Y-46249291I2140001J2100001D01*
G01*
X94240580Y-68210000D02*
X93959420Y-68210000D01*
X94240580Y-67190000D02*
X93959420Y-67190000D01*
X70477500Y-44737258D02*
X70477500Y-44262742D01*
X71522500Y-44737258D02*
X71522500Y-44262742D01*
X95761252Y-52865000D02*
X95238748Y-52865000D01*
X95761252Y-54335000D02*
X95238748Y-54335000D01*
X93690000Y-64110000D02*
X94415000Y-64110000D01*
X93690000Y-63385000D02*
X93690000Y-64110000D01*
X100910000Y-63385000D02*
X100910000Y-64110000D01*
X100910000Y-64110000D02*
X100185000Y-64110000D01*
X100910000Y-57615000D02*
X100910000Y-56890000D01*
X93690000Y-57615000D02*
X93690000Y-56890000D01*
X93690000Y-56890000D02*
X94415000Y-56890000D01*
X95575000Y-32965000D02*
X95275000Y-32965000D01*
X100325000Y-36215000D02*
X100725000Y-35765000D01*
X95575000Y-30165000D02*
X95575000Y-32965000D01*
X101125000Y-36215000D02*
X100325000Y-36215000D01*
X103575000Y-32965000D02*
X103275000Y-32965000D01*
X103575000Y-32965000D02*
X103575000Y-34515000D01*
X100725000Y-35765000D02*
X101125000Y-36215000D01*
X103275000Y-30165000D02*
X103275000Y-32965000D01*
X95275000Y-32965000D02*
X95275000Y-34515000D01*
X63238748Y-93365000D02*
X63761252Y-93365000D01*
X63238748Y-94835000D02*
X63761252Y-94835000D01*
X67288748Y-70660000D02*
X68711252Y-70660000D01*
X67288748Y-67940000D02*
X68711252Y-67940000D01*
X85600000Y-62600000D02*
X85600000Y-61800000D01*
X86000000Y-59000000D02*
X85600000Y-59000000D01*
X88000000Y-61800000D02*
X88000000Y-62600000D01*
X86000000Y-58800000D02*
X85600000Y-58800000D01*
X85600000Y-60000000D02*
X85600000Y-59000000D01*
X88000000Y-58800000D02*
X86000000Y-58800000D01*
X88000000Y-59000000D02*
X88000000Y-60000000D01*
X86000000Y-59000000D02*
X88000000Y-59000000D01*
X88000000Y-62600000D02*
X86000000Y-62600000D01*
X86000000Y-62600000D02*
X85600000Y-62600000D01*
X85600000Y-60000000D02*
X85200000Y-60000000D01*
%LPC*%
G36*
X57408300Y-87847600D02*
G01*
X55615060Y-87847600D01*
X55615060Y-88660400D01*
X55005460Y-88660400D01*
X55005460Y-87593600D01*
X57408300Y-87593600D01*
X57408300Y-87847600D01*
G37*
D12*
X57408300Y-87847600D02*
X55615060Y-87847600D01*
X55615060Y-88660400D01*
X55005460Y-88660400D01*
X55005460Y-87593600D01*
X57408300Y-87593600D01*
X57408300Y-87847600D01*
G36*
X53423040Y-88370840D02*
G01*
X52749940Y-88370840D01*
X52749940Y-87855220D01*
X51591700Y-87855220D01*
X51591700Y-87347220D01*
X52313060Y-87347220D01*
X52313060Y-86603000D01*
X51591700Y-86603000D01*
X51591700Y-86095000D01*
X52313060Y-86095000D01*
X52313060Y-85353320D01*
X51591700Y-85353320D01*
X51591700Y-84845320D01*
X53118240Y-84845320D01*
X53118240Y-84088400D01*
X53423040Y-84088400D01*
X53423040Y-88370840D01*
G37*
X53423040Y-88370840D02*
X52749940Y-88370840D01*
X52749940Y-87855220D01*
X51591700Y-87855220D01*
X51591700Y-87347220D01*
X52313060Y-87347220D01*
X52313060Y-86603000D01*
X51591700Y-86603000D01*
X51591700Y-86095000D01*
X52313060Y-86095000D01*
X52313060Y-85353320D01*
X51591700Y-85353320D01*
X51591700Y-84845320D01*
X53118240Y-84845320D01*
X53118240Y-84088400D01*
X53423040Y-84088400D01*
X53423040Y-88370840D01*
G36*
X56453260Y-84847860D02*
G01*
X57408300Y-84847860D01*
X57408300Y-85101860D01*
X56702180Y-85101860D01*
X56702180Y-85348240D01*
X57408300Y-85348240D01*
X57408300Y-85602240D01*
X56702180Y-85602240D01*
X56702180Y-85848620D01*
X57408300Y-85848620D01*
X57408300Y-86102620D01*
X56702180Y-86102620D01*
X56702180Y-86349000D01*
X57408300Y-86349000D01*
X57408300Y-86603000D01*
X56702180Y-86603000D01*
X56702180Y-86846840D01*
X57408300Y-86846840D01*
X57408300Y-87100840D01*
X56148460Y-87100840D01*
X56148460Y-84088400D01*
X56453260Y-84088400D01*
X56453260Y-84847860D01*
G37*
X56453260Y-84847860D02*
X57408300Y-84847860D01*
X57408300Y-85101860D01*
X56702180Y-85101860D01*
X56702180Y-85348240D01*
X57408300Y-85348240D01*
X57408300Y-85602240D01*
X56702180Y-85602240D01*
X56702180Y-85848620D01*
X57408300Y-85848620D01*
X57408300Y-86102620D01*
X56702180Y-86102620D01*
X56702180Y-86349000D01*
X57408300Y-86349000D01*
X57408300Y-86603000D01*
X56702180Y-86603000D01*
X56702180Y-86846840D01*
X57408300Y-86846840D01*
X57408300Y-87100840D01*
X56148460Y-87100840D01*
X56148460Y-84088400D01*
X56453260Y-84088400D01*
X56453260Y-84847860D01*
G36*
X54284100Y-84845320D02*
G01*
X55246760Y-84845320D01*
X55246760Y-84088400D01*
X55754760Y-84088400D01*
X55754760Y-86890020D01*
X54606680Y-86890020D01*
X54606680Y-88970280D01*
X56252600Y-88970280D01*
X56252600Y-90748280D01*
X52747400Y-90748280D01*
X52747400Y-88970280D01*
X53776100Y-88970280D01*
X53776100Y-84088400D01*
X54284100Y-84088400D01*
X54284100Y-84845320D01*
G37*
X54284100Y-84845320D02*
X55246760Y-84845320D01*
X55246760Y-84088400D01*
X55754760Y-84088400D01*
X55754760Y-86890020D01*
X54606680Y-86890020D01*
X54606680Y-88970280D01*
X56252600Y-88970280D01*
X56252600Y-90748280D01*
X52747400Y-90748280D01*
X52747400Y-88970280D01*
X53776100Y-88970280D01*
X53776100Y-84088400D01*
X54284100Y-84088400D01*
X54284100Y-84845320D01*
D17*
X85900000Y-90075000D03*
X85900000Y-91725000D03*
D18*
X59000000Y-53975000D03*
X59000000Y-51025000D03*
D19*
X57000000Y-98825000D03*
X57000000Y-97175000D03*
D20*
X102325000Y-56800000D03*
X103875000Y-56800000D03*
D21*
X90675000Y-55300000D03*
X89125000Y-55300000D03*
D19*
X50000000Y-94625000D03*
X50000000Y-92975000D03*
D22*
X63950000Y-41437500D03*
X65850000Y-41437500D03*
X64900000Y-39562500D03*
D23*
X66525000Y-55300000D03*
X69475000Y-55300000D03*
D18*
X55500000Y-53975000D03*
X55500000Y-51025000D03*
D24*
X45500000Y-83200000D03*
X45500000Y-75800000D03*
D25*
X35125000Y-72900000D03*
X38075000Y-72900000D03*
D26*
X106100000Y-76912500D03*
X106100000Y-75087500D03*
D27*
X78050000Y-59100000D03*
X76150000Y-59100000D03*
D28*
X104000000Y-76937500D03*
X104000000Y-75062500D03*
D29*
X49980000Y-89500000D03*
X49020000Y-89500000D03*
D19*
X100500000Y-38725000D03*
X100500000Y-37075000D03*
D21*
X94875000Y-66100000D03*
X93325000Y-66100000D03*
D23*
X66525000Y-58800000D03*
X69475000Y-58800000D03*
D19*
X68900000Y-89625000D03*
X68900000Y-87975000D03*
D30*
X33850000Y-33875000D03*
D31*
X36350000Y-33875000D03*
X38850000Y-33875000D03*
X41350000Y-33875000D03*
D23*
X66525000Y-65800000D03*
X69475000Y-65800000D03*
X66525000Y-62300000D03*
X69475000Y-62300000D03*
D32*
X103800000Y-59875000D03*
X103800000Y-58325000D03*
D33*
X40600000Y-69250000D03*
X40600000Y-67350000D03*
D17*
X60600000Y-92275000D03*
X60600000Y-93925000D03*
D34*
X58475000Y-61000000D03*
X55525000Y-61000000D03*
D35*
X63650000Y-34775000D03*
D36*
X63650000Y-32235000D03*
X66190000Y-34775000D03*
X66190000Y-32235000D03*
X68730000Y-34775000D03*
X68730000Y-32235000D03*
X71270000Y-34775000D03*
X71270000Y-32235000D03*
X73810000Y-34775000D03*
X73810000Y-32235000D03*
X76350000Y-34775000D03*
X76350000Y-32235000D03*
D32*
X104400000Y-63675000D03*
X104400000Y-62125000D03*
D34*
X58475000Y-64500000D03*
X55525000Y-64500000D03*
D19*
X55000000Y-98825000D03*
X55000000Y-97175000D03*
D22*
X74150000Y-41437500D03*
X76050000Y-41437500D03*
X75100000Y-39562500D03*
D37*
X54000000Y-44900000D03*
X52302944Y-44197056D03*
X54000000Y-40100000D03*
X55697056Y-40802944D03*
X51600000Y-42500000D03*
X55697056Y-44197056D03*
X52302944Y-40802944D03*
D38*
X54000000Y-42500000D03*
D37*
X56400000Y-42500000D03*
D39*
X51340000Y-85080000D03*
D40*
X51998100Y-88220980D03*
X51998100Y-88718820D03*
X51998100Y-89219200D03*
X51998100Y-89719580D03*
X51998100Y-90219960D03*
X51998100Y-90720340D03*
D41*
X52501020Y-91505200D03*
X52998860Y-91505200D03*
X53499240Y-91505200D03*
X53999620Y-91505200D03*
X54500000Y-91505200D03*
X55000380Y-91505200D03*
X55500760Y-91505200D03*
X56001140Y-91505200D03*
X56498980Y-91505200D03*
D40*
X57001900Y-90720340D03*
X57001900Y-90219960D03*
X57001900Y-89719580D03*
X57001900Y-89219200D03*
X57001900Y-88718820D03*
X57001900Y-88220980D03*
D42*
X57001900Y-87720600D03*
D43*
X57160000Y-86973840D03*
X57160000Y-86476000D03*
X57160000Y-85975620D03*
X57160000Y-85475240D03*
X57160000Y-84974860D03*
D44*
X56300860Y-84395800D03*
D45*
X55500760Y-84395800D03*
X54030100Y-84395800D03*
D20*
X52725000Y-82500000D03*
X54275000Y-82500000D03*
D32*
X99900000Y-55175000D03*
X99900000Y-53625000D03*
D46*
X91950000Y-83300000D03*
X93850000Y-83300000D03*
D26*
X33300000Y-76912500D03*
X33300000Y-75087500D03*
D32*
X102800000Y-63675000D03*
X102800000Y-62125000D03*
D47*
X38400000Y-54500000D03*
X33000000Y-54500000D03*
D48*
X32900000Y-67187500D03*
X32900000Y-69012500D03*
D17*
X63900000Y-43675000D03*
X63900000Y-45325000D03*
D49*
X91225000Y-35100000D03*
X89575000Y-35100000D03*
D34*
X58475000Y-68000000D03*
X55525000Y-68000000D03*
D50*
X79750000Y-63605000D03*
D51*
X76250000Y-63605000D03*
X79750000Y-96605000D03*
D52*
X82200000Y-91505000D03*
X73800000Y-92705000D03*
X73800000Y-67505000D03*
X82200000Y-68705000D03*
D53*
X42400000Y-87025000D03*
X42400000Y-89975000D03*
D34*
X58475000Y-71500000D03*
X55525000Y-71500000D03*
D53*
X46000000Y-87025000D03*
X46000000Y-89975000D03*
D54*
X43000000Y-69175000D03*
X43000000Y-66225000D03*
D17*
X69000000Y-43675000D03*
X69000000Y-45325000D03*
D55*
X84875000Y-57800000D03*
X86525000Y-57800000D03*
D18*
X62500000Y-53975000D03*
X62500000Y-51025000D03*
D17*
X99000000Y-37075000D03*
X99000000Y-38725000D03*
D49*
X93525000Y-85200000D03*
X91875000Y-85200000D03*
D26*
X97900000Y-76912500D03*
X97900000Y-75087500D03*
D19*
X71800000Y-89625000D03*
X71800000Y-87975000D03*
D56*
X64700000Y-84900000D03*
X64700000Y-74100000D03*
D57*
X93500000Y-92500000D03*
X88500000Y-92500000D03*
X93500000Y-87500000D03*
X88500000Y-87500000D03*
X93900000Y-90000000D03*
X88100000Y-90000000D03*
D58*
X33337500Y-79000000D03*
X31462500Y-79000000D03*
D46*
X62550000Y-88500000D03*
X64450000Y-88500000D03*
D21*
X90675000Y-56900000D03*
X89125000Y-56900000D03*
D28*
X100000000Y-76937500D03*
X100000000Y-75062500D03*
D49*
X91225000Y-37100000D03*
X89575000Y-37100000D03*
D22*
X69050000Y-41437500D03*
X70950000Y-41437500D03*
X70000000Y-39562500D03*
D18*
X52000000Y-80475000D03*
X52000000Y-77525000D03*
D55*
X76275000Y-61100000D03*
X77925000Y-61100000D03*
D59*
X34712500Y-65300000D03*
X32887500Y-65300000D03*
D60*
X35150000Y-67500000D03*
D61*
X35237500Y-69000000D03*
D60*
X35150000Y-70500000D03*
D62*
X84425000Y-51150000D03*
X84425000Y-55650000D03*
X86575000Y-51150000D03*
X86575000Y-55650000D03*
D63*
X35050000Y-84690000D03*
D64*
X35050000Y-92310000D03*
D20*
X62725000Y-91900000D03*
X64275000Y-91900000D03*
D19*
X53000000Y-98825000D03*
X53000000Y-97175000D03*
D48*
X46400000Y-35387500D03*
X46400000Y-37212500D03*
D65*
X47800000Y-67375000D03*
X47800000Y-69250000D03*
D28*
X46400000Y-33237500D03*
X46400000Y-31362500D03*
D19*
X74100000Y-45325000D03*
X74100000Y-43675000D03*
D66*
X48990000Y-88500000D03*
X50010000Y-88500000D03*
D26*
X47800000Y-65612500D03*
X47800000Y-63787500D03*
D19*
X65900000Y-45325000D03*
X65900000Y-43675000D03*
X76100000Y-45325000D03*
X76100000Y-43675000D03*
D37*
X84302944Y-40802944D03*
X84302944Y-44197056D03*
X86000000Y-40100000D03*
X88400000Y-42500000D03*
X87697056Y-44197056D03*
X83600000Y-42500000D03*
D38*
X86000000Y-42500000D03*
D37*
X87697056Y-40802944D03*
X86000000Y-44900000D03*
D20*
X62725000Y-90400000D03*
X64275000Y-90400000D03*
D55*
X101475000Y-54900000D03*
X103125000Y-54900000D03*
D63*
X35090000Y-44150000D03*
D64*
X42710000Y-44150000D03*
D21*
X94875000Y-67700000D03*
X93325000Y-67700000D03*
D19*
X71000000Y-45325000D03*
X71000000Y-43675000D03*
D27*
X96450000Y-53600000D03*
X94550000Y-53600000D03*
D67*
X99800000Y-57162500D03*
X99300000Y-57162500D03*
X98800000Y-57162500D03*
X98300000Y-57162500D03*
X97800000Y-57162500D03*
X97300000Y-57162500D03*
X96800000Y-57162500D03*
X96300000Y-57162500D03*
X95800000Y-57162500D03*
X95300000Y-57162500D03*
X94800000Y-57162500D03*
D68*
X93962500Y-58000000D03*
X93962500Y-58500000D03*
X93962500Y-59000000D03*
X93962500Y-59500000D03*
X93962500Y-60000000D03*
X93962500Y-60500000D03*
X93962500Y-61000000D03*
X93962500Y-61500000D03*
X93962500Y-62000000D03*
X93962500Y-62500000D03*
X93962500Y-63000000D03*
D67*
X94800000Y-63837500D03*
X95300000Y-63837500D03*
X95800000Y-63837500D03*
X96300000Y-63837500D03*
X96800000Y-63837500D03*
X97300000Y-63837500D03*
X97800000Y-63837500D03*
X98300000Y-63837500D03*
X98800000Y-63837500D03*
X99300000Y-63837500D03*
X99800000Y-63837500D03*
D68*
X100637500Y-63000000D03*
X100637500Y-62500000D03*
X100637500Y-62000000D03*
X100637500Y-61500000D03*
X100637500Y-61000000D03*
X100637500Y-60500000D03*
X100637500Y-60000000D03*
X100637500Y-59500000D03*
X100637500Y-59000000D03*
X100637500Y-58500000D03*
X100637500Y-58000000D03*
D69*
X97300000Y-60500000D03*
D70*
X100725000Y-34665000D03*
X100075000Y-34665000D03*
X99425000Y-34665000D03*
X98775000Y-34665000D03*
X98125000Y-34665000D03*
D71*
X102275000Y-34765000D03*
X96525000Y-34785000D03*
D72*
X102155000Y-32715000D03*
D73*
X96425000Y-33465000D03*
D74*
X98465000Y-31515000D03*
D72*
X96675000Y-32715000D03*
D74*
X100385000Y-31515000D03*
D75*
X102155000Y-31785000D03*
X96695000Y-31785000D03*
D76*
X97005000Y-34785000D03*
D73*
X102375000Y-33465000D03*
D76*
X101845000Y-34785000D03*
D46*
X62550000Y-94100000D03*
X64450000Y-94100000D03*
D23*
X66525000Y-69300000D03*
X69475000Y-69300000D03*
D77*
X86800000Y-59600000D03*
X86800000Y-60800000D03*
X86800000Y-62000000D03*
M02*
